<svg width="620" height="617" fill="none" xmlns="http://www.w3.org/2000/svg"><path d="M553.405 613.965c36.444 0 65.987-6.764 65.987-15.108 0-8.345-29.543-15.109-65.987-15.109-36.443 0-65.987 6.764-65.987 15.109 0 8.344 29.544 15.108 65.987 15.108zm-296.499 1.873c123.666 0 223.917-11.188 223.917-24.988 0-13.8-100.251-24.987-223.917-24.987S32.988 577.05 32.988 590.85c0 13.8 100.252 24.988 223.918 24.988zm307.212-369.581l-9.233-2.001-2.067-9.233a.755.755 0 00-.71-.581.756.756 0 00-.71.581l-2.131 9.233-9.233 2.195a.757.757 0 00-.581.711c0 .322.258.645.581.71l9.233 2.001 2.066 9.233a.757.757 0 00.711.581.757.757 0 00.71-.581l2.131-9.233 9.233-2.195a.755.755 0 00.581-.71.933.933 0 00-.581-.711zm-443.895-19.951l-9.233-2.001-2.066-9.233a.757.757 0 00-.71-.581.757.757 0 00-.711.581l-2.13 9.233-9.233 2.195a.757.757 0 00-.581.71c0 .323.258.646.58.711l9.234 2.001 2.066 9.233a.755.755 0 00.71.581.755.755 0 00.71-.581l2.131-9.233 9.233-2.195a.756.756 0 00.581-.71.757.757 0 00-.581-.711zm397.214-16.981l-4.778-1.033-1.098-4.778c-.065-.193-.194-.258-.387-.258a.437.437 0 00-.388.258l-1.097 4.778-4.778 1.162c-.194.065-.259.194-.259.388s.129.323.323.387l4.778 1.033 1.098 4.778c.064.194.193.259.387.259s.323-.13.388-.259l1.097-4.778 4.778-1.162c.194-.064.258-.194.258-.387 0-.194-.129-.323-.322-.388zM212.562 402.251l7.555-28.28 88.65 24.535 24.471 48.102 95.236 15.044 13.171 82.065-229.083-141.466z" fill="#0B7AC9"/><path d="M441.641 543.717c-32.993 45.261-63.146 70.7-121.643 70.7-77.093 0-139.529-62.436-139.529-139.528 0-37.901 15.108-72.186 39.579-97.367l33.962 40.806 81.096 15.109 24.535 49.006 43.389-7.554 38.611 68.828z" fill="url(#paint0_linear_327_4752)"/><path d="M320.065 617c-78.384 0-142.112-63.792-142.112-142.111 0-37.255 14.334-72.509 40.354-99.175l2.002-2.066 35.189 42.291 81.419 15.173 24.212 48.425 43.26-7.554 40.354 71.863-.969 1.356C410.652 590.721 379.789 617 320.065 617zM219.986 381.461c-23.76 25.439-36.868 58.497-36.868 93.428 0 75.478 61.403 136.946 136.947 136.946 56.883 0 86.713-24.988 118.544-68.312l-36.932-65.729-43.453 7.554-24.794-49.587-80.709-15.044-32.735-39.256zm18.065-141.337l-54.688 82 52.751 6.65 63.211-39.644 15.044 15.109 47.134-12.268 63.211 32.994 36.738-2.841-63.146-83.873-160.255 1.873z" fill="#0B7AC9"/><path d="M399.213 182.143c-15.108-28.151-20.274-59.531-22.856-76.512-1.163-7.49-7.619-13.042-15.238-13.042h-77.028c-7.619 0-14.076 5.552-15.238 13.042-2.583 16.981-7.748 48.361-22.857 76.512-17.174 31.896-54.236 91.943-58.949 132.426l60.305-61.274 52.816 41.452 12.267-7.554 45.262 27.312 40.548-59.402 59.853 59.402c-4.649-40.419-41.71-100.466-58.885-132.362z" fill="url(#paint1_linear_327_4752)"/><path d="M183.629 321.865l.904-7.554c4.003-34.479 30.346-81.548 49.523-115.897 3.551-6.328 6.908-12.333 9.685-17.498 15.431-28.668 20.467-61.597 22.598-75.672 1.356-8.846 8.846-15.303 17.82-15.303h76.964c8.975 0 16.464 6.392 17.82 15.303 2.131 14.075 7.167 47.004 22.599 75.672 2.776 5.165 6.134 11.17 9.685 17.498 19.241 34.349 45.519 81.418 49.522 115.897l.84 7.36-62.953-62.436-40.16 58.821-45.972-27.764-12.461 7.683-52.364-41.193-64.05 65.083zm128.875-37.642l44.487 26.86 40.935-59.918 56.431 55.979c-6.521-32.606-30.088-74.768-47.65-106.212-3.551-6.393-6.909-12.397-9.685-17.563-15.883-29.442-20.984-63.017-23.179-77.351-.969-6.263-6.263-10.847-12.655-10.847h-76.964c-6.392 0-11.687 4.584-12.655 10.847-2.195 14.334-7.296 47.909-23.18 77.351-2.776 5.166-6.133 11.17-9.685 17.563-17.562 31.379-41.064 73.412-47.65 106.018l56.238-57.141 53.203 41.774 12.009-7.36z" fill="#0B7AC9"/><path d="M319.472 376.553l-.71-5.165c13.494-1.808 21.565-9.039 23.954-11.493-1.291-.452-2.583-.904-3.874-1.485-4.778-2.001-14.14-7.813-14.915-15.754-.516-5.166 2.454-9.943 8.846-14.269 4.584-3.1 13.171-3.229 18.272 1.549 4.132 3.874 7.102 11.558-.323 26.731 9.814 2.001 16.788-.065 21.178-2.518 7.296-4.068 10.783-10.654 11.622-15.496.129-.711.194-1.356.323-2.002-.258.065-.517.129-.775.258-4.971 1.485-19.112 1.163-23.89-6.004-3.099-4.714-1.743-10.718 4.133-17.95 3.293-4.003 10.46-6.457 16.723-3.551 3.809 1.743 9.297 6.392 9.555 18.918 3.745-2.454 6.522-5.617 8.2-9.62 6.845-16.013-4.971-39.515-5.552-40.613-1.615-2.841-31.121-54.946-39.644-73.671-12.203-26.73-17.885-119.577-18.144-123.516l5.23-.323c.065.969 5.876 95.753 17.692 121.644 8.522 18.66 39.192 72.767 39.514 73.348l.065.064c.581 1.098 13.624 26.537 5.747 45.068-2.583 6.005-7.038 10.589-13.237 13.688-.129 1.614-.387 3.293-.71 5.101-1.033 6.069-5.294 14.269-14.205 19.176-5.488 3.035-14.14 5.553-26.278 2.712-.129.194-.259.388-.388.646l-.258.323c-.517.581-9.943 11.751-28.151 14.204zm21.307-45.067c-2.066 0-4.003.516-5.165 1.291-4.649 3.164-6.844 6.328-6.522 9.427.517 4.778 7.167 9.62 11.752 11.493 1.614.645 3.163 1.226 4.648 1.678 5.101-10.137 5.876-17.885 1.937-21.565-1.807-1.679-4.326-2.324-6.65-2.324zm33.381-18.143c-2.776 0-5.488 1.226-6.844 2.905-2.906 3.616-6.005 8.523-3.81 11.751 2.906 4.391 13.753 5.165 18.079 3.874.969-.258 1.873-.581 2.777-.904.322-8.781-1.873-14.786-6.457-16.852a9.502 9.502 0 00-3.745-.774zm-118.61 57.658c-8.458 0-14.205-2.648-17.11-7.813-4.52-8.135.129-19.499 3.099-23.696 2.776-3.939 5.811-7.102 9.039-9.427-.452-.516-.839-.968-1.291-1.485l-.065-.129c-.71-.904-16.981-21.823-6.908-42.356 5.036-10.33 14.14-24.6 22.856-38.417 11.558-18.208 23.503-37.061 24.988-44.809 5.682-29.83 14.011-121.386 14.075-122.29l5.166.452c-.065.904-8.459 92.718-14.205 122.806-1.679 8.781-13.365 27.183-25.698 46.682-8.652 13.688-17.691 27.828-22.598 37.901-8.458 17.174 5.424 35.705 6.263 36.803.646.775 1.291 1.485 1.937 2.26 2.776-1.292 5.746-1.937 8.781-2.131 16.4-.775 30.153 15.173 30.734 15.883l-3.939 3.358c-.129-.129-12.655-14.657-26.537-14.011a17.664 17.664 0 00-5.488 1.097c11.364 14.141 15.432 24.536 12.462 31.703-1.873 4.584-6.586 7.296-13.237 7.619h-2.324zM254 334.133c-2.905 2.002-5.617 4.778-8.135 8.394-2.454 3.486-5.876 12.655-2.841 18.143 2.066 3.745 7.038 5.488 14.721 5.036 2.583-.129 7.232-.904 8.652-4.455 1.227-3.035 1.098-10.524-12.397-27.118z" fill="#FD0"/><path d="M349.242 28.668v-.969C349.242 12.397 336.845 0 321.543 0c-15.302 0-27.699 12.397-27.699 27.7v.968h55.398z" fill="#0B7AC9"/><path d="M376.551 21.372H266.465v67.536h110.086V21.372z" fill="#0B7AC9"/><path d="M384.621 84.518c0 6.005-4.842 10.912-10.912 10.912H270.08c-6.005 0-10.912-4.843-10.912-10.912 0-6.005 4.842-10.912 10.912-10.912h103.629c6.07.065 10.912 4.907 10.912 10.912z" fill="#fff"/><path d="M373.776 98.012H270.147c-7.425 0-13.495-6.069-13.495-13.494s6.07-13.495 13.495-13.495h103.629c7.426 0 13.495 6.07 13.495 13.495-.065 7.425-6.069 13.494-13.495 13.494zM270.147 76.253c-4.584 0-8.265 3.745-8.265 8.265 0 4.584 3.745 8.264 8.265 8.264h103.629c4.585 0 8.265-3.744 8.265-8.264 0-4.584-3.745-8.265-8.265-8.265H270.147z" fill="#0B7AC9"/><path d="M384.621 56.431c0 6.005-4.842 10.912-10.912 10.912H270.08c-6.005 0-10.912-4.842-10.912-10.912 0-6.004 4.842-10.911 10.912-10.911h103.629c6.07 0 10.912 4.842 10.912 10.911z" fill="#fff"/><path d="M373.776 69.861H270.147c-7.425 0-13.495-6.069-13.495-13.494s6.07-13.495 13.495-13.495h103.629c7.426 0 13.495 6.07 13.495 13.495-.065 7.49-6.069 13.494-13.495 13.494zM270.147 48.102c-4.584 0-8.265 3.745-8.265 8.265 0 4.584 3.745 8.264 8.265 8.264h103.629c4.585 0 8.265-3.745 8.265-8.264 0-4.584-3.745-8.265-8.265-8.265H270.147z" fill="#0B7AC9"/><path d="M384.621 28.28c0 6.005-4.842 10.912-10.912 10.912H270.08c-6.005 0-10.912-4.842-10.912-10.912 0-6.004 4.842-10.911 10.912-10.911h103.629c6.07 0 10.912 4.907 10.912 10.911z" fill="#fff"/><path d="M373.776 41.775H270.147c-7.425 0-13.495-6.07-13.495-13.495 0-7.425 6.07-13.494 13.495-13.494h103.629c7.426 0 13.495 6.07 13.495 13.494 0 7.425-6.069 13.495-13.495 13.495zm-103.629-21.76c-4.584 0-8.265 3.746-8.265 8.265 0 4.585 3.745 8.265 8.265 8.265h103.629c4.585 0 8.265-3.745 8.265-8.265 0-4.584-3.745-8.264-8.265-8.264H270.147z" fill="#0B7AC9"/><path d="M152.702 368.676c2.453-2.13 5.746-3.164 9.814-2.905 4.067.193 9.168 1.356 15.238 3.422 6.069 2.066 10.653 4.326 13.881 6.844 3.229 2.518 5.101 5.359 5.682 8.716.581 3.293.646 6.134.129 8.588-.516 2.389-1.485 5.811-2.97 10.201l-54.494 159.997c-2.518 7.489-5.359 12.719-8.394 15.625-3.034 2.905-6.586 4.326-10.718 4.197-4.132-.129-8.975-1.162-14.527-3.035-5.553-1.872-9.815-3.874-12.72-5.94-2.97-2.066-5.036-4.068-6.328-6.005-1.29-1.937-1.872-4.261-1.807-7.038-.065-3.68 1.097-8.845 3.357-15.56l11.945-35.125-77.997-26.601c-13.43-4.584-20.145-10.912-20.145-19.047.065-3.422 1.034-7.684 2.777-12.849s3.357-8.91 4.778-11.235l56.754-88.262c2.647-4.004 4.778-7.038 6.457-9.04 1.678-2.001 4.132-3.615 7.425-4.842 3.293-1.227 6.973-1.162 10.976.194 4.003 1.355 8.2 3.551 12.526 6.521 12.203 8.2 16.787 16.658 13.882 25.31-1.033 3.099-3.099 6.844-6.134 11.428-.323.323-.516.581-.581.775l-41.452 64.244 46.94 16.013 26.795-78.578c1.485-4.391 2.777-7.619 3.745-9.621 1.033-2.13 2.712-4.197 5.166-6.392z" fill="#fff"/><path d="M121.385 585.943h-.581c-4.39-.129-9.491-1.226-15.302-3.163-5.876-2.002-10.266-4.068-13.43-6.264-3.228-2.259-5.488-4.455-6.973-6.714-1.55-2.389-2.324-5.23-2.195-8.459-.065-4.003 1.097-9.362 3.486-16.335l11.106-32.671-75.543-25.762C7.425 481.603.065 474.372 0 465.01c.065-3.745 1.033-8.2 2.905-13.688 1.873-5.424 3.487-9.233 5.037-11.752l56.754-88.327c2.776-4.197 4.907-7.167 6.65-9.297 1.937-2.325 4.778-4.262 8.523-5.618 3.874-1.42 8.135-1.356 12.784.194 4.197 1.42 8.652 3.745 13.172 6.844 13.236 8.91 18.208 18.402 14.85 28.28-1.097 3.293-3.228 7.232-6.456 12.01l-.13.193-.193.194-.065.064-39.838 61.726 41.259 14.076 25.956-76.124c1.549-4.585 2.84-7.813 3.874-9.944 1.162-2.324 3.034-4.648 5.811-7.037 2.97-2.648 6.908-3.81 11.686-3.551 4.326.258 9.685 1.42 15.948 3.551 6.263 2.13 11.235 4.584 14.657 7.231 3.745 2.906 6.004 6.328 6.715 10.266.645 3.616.71 6.844.129 9.556-.517 2.518-1.55 6.005-3.099 10.525l-54.495 159.996c-2.712 7.942-5.682 13.43-9.039 16.658-3.358 3.228-7.425 4.907-12.01 4.907zM85.809 340.46c-1.42 0-2.776.259-4.003.711-2.84 1.033-4.972 2.453-6.328 4.067-1.55 1.937-3.68 4.907-6.262 8.846l-56.69 88.263c-1.291 2.066-2.841 5.682-4.52 10.653-1.678 4.907-2.582 8.975-2.647 12.074 0 6.78 6.198 12.397 18.402 16.529l80.45 27.441-12.784 37.578c-2.196 6.392-3.293 11.364-3.229 14.657v.129c-.064 2.195.388 4.003 1.356 5.488 1.098 1.679 2.97 3.422 5.617 5.294 2.712 1.938 6.78 3.81 12.074 5.618 5.295 1.808 9.944 2.776 13.753 2.905 3.422.065 6.328-1.033 8.846-3.486 2.712-2.648 5.294-7.555 7.683-14.592l54.494-159.997c1.486-4.261 2.454-7.619 2.906-9.878.452-2.067.387-4.585-.129-7.555-.452-2.647-2.002-4.971-4.713-7.102-2.971-2.324-7.426-4.455-13.172-6.392-5.747-1.937-10.654-3.099-14.528-3.293-3.422-.194-6.004.581-7.941 2.26-2.196 1.937-3.745 3.745-4.585 5.488-.968 1.872-2.195 5.036-3.615 9.297l-27.635 81.032-52.557-17.885 43.195-66.891c.194-.388.452-.775.839-1.163 2.841-4.261 4.778-7.812 5.682-10.589 2.518-7.425-1.679-14.721-12.849-22.275-4.132-2.841-8.135-4.907-11.944-6.199-1.808-.71-3.552-1.033-5.166-1.033z" fill="#0B7AC9"/><path d="M527.771 386.044c1.292-3.034 3.81-5.294 7.555-6.908 3.809-1.615 8.845-2.777 15.173-3.552 6.327-.774 11.493-.774 15.496.065s6.973 2.647 8.91 5.359c1.937 2.712 3.228 5.295 3.874 7.619.581 2.389 1.162 5.876 1.743 10.524l20.597 167.809c.969 7.878.71 13.753-.71 17.692-1.485 3.938-4.068 6.779-7.813 8.458-3.745 1.679-8.587 2.905-14.398 3.616-5.811.71-10.524.774-14.076.193-3.551-.581-6.327-1.485-8.264-2.647-2.002-1.162-3.551-3.035-4.649-5.553-1.614-3.293-2.841-8.393-3.745-15.496l-4.52-36.803-81.806 10.008c-14.075 1.743-22.921-1.033-26.472-8.393-1.42-3.1-2.454-7.361-3.099-12.785-.646-5.423-.84-9.491-.581-12.203l12.655-104.146c.645-4.778 1.291-8.394 1.872-10.976.581-2.518 2.131-5.037 4.585-7.619 2.453-2.518 5.811-4.068 10.007-4.585 4.197-.516 8.911-.387 14.14.388 14.528 2.066 22.405 7.683 23.503 16.723.387 3.228.193 7.554-.581 12.913-.13.452-.194.775-.194.968l-9.362 75.866 49.2-6.069-10.137-82.387c-.581-4.649-.84-8.071-.775-10.331-.065-2.066.581-4.713 1.872-7.748z" fill="#fff"/><path d="M569.542 599.954c-2.195 0-4.132-.129-5.875-.452-3.874-.645-6.909-1.614-9.233-2.97-2.454-1.42-4.326-3.68-5.682-6.65-1.743-3.551-3.035-8.91-3.939-16.271l-4.196-34.22-79.224 9.749c-15.238 1.873-25.052-1.42-29.12-9.814-1.549-3.422-2.647-7.877-3.357-13.624-.71-5.681-.904-9.878-.581-12.784l12.655-104.21c.646-4.972 1.291-8.588 1.937-11.235.71-2.97 2.454-5.94 5.23-8.781 2.841-2.97 6.779-4.778 11.557-5.359 4.455-.517 9.427-.388 14.851.387 15.754 2.26 24.406 8.652 25.697 18.983.452 3.486.259 7.942-.581 13.623l-.064.259-.065.258v.064l-8.975 72.896 43.26-5.294-9.814-79.805c-.581-4.778-.839-8.264-.839-10.653.064-2.647.71-5.488 2.13-8.846 1.55-3.68 4.52-6.456 8.975-8.329 4.003-1.679 9.362-2.905 15.883-3.745 6.586-.839 12.074-.775 16.336.129 4.649.969 8.135 3.1 10.524 6.328 2.131 2.97 3.616 5.876 4.262 8.523.645 2.518 1.226 6.069 1.808 10.847l20.596 167.809c1.033 8.329.711 14.528-.904 18.918-1.678 4.649-4.778 7.942-9.233 9.943-4.003 1.808-9.104 3.099-15.173 3.81-3.293.322-6.263.516-8.846.516zm-24.47-66.374l4.842 39.385c.84 6.715 2.002 11.622 3.487 14.657l.064.129c.904 2.066 2.066 3.487 3.616 4.391 1.679 1.033 4.197 1.808 7.361 2.324 3.293.517 7.748.452 13.3-.194 5.553-.71 10.137-1.807 13.689-3.422 3.163-1.42 5.229-3.68 6.456-6.973 1.292-3.551 1.485-9.104.581-16.464l-20.596-167.809c-.582-4.52-1.098-7.942-1.679-10.202-.517-2.066-1.679-4.326-3.422-6.779-1.614-2.196-4.003-3.616-7.361-4.326-3.68-.775-8.587-.775-14.592-.065-6.069.775-10.912 1.872-14.527 3.357-3.164 1.356-5.166 3.1-6.199 5.489-1.098 2.711-1.743 5.036-1.743 6.908 0 2.131.258 5.489.775 9.944l10.459 84.969-55.075 6.78 9.75-79.03c0-.452.064-.904.258-1.42.71-5.036.904-9.104.516-12.01-.968-7.812-7.941-12.526-21.307-14.463-4.971-.774-9.491-.904-13.43-.387-3.615.452-6.392 1.679-8.458 3.809-2.13 2.196-3.422 4.391-3.938 6.393-.581 2.389-1.227 6.004-1.808 10.718l-12.655 104.146c-.259 2.453-.065 6.327.581 11.557.645 5.166 1.614 9.233 2.905 12.01 2.97 6.133 10.977 8.458 23.761 6.908l84.389-10.33z" fill="#0B7AC9"/><defs><linearGradient id="paint0_linear_327_4752" x1="311.055" y1="377.522" x2="311.055" y2="614.417" gradientUnits="userSpaceOnUse"><stop stop-color="#fff"/><stop offset="1" stop-color="#8A8A8A" stop-opacity="0"/></linearGradient><linearGradient id="paint1_linear_327_4752" x1="322.572" y1="92.589" x2="322.572" y2="314.569" gradientUnits="userSpaceOnUse"><stop stop-color="#fff"/><stop offset="1" stop-color="#8A8A8A" stop-opacity="0"/></linearGradient></defs></svg>