<svg width="17" height="17" fill="none" xmlns="http://www.w3.org/2000/svg"><path d="M8.57 16.385c-4.385 0-7.953-3.568-7.953-7.952C.617 4.048 4.185.48 8.57.48s7.952 3.568 7.952 7.953c0 4.384-3.567 7.952-7.952 7.952zm0-15.213c-4.004 0-7.261 3.257-7.261 7.26 0 4.004 3.257 7.261 7.26 7.261 4.004 0 7.261-3.257 7.261-7.26 0-4.004-3.257-7.261-7.26-7.261z" fill="#000"/><path d="M12.718 12.927a.346.346 0 01-.345-.345 3.807 3.807 0 00-3.804-3.804 3.807 3.807 0 00-3.803 3.803.346.346 0 01-.691 0 4.5 4.5 0 014.494-4.494 4.5 4.5 0 014.495 4.495c0 .19-.155.345-.346.345zM8.57 7.395a2.423 2.423 0 01-2.42-2.42 2.423 2.423 0 012.42-2.42 2.423 2.423 0 012.42 2.42 2.423 2.423 0 01-2.42 2.42zm0-4.149c-.954 0-1.73.776-1.73 1.73 0 .952.776 1.728 1.73 1.728.952 0 1.728-.776 1.728-1.729 0-.953-.776-1.729-1.729-1.729z" fill="#000"/></svg>