<svg width="17" height="17" fill="none" xmlns="http://www.w3.org/2000/svg"><path d="M15.658 17C7.025 17 0 9.975 0 1.342 0 .602.602 0 1.342 0h3.132c.74 0 1.342.602 1.342 1.342a9.73 9.73 0 00.487 3.054c.153.49.025 1.01-.332 1.369-.865 1.15-1.037 2.738-.134 3.859.499.62 1.054 1.163 1.689 1.655 1.045.81 2.5.657 3.555-.14.133-.1.254-.218.395-.307a1.34 1.34 0 011.132-.125 9.705 9.705 0 003.05.486c.74 0 1.342.602 1.342 1.342v3.123c0 .74-.602 1.342-1.342 1.342zM1.342.895c-.246 0-.447.2-.447.447 0 8.14 6.623 14.763 14.763 14.763.246 0 .447-.2.447-.447v-3.123a.448.448 0 00-.447-.447c-1.144 0-2.266-.18-3.336-.532a.449.449 0 00-.455.106l-2.203 1.67a.445.445 0 01-.473.04c-2.625-1.344-4.237-2.956-5.564-5.563a.447.447 0 01.041-.472L5.297 5.18c.164-.17.206-.343.154-.51a10.621 10.621 0 01-.53-3.329.448.448 0 00-.447-.447H1.342z" fill="#0B7AC9"/><path d="M1.342.895c-.246 0-.447.2-.447.447 0 8.14 6.623 14.763 14.763 14.763.246 0 .447-.2.447-.447v-3.123a.448.448 0 00-.447-.447c-1.144 0-2.266-.18-3.336-.532a.449.449 0 00-.455.106l-2.203 1.67a.445.445 0 01-.473.04c-2.625-1.344-4.237-2.956-5.564-5.563a.447.447 0 01.041-.472L5.297 5.18c.164-.17.206-.343.154-.51a10.621 10.621 0 01-.53-3.329.448.448 0 00-.447-.447H1.342z" fill="#0B7AC9"/></svg>