<svg width="18" height="17" fill="none" xmlns="http://www.w3.org/2000/svg"><path d="M15.71 17C7.078 17 .054 9.975.054 1.342A1.342 1.342 0 011.395 0h3.131c.74 0 1.343.602 1.343 1.342a9.73 9.73 0 00.487 3.054c.153.49.025 1.01-.332 1.369-.865 1.15-1.037 2.738-.135 3.859.5.62 1.054 1.163 1.69 1.655 1.045.81 2.5.657 3.555-.14.133-.1.253-.218.394-.307a1.34 1.34 0 011.133-.125 9.704 9.704 0 003.05.486c.74 0 1.342.602 1.342 1.342v3.123c0 .74-.602 1.342-1.342 1.342zM1.396.895c-.246 0-.448.2-.448.447 0 8.14 6.623 14.763 14.764 14.763.246 0 .447-.2.447-.447v-3.123a.448.448 0 00-.447-.447c-1.144 0-2.266-.18-3.336-.532a.449.449 0 00-.455.106l-2.203 1.67a.445.445 0 01-.474.04C6.618 12.029 5.007 10.417 3.68 7.81a.447.447 0 01.041-.472L5.35 5.18c.163-.17.205-.343.153-.51a10.621 10.621 0 01-.53-3.329.448.448 0 00-.447-.447H1.395z" fill="#fff"/><path d="M1.395.895c-.246 0-.448.2-.448.447 0 8.14 6.623 14.763 14.764 14.763.246 0 .447-.2.447-.447v-3.123a.448.448 0 00-.447-.447c-1.144 0-2.266-.18-3.336-.532a.449.449 0 00-.455.106l-2.203 1.67a.445.445 0 01-.474.04C6.618 12.029 5.007 10.417 3.68 7.81a.447.447 0 01.041-.472L5.35 5.18c.163-.17.205-.343.153-.51a10.621 10.621 0 01-.53-3.329.448.448 0 00-.447-.447H1.395z" fill="#fff"/></svg>