<svg width="17" height="17" fill="none" xmlns="http://www.w3.org/2000/svg"><path d="M8.026 12.123c.834.31 1.756.233 2.565-.122l-1.202.912c-.49-.253-.942-.514-1.363-.79zM5.086 6.29c-.396.89-.483 1.91-.123 2.82a14.391 14.391 0 01-.875-1.498l.998-1.322zm7.083 5.771l.026-.02h0c1.096.359 2.243.542 3.41.548v3.017a14.211 14.211 0 01-9.696-3.861c.858.79 1.856 1.46 3.053 2.073a.945.945 0 001.004-.087s0 0 0 0l2.203-1.67zM3.182 8.037c.595 1.17 1.249 2.149 2.02 2.996a14.21 14.21 0 01-3.807-9.637H4.42c.006 1.166.19 2.313.545 3.403a.292.292 0 01-.03.036l-.02.021-.018.024-1.629 2.157h0a.947.947 0 00-.087 1z" fill="#fff" stroke="#fff"/></svg>