<svg width="24" height="22" fill="none" xmlns="http://www.w3.org/2000/svg"><path d="M8.5 21.5c-1.075 0-1.998-.922-2-1.997a1.976 1.976 0 002 1.997zm0 0c1.076 0 2-.924 2-2m-2 2c1.124 0 2-.876 2-2m0 0c0-1.076-.924-2-2-2m2 2c0-1.124-.876-2-2-2m0 0c-1.075 0-1.998.922-2 1.997a1.976 1.976 0 012-1.997zm10 4c-1.073 0-1.994-.918-2-1.99a1.976 1.976 0 002 1.99zm0 0c1.076 0 2-.924 2-2m-2 2c1.124 0 2-.876 2-2m0 0c0-1.076-.924-2-2-2m2 2c0-1.124-.876-2-2-2m0 0c-1.073 0-1.994.918-2 1.99a1.976 1.976 0 012-1.99zm4.985-14l-1.768 7.072 1.57-6.556.123-.516h.075zm-16.92 9.896l8.637-1.124-8.27 1.133-.734.1.368.643C7.068 15.026 8.048 15.5 9 15.5h-.1c-1.366 0-2.654-1.036-2.909-2.392h0v-.005L4.1 3.5h.01l.099.498 1.8 9 .091.458.464-.06zM22.166 4.4l-1.472 6.149-13.795 1.795L5.309 4.4h16.857zM8.5 20.5c-.524 0-1-.476-1-1s.476-1 1-1 1 .476 1 1-.476 1-1 1zm10 0c-.524 0-1-.476-1-1s.476-1 1-1 1 .476 1 1-.476 1-1 1z" stroke="#fff"/><path d="M8.5 21.5c-1.075 0-1.998-.922-2-1.997a1.976 1.976 0 002 1.997zm0 0c1.076 0 2-.924 2-2m-2 2c1.124 0 2-.876 2-2m0 0c0-1.076-.924-2-2-2m2 2c0-1.124-.876-2-2-2m0 0c-1.075 0-1.998.922-2 1.997a1.976 1.976 0 012-1.997zm10 4c-1.073 0-1.994-.918-2-1.99a1.976 1.976 0 002 1.99zm0 0c1.076 0 2-.924 2-2m-2 2c1.124 0 2-.876 2-2m0 0c0-1.076-.924-2-2-2m2 2c0-1.124-.876-2-2-2m0 0c-1.073 0-1.994.918-2 1.99a1.976 1.976 0 012-1.99zm4.985-14l-1.768 7.072 1.57-6.556.123-.516h.075zm-16.92 9.896l8.637-1.124-8.27 1.133-.734.1.368.643C7.068 15.026 8.048 15.5 9 15.5h-.1c-1.366 0-2.654-1.036-2.909-2.392h0v-.005L4.1 3.5h.01l.099.498 1.8 9 .091.458.464-.06zM22.166 4.4l-1.472 6.149-13.795 1.795L5.309 4.4h16.857zM8.5 20.5c-.524 0-1-.476-1-1s.476-1 1-1 1 .476 1 1-.476 1-1 1zm10 0c-.524 0-1-.476-1-1s.476-1 1-1 1 .476 1 1-.476 1-1 1z" stroke="#FFFEFE" stroke-opacity=".2"/></svg>