<svg width="18" height="18" fill="none" xmlns="http://www.w3.org/2000/svg"><path d="M13.75 17.213a1.73 1.73 0 01-1.73-1.729 1.73 1.73 0 011.73-1.729 1.73 1.73 0 011.728 1.73 1.73 1.73 0 01-1.728 1.728zm0-2.766a1.038 1.038 0 000 2.074c.571 0 1.037-.465 1.037-1.037 0-.572-.466-1.037-1.037-1.037zm-6.915 2.766a1.73 1.73 0 01-1.729-1.729 1.73 1.73 0 011.729-1.729 1.73 1.73 0 011.728 1.73 1.73 1.73 0 01-1.728 1.728zm0-2.766a1.038 1.038 0 000 2.074 1.038 1.038 0 000-2.074zm8.298-1.383h-7.98a2.427 2.427 0 01-2.374-1.945L3.094 2.692H1.303a.346.346 0 010-.692h2.074c.165 0 .307.116.34.278l1.74 8.705c.16.805.874 1.39 1.695 1.39h7.98a.346.346 0 010 .691z" fill="#000"/><path d="M14.603 10.298H5.106a.346.346 0 010-.691h9.497c.522 0 .965-.391 1.029-.91a.351.351 0 01.386-.3c.19.024.324.197.3.387a1.731 1.731 0 01-1.715 1.514zM8.91 4.766H4.068a.346.346 0 010-.691h4.84a.346.346 0 010 .691zm4.84 3.458A3.808 3.808 0 019.946 4.42 3.808 3.808 0 0113.75.617a3.808 3.808 0 013.803 3.803 3.808 3.808 0 01-3.803 3.804zm0-6.915a3.115 3.115 0 00-3.112 3.111 3.115 3.115 0 003.112 3.112 3.115 3.115 0 003.11-3.112 3.115 3.115 0 00-3.11-3.11z" fill="#000"/><path d="M13.058 6.15a.347.347 0 01-.245-.102L11.43 4.665a.346.346 0 01.49-.489l1.138 1.138 2.521-2.52a.346.346 0 01.49.488l-2.767 2.766a.345.345 0 01-.244.101z" fill="#000"/></svg>