<svg width="25" height="30" fill="none" xmlns="http://www.w3.org/2000/svg"><path d="M24 12.439v13.747a2.764 2.764 0 01-2.764 2.765H3.764A2.764 2.764 0 011 26.186V3.764A2.764 2.764 0 013.764 1H12.3c.117 0 .213.096.213.213v8.303a2.764 2.764 0 002.764 2.764h8.564a.16.16 0 01.112.047c.03.03.047.07.047.112z" fill="#FD0" stroke="#FD0" stroke-miterlimit="10"/><path d="M23.906 12.28h-8.538a2.855 2.855 0 01-2.856-2.856V1h.114l11.28 11.28z" stroke="#FD0" stroke-miterlimit="10" stroke-linejoin="bevel"/><path d="M10.113 20.871a1.235 1.235 0 01-.527.502c-.238.127-.54.19-.904.19H7.94v1.701h-.888v-4.43h1.631c.343 0 .635.06.876.178.241.119.422.281.543.489.12.207.181.442.181.704 0 .237-.057.459-.169.666zm-.924-.193c.118-.112.178-.27.178-.473 0-.431-.241-.647-.723-.647h-.705v1.288h.705c.245 0 .427-.056.545-.168zm4.496-1.571c.353.183.626.442.819.778.192.336.288.726.288 1.17 0 .445-.096.833-.288 1.165-.192.332-.466.59-.819.771-.353.182-.763.273-1.228.273h-1.549v-4.43h1.549c.465 0 .874.091 1.228.273zm-.18 3.021c.253-.254.38-.611.38-1.073 0-.46-.127-.822-.38-1.082-.255-.26-.614-.39-1.08-.39h-.628v2.926h.628c.466 0 .825-.127 1.08-.38zm4.691-3.294v.717H16.35v1.136h1.416v.705H16.35v1.872h-.888v-4.43h2.735z" fill="#0B7AC9"/></svg>