<svg width="40" height="40" fill="none" xmlns="http://www.w3.org/2000/svg"><path d="M39.167 19.167a.834.834 0 00-.834.833c0 10.108-8.225 18.333-18.333 18.333-8.608 0-13.882-6.096-16.905-11.666H7.5A.834.834 0 007.5 25H.833a.834.834 0 00-.833.833v6.597a.834.834 0 001.667 0v-4.917C6.108 35.683 12.42 40 20 40c11.028 0 20-8.972 20-20a.834.834 0 00-.833-.833zm0-12.43a.834.834 0 00-.834.833v4.917C33.892 4.315 27.58 0 20 0 8.972 0 0 8.972 0 20a.834.834 0 001.667 0C1.667 9.892 9.892 1.667 20 1.667c8.608 0 13.882 6.096 16.905 11.666H32.5a.834.834 0 000 1.667h6.667c.46 0 .833-.373.833-.833V7.57a.834.834 0 00-.833-.833z" fill="#0B7AC9"/><path d="M19.757 8.579l-7.503 11.543a1 1 0 00.839 1.545h6.699l-1.59 8.344c-.203 1.068 1.203 1.648 1.812.746l7.892-11.698a1 1 0 00-.829-1.559h-6.452l.964-8.26c.122-1.05-1.256-1.547-1.832-.661z" stroke="#0B7AC9" stroke-width="2"/></svg>