<svg width="42" height="42" fill="none" xmlns="http://www.w3.org/2000/svg"><path d="M8.008 9.768H41V41H1V17.256l7.008-7.488zm0 0v7.488" stroke="#0B7AC9"/><path d="M36.055 24.38c0 2.176-1.644 3.883-3.603 3.883-1.959 0-3.602-1.707-3.602-3.884 0-2.176 1.643-3.883 3.602-3.883 1.96 0 3.603 1.707 3.603 3.884zM8.704 35.703c0 .966-.725 1.692-1.551 1.692s-1.551-.726-1.551-1.692.725-1.691 1.55-1.691c.827 0 1.552.725 1.552 1.691zm13.676-19.36c0 .966-.725 1.691-1.551 1.691s-1.552-.725-1.552-1.691c0-.966.726-1.692 1.552-1.692.826 0 1.55.726 1.55 1.692zM12.625 5.384v0c0-1.555.258-3.3 1.576-4.126.263-.165.54-.268.817-.257.231.009.46.097.678.232 1.324.82 1.544 2.594 1.544 4.151v0m-4.615 0h4.615m-4.615 0v2.557m4.615-2.557v2.557m-4.615 0h4.615m-4.615 0v1.827M17.24 7.94v1.827m-4.615 0v24.291l2.393 4.566 2.222-4.566V9.768m-4.615 0h4.615m-2.393 8.767v1.095m-.001 1.096v9.862m-2.051 1.828h3.932m-3.762 2.191h4.102" stroke="#0B7AC9"/><path d="M32.111 38.444h7.009" stroke="#0B7AC9" stroke-linecap="round"/><path d="M1 17.438h7.521" stroke="#0B7AC9"/><path d="M38.947 36.25h-2.906M21.13 26.698s.07-4.268 1.413-6.164c1.49-2.106 5.854-3.128 5.854-3.128m-2.213 8.292s-.538 3.52-1.68 5.511c-1.267 2.21-4.387 4.466-4.387 4.466m-10.07-3.96s-2.162-.935-2.95-2.125c-.873-1.322-.814-4.115-.814-4.115" stroke="#0B7AC9" stroke-linecap="round"/></svg>