<svg width="40" height="40" fill="none" xmlns="http://www.w3.org/2000/svg"><path d="M21.666 14.645c.51 0 1.02.193 1.408.583 1.066 1.067 1.711 2.032 2.055 3.064a2.514 2.514 0 001.581 1.581c1.032.344 1.995.987 3.032 2.023l8.838 8.839A4.819 4.819 0 0140 34.163a4.83 4.83 0 01-1.42 3.437l-.98.98c-1.837 1.837-5.036 1.828-6.865 0l-8.838-8.838c-1.036-1.036-1.68-1.999-2.023-3.032a2.514 2.514 0 00-1.582-1.582c-1.031-.343-1.995-.986-3.031-2.023-.808-.808-.808-2.067-.035-2.838l5.041-5.042c.385-.387.89-.58 1.399-.58zm12.5 23.688c.856 0 1.654-.331 2.256-.933l.98-.978a3.17 3.17 0 00.931-2.252 3.16 3.16 0 00-.933-2.257l-8.838-8.838c-.847-.847-1.603-1.362-2.38-1.62a4.191 4.191 0 01-2.636-2.637c-.259-.778-.775-1.535-1.624-2.383-.155-.155-.351-.158-.48-.033l-5.041 5.041a.316.316 0 000 .447c.883.883 1.638 1.398 2.416 1.657a4.191 4.191 0 012.637 2.636c.26.779.773 1.534 1.622 2.38l8.838 8.838c.6.6 1.4.932 2.251.932z" fill="#0B7AC9"/><path d="M2.501 0a.83.83 0 01.374.088l5.744 2.874a2.486 2.486 0 011.382 2.235v1.125l9.756 9.756a.834.834 0 01-1.178 1.179l-10-10a.834.834 0 01-.245-.59v-1.47a.828.828 0 00-.46-.745L2.666 1.847l-.816.816 2.605 5.209c.14.285.425.461.743.461h1.47a.84.84 0 01.59.244l10 10a.834.834 0 01-1.179 1.178L6.323 10H5.198a2.49 2.49 0 01-2.237-1.382L.088 2.873a.832.832 0 01.157-.961L1.91.245A.833.833 0 012.501 0z" fill="#0B7AC9"/><path d="M16.25 17.917c.214 0 .427.081.59.243l.834.833a.834.834 0 010 1.179l-1.272 1.271c-.105.105-.105.342 0 .447.884.883 1.639 1.398 2.417 1.657.61.203 1.173.551 1.63 1.008a.834.834 0 010 1.178l-2.398 2.398c-.93.93-1.435 2.11-1.387 3.239.088 2.056-.772 4.021-2.632 6.003-1.591 1.697-3.766 2.644-5.801 2.627-1.853-.023-3.618-.67-5.106-1.872a.837.837 0 01-.309-.706.837.837 0 01.404-.657l5.093-3.055a4.533 4.533 0 00-2.442-3.592l-4.56 2.735a.83.83 0 01-.828.017c-.253-.139-.45-.413-.467-.7a8.264 8.264 0 012.255-6.219 8.36 8.36 0 016.063-2.618 7.6 7.6 0 011.904.252l5.423-5.423a.831.831 0 01.59-.245zm2.329 7.326a2.24 2.24 0 00-.287-.115c-1.033-.343-1.996-.986-3.033-2.023a2.034 2.034 0 01-.607-1.577l-3.58 3.58a.83.83 0 01-.83.209C9.53 25.1 8.925 25 8.335 25a6.607 6.607 0 00-4.851 2.093 6.598 6.598 0 00-1.738 3.555l3.661-2.197a.835.835 0 01.802-.031l.351.175a6.2 6.2 0 013.442 5.572.834.834 0 01-.405.715l-4.4 2.64c.947.52 1.985.798 3.057.811 1.571.044 3.291-.743 4.561-2.098 1.559-1.662 2.252-3.185 2.182-4.792-.07-1.593.613-3.23 1.873-4.488l1.71-1.712zM31.672 0h.012a8.27 8.27 0 014.803 1.553.832.832 0 01-.055 1.394l-5.575 3.345a4.53 4.53 0 002.442 3.591l5.344-3.206a.833.833 0 011.257.608l.027.197c.036.28.073.56.073.851 0 4.595-3.738 8.334-8.333 8.334-1.375.073-2.598.445-3.422 1.266l-2.513 2.514a.834.834 0 01-1.178 0 4.169 4.169 0 01-1.008-1.63c-.259-.777-.774-1.534-1.624-2.384-.155-.155-.351-.158-.48-.033l-1.271 1.272a.834.834 0 01-1.179 0l-.833-.834a.834.834 0 010-1.178l3.787-3.787c.933-.933 1.44-2.118 1.391-3.248-.088-2.043.762-3.993 2.597-5.962C27.512.972 29.604 0 31.672 0zm2.688 2.245a6.561 6.561 0 00-2.68-.578h-.008c-1.608 0-3.253.776-4.517 2.133-1.535 1.648-2.218 3.158-2.15 4.755.069 1.597-.616 3.237-1.878 4.498l-1.596 1.597a1.953 1.953 0 011.543.578c1.066 1.067 1.711 2.032 2.055 3.064.033.098.07.193.115.286l1.823-1.823C28.2 15.623 29.815 15 31.617 15h.03c3.533 0 6.421-2.733 6.668-6.185l-4.553 2.733a.836.836 0 01-.802.032l-.351-.175a6.2 6.2 0 01-3.442-5.572c0-.293.153-.563.405-.715l4.788-2.873z" fill="#0B7AC9"/></svg>