<svg width="30" height="40" fill="none" xmlns="http://www.w3.org/2000/svg"><path d="M16.21 13.071l-1.199-2.651-1.199 2.651-2.92.33 2.235 1.654-.87 3.096 2.754-1.607 2.846 1.607-.961-2.765 2.21-1.984-2.896-.33z" stroke="#0B7AC9"/><path d="M15 23.331c5.352 0 9.706-4.113 9.706-9.166S20.352 4.998 15 4.998c-5.352 0-9.706 4.114-9.706 9.167S9.648 23.33 15 23.33zm0-16.666c4.378 0 7.941 3.365 7.941 7.5s-3.563 7.5-7.94 7.5c-4.38 0-7.942-3.365-7.942-7.5s3.563-7.5 7.941-7.5zm9.73 18.261c3.22-2.6 5.27-6.455 5.27-10.76C30 6.355 23.271 0 15 0S0 6.355 0 14.166c0 4.305 2.049 8.159 5.268 10.76L.05 38.89a.805.805 0 00.248.902.928.928 0 00.98.119l6.554-3.095 3.97 3.001c.24.18.558.228.846.135a.85.85 0 00.568-.605l1.22-5.18 2.398 5.325c.107.24.328.419.596.482a.913.913 0 00.768-.157l3.97-3.002 6.554 3.096a.94.94 0 00.396.088.91.91 0 00.582-.209.803.803 0 00.249-.901L24.73 24.926zM1.766 14.165c0-6.893 5.936-12.5 13.235-12.5 7.299 0 13.235 5.607 13.235 12.5S22.3 26.665 15 26.665c-7.299 0-13.235-5.607-13.235-12.5zM11.8 37.679l-3.307-2.498a.93.93 0 00-.946-.095l-5.105 2.41L6.745 25.98c1.47.92 3.123 1.595 4.893 1.98l1.608 3.568-1.447 6.151zm10.653-2.593a.93.93 0 00-.946.095l-3.502 2.649-4.31-9.562c.43.035.865.062 1.306.062 3.05 0 5.885-.869 8.255-2.35l4.303 11.515-5.106-2.409z" fill="#0B7AC9"/></svg>