<svg width="18" height="18" fill="none" xmlns="http://www.w3.org/2000/svg"><path d="M8.915 17.041a.344.344 0 01-.212-.073C8.373 16.713.617 10.636.617 5.113A4.673 4.673 0 015.285.445c1.424 0 2.747.642 3.63 1.739a4.646 4.646 0 013.63-1.739 4.673 4.673 0 014.668 4.668c0 5.523-7.756 11.6-8.086 11.855a.344.344 0 01-.212.073zM5.285 1.137a3.981 3.981 0 00-3.976 3.976c0 4.697 6.354 10.118 7.606 11.14 1.252-1.022 7.606-6.442 7.606-11.14a3.981 3.981 0 00-3.976-3.976 3.963 3.963 0 00-3.34 1.824c-.127.197-.453.197-.58 0a3.963 3.963 0 00-3.34-1.824z" fill="#000"/></svg>