<svg width="18" height="27" fill="none" xmlns="http://www.w3.org/2000/svg"><path d="M9 27a.513.513 0 01-.346-.137C8.3 26.539 0 18.808 0 9.563 0 4.29 4.037 0 9 0s9 4.29 9 9.563c0 9.245-8.3 16.976-8.654 17.3A.513.513 0 019 27zM9 1.125c-4.38 0-7.941 3.785-7.941 8.438 0 7.697 6.37 14.541 7.941 16.112 1.57-1.572 7.941-8.424 7.941-16.113 0-4.652-3.562-8.437-7.941-8.437z" fill="#fff"/><path d="M9 15.75c-3.21 0-5.824-2.775-5.824-6.188C3.176 6.15 5.79 3.375 9 3.375s5.823 2.775 5.823 6.188c0 3.412-2.613 6.187-5.823 6.187zM9 4.5c-2.627 0-4.765 2.271-4.765 5.063 0 2.79 2.138 5.062 4.765 5.062s4.765-2.271 4.765-5.063C13.765 6.772 11.627 4.5 9 4.5z" fill="#fff"/><path d="M7.941 12.375a.516.516 0 01-.375-.164L5.45 9.96a.588.588 0 010-.796.508.508 0 01.748 0l1.744 1.852 3.86-4.102a.508.508 0 01.75 0 .588.588 0 010 .796l-4.236 4.5a.512.512 0 01-.374.164z" fill="#fff"/></svg>