<svg width="19" height="19" fill="none" xmlns="http://www.w3.org/2000/svg"><path d="M7.78 5.247h0l-.002-.008a9.23 9.23 0 01-.462-2.897A1.844 1.844 0 005.474.5H2.342A1.844 1.844 0 00.5 2.342C.5 11.252 7.748 18.5 16.658 18.5a1.844 1.844 0 001.842-1.842v-3.123a1.844 1.844 0 00-1.842-1.842 9.204 9.204 0 01-2.89-.46 1.84 1.84 0 00-1.81.362 3.205 3.205 0 01-.177.145c-.921.695-2.123.784-2.949.144a9.537 9.537 0 01-1.606-1.574c-.716-.89-.623-2.205.126-3.22.47-.49.633-1.19.429-1.843z" stroke="#fff"/></svg>