<svg width="24" height="24" fill="none" xmlns="http://www.w3.org/2000/svg"><path d="M21.5 20h-19A2.503 2.503 0 010 17.5v-11C0 5.122 1.122 4 2.5 4h19C22.878 4 24 5.122 24 6.5v11c0 1.378-1.122 2.5-2.5 2.5zM2.5 5C1.673 5 1 5.673 1 6.5v11c0 .827.673 1.5 1.5 1.5h19c.827 0 1.5-.673 1.5-1.5v-11c0-.827-.673-1.5-1.5-1.5h-19z" fill="#fff"/><path d="M12 13.017c-.55 0-1.101-.164-1.581-.493L2.218 6.913a.5.5 0 01.564-.825l8.2 5.611a1.79 1.79 0 002.034 0l8.2-5.611a.5.5 0 01.566.825l-8.201 5.611a2.792 2.792 0 01-1.581.493zM2.501 18a.5.5 0 01-.321-.885l6-5a.5.5 0 01.641.769l-6 5a.497.497 0 01-.32.116zM21.5 18a.499.499 0 01-.32-.116l-6-5a.5.5 0 01.641-.769l6 5A.5.5 0 0121.5 18z" fill="#fff"/></svg>