<svg width="16" height="16" fill="none" xmlns="http://www.w3.org/2000/svg"><path d="M12.7 15.294H3.3a2.366 2.366 0 01-2.36-2.36V3.536a2.366 2.366 0 012.36-2.36h9.4a2.366 2.366 0 012.36 2.36v9.398a2.358 2.358 0 01-2.36 2.36z" stroke="#0B7AC9"/><path d="M5.44 10.801a3.6 3.6 0 002.563 1.061 3.61 3.61 0 002.562-1.061 3.6 3.6 0 001.061-2.563 3.6 3.6 0 00-1.06-2.562 3.6 3.6 0 00-2.563-1.061 3.6 3.6 0 00-2.563 1.06 3.6 3.6 0 00-1.061 2.563 3.6 3.6 0 001.06 2.563zm6.892-6.305a.696.696 0 100-1.392.696.696 0 000 1.392z" stroke="#0B7AC9"/></svg>