<svg width="15" height="19" fill="none" xmlns="http://www.w3.org/2000/svg"><path clip-rule="evenodd" d="M6.784 12.257c.522.016.993.706 2.372.706 2.59.017 4.373-1.968 4.928-4.575C16.018-.644 2.85-1.367 1.504 6.068c-.32 1.748.201 3.767 1.563 4.423 1.043.504 1.11-.942.79-1.565-1.412-2.758.287-5.247 2.507-5.954C8.45 2.3 9.93 2.855 11.057 4.015c1.446 1.497.79 5.567-.925 6.862-.606.454-1.716.555-2.288.017-1.177-1.093.64-3.414.37-5.113-.269-1.682-2.926-1.43-3.061 1.043-.067 1.261.303 1.631.017 2.893-.454 2.018-1.833 6.139-.858 7.754 1.43-.673 2.136-4.71 2.472-5.214z" stroke="#0B7AC9"/></svg>