<svg width="25" height="26" fill="none" xmlns="http://www.w3.org/2000/svg"><mask id="mask0_327_2688" style="mask-type:luminance" maskUnits="userSpaceOnUse" x="0" y="0" width="25" height="26"><path d="M21.25.5H3.75A3.75 3.75 0 000 4.25v17.5a3.75 3.75 0 003.75 3.75h17.5A3.75 3.75 0 0025 21.75V4.25A3.75 3.75 0 0021.25.5z" fill="#fff"/></mask><g mask="url(#mask0_327_2688)"><path d="M.002 25.5V.5h25l-25 25z" fill="#35A85B"/><path d="M12.502 14.563L1.565 25.5H23.44L12.502 14.562z" fill="#5881CA"/><path d="M14.065 13L25.002 2.062v21.875L14.065 13z" fill="#C1C0BE"/><path d="M.002 25.5l25-25-25 25z" fill="#000"/><path fill-rule="evenodd" clip-rule="evenodd" d="M26.228 1.726l-25 25-2.451-2.452 25-25 2.451 2.452z" fill="#FADB2A"/><path fill-rule="evenodd" clip-rule="evenodd" d="M8.725 6.74a1.767 1.767 0 00-1.212.331 2.09 2.09 0 00-.776 1.12c-.135.467-.118.97.048 1.424.165.454.467.823.845 1.053.376.23.81.31 1.229.235.42-.076.811-.307 1.105-.665.178-.218.313-.475.396-.753H8.548V8.41h3.001l-.022.56a3.291 3.291 0 01-.732 1.949A2.936 2.936 0 019.05 11.96a2.824 2.824 0 01-1.98-.375 3.123 3.123 0 01-1.294-1.6 3.372 3.372 0 01-.07-2.093 3.157 3.157 0 011.18-1.693 2.84 2.84 0 011.948-.527c.69.07 1.329.393 1.813.904l-.78.739a1.83 1.83 0 00-1.142-.575z" fill="#F2F2F2"/><path d="M17.239 4.65a3.418 3.418 0 116.836 0c0 3.418-3.418 3.418-3.418 7.666 0-4.248-3.418-4.248-3.418-7.666z" fill="#DE3738"/><path d="M20.657 6.066a1.22 1.22 0 100-2.441 1.22 1.22 0 000 2.441z" fill="#7D2426"/></g></svg>