<svg width="31" height="30" fill="none" xmlns="http://www.w3.org/2000/svg"><path d="M28.68 5.345H1.51c-.856 0-1.51.654-1.51 1.51v15.094c0 .856.654 1.51 1.51 1.51h2.515v-1.007H1.51c-.302 0-.504-.2-.504-.503V6.854c0-.302.202-.503.504-.503h5.03v1.51h1.007V6.35H28.68c.302 0 .503.201.503.503V21.95c0 .302-.201.503-.503.503H10.063v1.007h18.618c.855 0 1.51-.654 1.51-1.51V6.854c0-.855-.655-1.51-1.51-1.51z" fill="#0B7AC9"/><path d="M7.547 9.37H6.541v2.013h1.006V9.37zm0 3.522H6.541v2.013h1.006v-2.013zm0 3.522H6.541v2.013h1.006v-2.013zm-2.012-8.05H2.013V9.37h3.522V8.364zM4.529 9.873H2.013v1.007h2.516V9.873zM21.21 8.596l-6.045 11.088.884.482 6.044-11.089-.883-.481zm-5.864.271a2.255 2.255 0 00-2.264 2.264 2.255 2.255 0 002.264 2.264 2.255 2.255 0 002.265-2.264 2.255 2.255 0 00-2.265-2.264zm0 3.522a1.246 1.246 0 01-1.258-1.258c0-.704.554-1.258 1.258-1.258.705 0 1.258.554 1.258 1.258s-.553 1.258-1.258 1.258zm3.774 5.786a2.255 2.255 0 002.264 2.265 2.255 2.255 0 002.265-2.265 2.255 2.255 0 00-2.265-2.264 2.255 2.255 0 00-2.264 2.264zm2.264-1.257c.705 0 1.258.553 1.258 1.258 0 .704-.553 1.258-1.258 1.258a1.246 1.246 0 01-1.258-1.259c0-.704.554-1.257 1.258-1.257zM27.221.967c.252-.05.554.151.554.453l.352 3.019 1.006-.1-.352-3.02c-.1-.805-.855-1.409-1.71-1.308L1.96 3.331l.152 1.007L27.22.967z" fill="#0B7AC9"/><path d="M10.566 24.465h-.503v1.006h.503c.855 0 1.51.655 1.51 1.51v.503c0 .856-.655 1.51-1.51 1.51s-1.51-.654-1.51-1.51v-3.17L7.649 21.85l3.874-6.693-.855-.503-3.623 6.19-3.573-6.19-.855.503L6.49 21.85l-1.459 2.465v3.17c0 .856-.654 1.51-1.51 1.51a1.482 1.482 0 01-1.509-1.51v-.503c0-.855.654-1.51 1.51-1.51h.503v-1.006h-.503a2.491 2.491 0 00-2.516 2.516v.503A2.491 2.491 0 003.522 30a2.491 2.491 0 002.516-2.516v-2.868l1.006-1.761 1.006 1.761v2.868A2.491 2.491 0 0010.566 30a2.491 2.491 0 002.516-2.516v-.503a2.491 2.491 0 00-2.516-2.516z" fill="#0B7AC9"/></svg>