<svg width="26" height="30" fill="none" xmlns="http://www.w3.org/2000/svg"><path fill-rule="evenodd" clip-rule="evenodd" d="M12.981 30a.363.363 0 01-.115-.02C-1.865 24.854-.05 7.527.203 5.57c.026-.192.134-.335.33-.35C9.377 4.566 12.665.189 12.697.145a.351.351 0 01.569.002c.031.044 3.32 4.422 12.166 5.076.195.014.303.154.327.347.256 1.958 2.07 19.285-12.664 24.412a.362.362 0 01-.115.019zM.871 5.898C.555 8.662-.627 24.446 12.982 29.275c13.611-4.83 12.43-20.613 12.112-23.377C17.466 5.261 13.95 1.99 12.981.903c-.97 1.086-4.485 4.358-12.11 4.995z" fill="#0B7AC9"/><path fill-rule="evenodd" clip-rule="evenodd" d="M10.835 18.581a.35.35 0 01-.249-.102L8.418 16.31c-.326-.326.168-.826.498-.498l1.92 1.919 6.213-6.213c.326-.326.826.167.498.498l-6.465 6.462a.35.35 0 01-.247.102z" fill="#0B7AC9"/><path fill-rule="evenodd" clip-rule="evenodd" d="M12.98 27.016a.363.363 0 01-.114-.02C1.04 22.969 2.576 8.937 2.736 7.457a.36.36 0 01.325-.315c7.005-.518 9.61-3.977 9.634-4.014a.351.351 0 01.567 0c.024.034 2.631 3.494 9.633 4.011.196.014.3.152.328.342.202 1.565 1.65 15.413-10.132 19.514a.268.268 0 01-.11.022zM3.404 7.82c-.261 2.344-1.094 14.668 9.578 18.472 10.669-3.804 9.839-16.13 9.58-18.472-5.92-.51-8.73-3.012-9.58-3.938-.85.926-3.66 3.428-9.578 3.938z" fill="#0B7AC9"/><path fill-rule="evenodd" clip-rule="evenodd" d="M12.982 24.197c-.393 0-.488-.554-.115-.684 3.78-1.316 6.147-4.153 7.036-8.438.093-.452.782-.311.689.142-.647 3.123-2.474 7.212-7.493 8.958a.332.332 0 01-.117.022z" fill="#0B7AC9"/></svg>