<svg width="30" height="30" fill="none" xmlns="http://www.w3.org/2000/svg"><path d="M26.117 17.405V7.76a.516.516 0 00-.259-.45L13.319.07a.517.517 0 00-.518 0L.259 7.31A.517.517 0 000 7.76v14.48a.517.517 0 00.259.45L12.8 29.93a.517.517 0 00.517 0l4.712-2.72a6.588 6.588 0 1010.46-8.001 6.588 6.588 0 00-2.372-1.825v.02zM13.06 1.114L24.566 7.76l-5.772 3.33L8.109 3.974l4.95-2.86zm0 13.291L1.552 7.76l5.56-3.212 10.679 7.121-4.732 2.736zM1.034 8.655L12.541 15.3v13.286L1.034 21.94V8.654zm12.542 19.931V15.3l4.654-2.705v4.029a.517.517 0 001.035 0V12l5.792-3.346v8.384a6.432 6.432 0 00-1.68-.228 6.585 6.585 0 00-5.881 9.51l-3.92 2.266zm9.826.378a5.56 5.56 0 110-11.12 5.56 5.56 0 010 11.12z" fill="#0B7AC9"/><path d="M25.858 20.72l-3.206 4.23-1.68-1.975a.521.521 0 00-.803.667l2.07 2.472a.517.517 0 00.392.181.518.518 0 00.398-.207l3.595-4.742a.519.519 0 00-.414-.932.519.519 0 00-.352.306z" fill="#0B7AC9"/></svg>