<svg width="40" height="31" fill="none" xmlns="http://www.w3.org/2000/svg"><path d="M26.124 21.53l-.1-.057a2.89 2.89 0 00-1.256-.38m1.356.438l-3.84 4.2a2.888 2.888 0 01-.539-1.196h0a2.888 2.888 0 01.044-1.31h0a2.89 2.89 0 011.686-1.92h0a2.89 2.89 0 011.293-.213m1.356.439l.1-.059m-.1.059l.1-.059m-1.456-.38l.014-.2-.014.2zm1.456.38a2.892 2.892 0 011.431-.393c.766 0 1.5.305 2.043.847h0a2.89 2.89 0 01-2.043 4.932 2.824 2.824 0 01-1.43-.398l-.102-.062-.103.062a2.822 2.822 0 01-2.724.104h0m2.928-5.092l-2.928 5.092m0 0a2.888 2.888 0 01-1.012-.834l1.012.834zm1.885-4.08l-.113.22a2.787 2.787 0 000 2.53l.11.216-.233.066a1.44 1.44 0 01-.37.055h-.001a1.604 1.604 0 01-.62-.118m1.227-2.97l-1.735.355c-.251.25-.411.576-.456.924h-.033l-.001.199c-.001.213.04.423.121.62h0a1.602 1.602 0 00.877.872m1.227-2.97l-.24-.063m.24.063l-.24-.063m-.987 3.033l.075-.185-.075.185s0 0 0 0zm.987-3.033a1.447 1.447 0 00-.37-.047m.37.047l-.37-.047m3.09 3.191h0a1.59 1.59 0 01-.9-.246l.9.246zm0 0a1.596 1.596 0 001.098-.483h0c.289-.298.45-.697.45-1.112v0m-1.549 1.595l1.55-1.595m-1.925-1.561h0a1.597 1.597 0 011.652.67l-1.652-.67zm0 0a1.596 1.596 0 00-1.132 2.204m1.132-2.204l-1.132 2.204m3.056-.643c0-.318-.095-.628-.272-.891l.272.89zm-4.637-1.596c-.422 0-.827.167-1.126.465l1.126-.465zm1.581 2.24c.128.29.34.536.608.705l-.608-.706z" fill="#0B7AC9" stroke="#fff" stroke-width=".4"/><path d="M36.76.351H7.858A3.265 3.265 0 004.619 3.61v.955h-.677A3.564 3.564 0 00.385 8.122v18.672a3.564 3.564 0 003.557 3.557h28.306a3.564 3.564 0 003.537-3.557v-.678h.955a3.266 3.266 0 003.259-3.258V3.61A3.266 3.266 0 0036.76.35zM3.942 6.259h28.306a1.87 1.87 0 011.863 1.863v.596H2.08v-.596a1.863 1.863 0 011.863-1.863zm-1.863 4.153H34.11v1.551H2.08v-1.551zm30.169 18.245H3.942a1.863 1.863 0 01-1.863-1.863V13.637H34.11v13.157a1.863 1.863 0 01-1.863 1.863zm6.098-5.779a1.565 1.565 0 01-1.566 1.565h-.995V8.122a3.564 3.564 0 00-3.557-3.557H6.293V3.61a1.572 1.572 0 011.565-1.565H36.76a1.565 1.565 0 011.565 1.565l.02 19.268z" fill="#0B7AC9"/><path d="M36.76.351H7.858A3.265 3.265 0 004.619 3.61v.955h-.677A3.564 3.564 0 00.385 8.122v18.672a3.564 3.564 0 003.557 3.557h28.306a3.564 3.564 0 003.537-3.557v-.678h.955a3.266 3.266 0 003.259-3.258V3.61A3.266 3.266 0 0036.76.35zM3.942 6.259h28.306a1.87 1.87 0 011.863 1.863v.596H2.08v-.596a1.863 1.863 0 011.863-1.863zm-1.863 4.153H34.11v1.551H2.08v-1.551zm30.169 18.245H3.942a1.863 1.863 0 01-1.863-1.863V13.637H34.11v13.157a1.863 1.863 0 01-1.863 1.863zm6.098-5.779a1.565 1.565 0 01-1.566 1.565h-.995V8.122a3.564 3.564 0 00-3.557-3.557H6.293V3.61a1.572 1.572 0 011.565-1.565H36.76a1.565 1.565 0 011.565 1.565l.02 19.268z" stroke="#fff"/></svg>