<svg width="24" height="22" fill="none" xmlns="http://www.w3.org/2000/svg"><path fill-rule="evenodd" clip-rule="evenodd" d="M11.566 0c.864 0 1.565.7 1.565 1.564V6.79a1.564 1.564 0 01-3.129 0V1.564c0-.864.7-1.564 1.564-1.564zM22.65 8.052a1.564 1.564 0 01-1.005 1.971l-4.969 1.615a1.564 1.564 0 01-.966-2.976l4.968-1.614a1.564 1.564 0 011.971 1.004zM18.416 21.08a1.564 1.564 0 01-2.185-.345l-3.07-4.227a1.564 1.564 0 112.53-1.84l3.071 4.228a1.564 1.564 0 01-.346 2.185zm-13.699 0a1.564 1.564 0 01-.346-2.185l3.07-4.226a1.564 1.564 0 012.532 1.839l-3.071 4.226a1.564 1.564 0 01-2.185.346zM.483 8.052a1.564 1.564 0 011.972-1.004l4.968 1.614a1.564 1.564 0 01-.966 2.976l-4.97-1.615A1.564 1.564 0 01.484 8.052z" fill="#00A0FF"/></svg>