<svg width="22" height="22" fill="none" xmlns="http://www.w3.org/2000/svg"><path d="M19.882 5.15a10.93 10.93 0 00-2.918-3.118c-1.159-.8-2.438-1.399-3.917-1.719-2.398-.6-4.716-.32-6.955.68-1.239.56-2.358 1.319-3.277 2.318C1.615 4.551.776 5.91.257 7.468v.04c0 .04-.04.12-.04.16-.52 1.799-.04 2.758.759 1.959.04-.04.08-.08.08-.12l.04-.04c.92-1.16 2.398-2.119 2.398-2.119.36-.24.76-.52 1.16-.72a8.9 8.9 0 011.398-.679s.4-.2.52-.76v-.04c.08-.479.6-1.798 2.038-1.878.44-.08.92 0 1.32.2.719.32 1.239 1 1.359 1.799.08.64-.08 1.239-.4 1.718 0 .04-.04.04-.04.08v.04c-.28.36-.64.64-1.12.8-.28.08-.559.16-.799.16-.16.04-.36 0-.52-.04-.2-.04-.4-.12-.559-.2-.28-.12-.52-.28-.6-.36-.08-.08-.12-.08-.2-.12-.16-.04-.28 0-.36.04-.04.04-.08.04-.119.08-.36.28-.68.6-1 .92-.839.879-1.518 1.878-1.838 2.358l-.48.84c-.16.279-.28.559-.4.838-.32.36-.519.84-.679 1.32 0 .04 0 .04-.04.08 0 .04-.04.08-.04.08 0 .04 0 .08-.04.08-1 3.437.8 5.435 2.319 3.357.08-.12.16-.28.24-.4 1.598-2.758 4.836-4.756 4.836-4.756l.6-.36.04-.04c.559-.32 1.119-.6 1.718-.84a9.24 9.24 0 011.559-.56s.56-.159.68-.798c.12-.48.44-1.2 1.239-1.56.2-.08.36-.16.56-.2.2-.04.439-.08.639-.04.12 0 .24 0 .36.04.999.2 1.798 1 1.918 2.08a2.353 2.353 0 01-2.078 2.637 2.34 2.34 0 01-1.72-.44c-.559-.24-.998-.08-1.158 0-.48.28-.96.56-1.4.88a19.33 19.33 0 00-1.758 1.519c-.56.6-1.08 1.24-1.519 1.919-.04.04-.04.08-.08.12v.04c-.44.719-.96 1.678-1.359 2.797-.04.08-.08.16-.08.28-.44 1.44.52 2.039 1.56 2.239 0 0 .838.16 2.038.08h.2c.32-.04.599-.08.919-.12a11.103 11.103 0 005.516-2.638c1.998-1.8 3.197-3.997 3.557-6.636.44-2.718-.08-5.196-1.519-7.434z" fill="#FFC40C"/></svg>