<svg width="32" height="32" fill="none" xmlns="http://www.w3.org/2000/svg"><path d="M18.568 22.319l4.781-7.688a.43.43 0 00.04-.078 8.513 8.513 0 001.26-4.454c0-4.71-3.832-8.543-8.542-8.543S7.564 5.388 7.564 10.1a8.51 8.51 0 001.263 4.456c.01.024.02.047.034.07l4.61 7.713c-3.579.506-5.932 1.977-5.932 3.762 0 2.211 3.758 3.943 8.555 3.943s8.555-1.732 8.555-3.943c0-1.793-2.462-3.297-6.08-3.781zm-8.883-8.195A7.56 7.56 0 018.521 10.1c0-4.183 3.403-7.586 7.586-7.586s7.586 3.403 7.586 7.586a7.56 7.56 0 01-1.165 4.025.463.463 0 00-.039.08l-5.051 8.12c-.076.117-.09.143-.184.296l-1.275 2.05-6.25-10.46a.479.479 0 00-.044-.086zm6.41 14.962c-4.478 0-7.599-1.574-7.599-2.986 0-1.282 2.35-2.49 5.511-2.864l1.553 2.6c.086.142.24.23.406.232h.005a.479.479 0 00.406-.226l1.632-2.625c3.212.348 5.684 1.587 5.684 2.883 0 1.412-3.12 2.986-7.599 2.986z" fill="#81939F"/><path d="M19.2 10.099a3.11 3.11 0 00-3.105-3.106 3.11 3.11 0 00-3.107 3.106 3.11 3.11 0 003.107 3.106 3.11 3.11 0 003.106-3.106zm-5.255 0c0-1.185.964-2.15 2.15-2.15 1.185 0 2.149.965 2.149 2.15s-.964 2.15-2.15 2.15a2.152 2.152 0 01-2.15-2.15z" fill="#81939F"/></svg>