<svg width="220" height="34" fill="none" xmlns="http://www.w3.org/2000/svg"><path d="M40.43 33.113H0V.058h8.049v25.006H40.43v8.05zM84.87.179H44.444v8.048H84.87V.18zm0 12.443H44.444v8.048H84.87v-8.048zm0 12.442H44.444v8.049H84.87v-8.049zm75.622 8.043h-12.444a14.406 14.406 0 01-14.405-14.387V.058h8.048V18.72a6.345 6.345 0 006.345 6.345h12.456a6.349 6.349 0 006.345-6.346V.058h8.042V18.72a14.403 14.403 0 01-14.387 14.387zM203.355 3.99a7.926 7.926 0 00-13.761 0l-16.621 29.082h9.27l14.232-24.904 9.632 16.855h-9.741l-4.659 8.05h28.294L203.355 3.99zM89.148 25.065h27.867a6.342 6.342 0 006.345-6.345v-4.148a6.355 6.355 0 00-6.345-6.345H89.148V.18h27.867a14.41 14.41 0 0114.394 14.393v4.148a14.405 14.405 0 01-14.394 14.388H89.148v-8.043z" fill="#fff"/><path d="M98.058 20.69h-8.91v-8.085h8.91a4.045 4.045 0 010 8.085z" fill="#FD0"/></svg>