<svg width="20" height="20" fill="none" xmlns="http://www.w3.org/2000/svg"><g clip-path="url(#clip0_303_466)" fill="#0B7AC9"><path d="M4 0H1a1 1 0 00-1 1v3a1 1 0 001 1h3a1 1 0 001-1V1a1 1 0 00-1-1zm0 7.5H1a1 1 0 00-1 1v3a1 1 0 001 1h3a1 1 0 001-1v-3a1 1 0 00-1-1zM4 15H1a1 1 0 00-1 1v3a1 1 0 001 1h3a1 1 0 001-1v-3a1 1 0 00-1-1zm7.5-15h-3a1 1 0 00-1 1v3a1 1 0 001 1h3a1 1 0 001-1V1a1 1 0 00-1-1zm0 7.5h-3a1 1 0 00-1 1v3a1 1 0 001 1h3a1 1 0 001-1v-3a1 1 0 00-1-1zm0 7.5h-3a1 1 0 00-1 1v3a1 1 0 001 1h3a1 1 0 001-1v-3a1 1 0 00-1-1zM19 0h-3a1 1 0 00-1 1v3a1 1 0 001 1h3a1 1 0 001-1V1a1 1 0 00-1-1zm0 7.5h-3a1 1 0 00-1 1v3a1 1 0 001 1h3a1 1 0 001-1v-3a1 1 0 00-1-1zm0 7.5h-3a1 1 0 00-1 1v3a1 1 0 001 1h3a1 1 0 001-1v-3a1 1 0 00-1-1z"/></g><defs><clipPath id="clip0_303_466"><path fill="#fff" d="M0 0h20v20H0z"/></clipPath></defs></svg>