<svg width="206" height="177" fill="none" xmlns="http://www.w3.org/2000/svg"><path d="M94.274 172.737a15.29 15.29 0 001.324-6.323l.593-.446.024-.17-.168-.025-.497.374-.049-.025c-2.705-.542-5.653-.98-8.956-.586a15.665 15.665 0 012.237-1.461l.012-.004c3.778.489 7.747 1.469 12.408 3.071-1.902 2.324-4.285 4.217-6.928 5.595zm-13.104 2.445a84.987 84.987 0 009.562-5.356c-.498 1.838-1.33 3.508-2.531 5.074a21.36 21.36 0 01-7.031.282zm1.33-5.066c2.317-.486 4.892-.641 8.05-.461a84.795 84.795 0 01-9.81 5.465l-.18-.025a16.451 16.451 0 011.94-4.979zm-10.002.544c1.48-1.208 2.734-2.863 3.55-4.716a96.596 96.596 0 0010.607-2.51l.663.273a17.394 17.394 0 00-4.32 3.935c-3.149 1.59-6.444 2.551-10.5 3.018zm-4.504.32c-1.83.063-3.952-.062-6.15-.392 1.643-.995 2.914-2.33 3.736-3.35a99.405 99.405 0 0010.184-1.241c-.86 1.878-2.177 3.542-3.717 4.716a59.214 59.214 0 01-4.053.267zm-10.487-8.632a30.703 30.703 0 01-4.998.299c1.728-1.431 3.706-3.177 4.418-5.279a172.81 172.81 0 006.11-.202l.076.261c.224.878.468 1.757.747 2.606a38.537 38.537 0 00-6.302 2.305l-.05.01zm-16.83-11.385c2.22-.82 4.4-1.853 5.864-3.717l.024-.077.707.204.025.601c.024.601.062 1.185.106 1.742a38.37 38.37 0 00-6.247 1.359l-.48-.112zm-22.415-13.771a255.942 255.942 0 0012.611 4.91 50.552 50.552 0 01-5.77 1.511 42.42 42.42 0 01-6.84-6.421zm1.206-6.018a42.617 42.617 0 0011.301-5.254l.008-.01c.606.51 1.195 1.024 1.771 1.543.093 1.602.273 3.202.546 4.794a16.06 16.06 0 01-4.667 2.572 48.12 48.12 0 00-3.255.015 50.824 50.824 0 01-5.704-3.66zm-7.176-6.405a41.123 41.123 0 0011.495-4.159 88.393 88.393 0 016.793 5.13v.015a42.594 42.594 0 01-11.353 5.241 51.577 51.577 0 01-6.935-6.227zm-9.367-14.897c4.504 1.577 9.186 3.742 13.71 6.293-3.645.51-6.857.781-10.292.874A51.781 51.781 0 012.6 109.92l.326-.048zm7.738-4.164l1.104.024c2.24 0 4.468-.271 6.653-.805a76.952 76.952 0 00-.639 4.771 27.272 27.272 0 00-4.001-.806 24.999 24.999 0 01-3.117-3.184zM2.83 85.634c3.227 1.456 6.425 2.237 10.186 2.95h.023a110.592 110.592 0 014.737 8.973c-4.902.897-8.936.392-12.005-.248a40.956 40.956 0 01-1.679-5.11 56.202 56.202 0 01-1.262-6.565zM1.938 73.45c3.994 4.356 7.65 9.326 10.938 14.863-3.717-.713-6.885-1.5-10.085-2.961-.497-3.799-.702-7.73-.853-11.902zm8.598 3.226l.042.034.994.601.527.316.419.268c.744 3.531.89 6.773.46 10.117C9.655 82.445 5.96 77.447 1.923 73.07v-.014a37.508 37.508 0 018.613 3.62zm-.294-5.12c2.38 1.695 4.305 2.728 6.152 3.31.012.724.017 1.446.02 2.168l-.092.51-.05.286c-.08.467-.154.933-.217 1.403a27.148 27.148 0 00-3.427-2.411 38.546 38.546 0 00-1.383-.85 51.207 51.207 0 01-1.003-4.416zm-.818-9.263c2.24 2.65 4.473 4.426 6.652 5.284l.029.137.017.01c.14 2.295.229 4.588.267 6.884-1.85-.591-3.788-1.65-6.207-3.385a51 51 0 01-.758-8.93zm3.488-18.154a158.369 158.369 0 012.302 13.7c-1.836-1.17-3.647-2.927-4.91-4.747a48.548 48.548 0 012.608-8.953zm5.242 6.8l.05.14.235.432a20.879 20.879 0 01-2.986 6.299 159.306 159.306 0 00-2.283-13.617 35.081 35.081 0 014.984 6.746zm.523-10.875c1.637 2.362 3.464 4.424 5.446 6.143a29.909 29.909 0 00-4.063 6.284c-.31-.64-.64-1.272-.988-1.888a37.27 37.27 0 01-.395-10.539zM31.44 25.497A50.509 50.509 0 0127.36 31c.351-4.063.467-8.15.348-12.234l.104-.121a25.525 25.525 0 013.628 6.852zm2.054-.35c.29-1.942.565-3.775 1.197-5.6.465-1.334 1.15-2.698 2.01-4.013.495 2.819 1.353 5.22 2.862 8.05a42.003 42.003 0 00-5.96 3.954l-.45.345-.06-.246c.154-.836.276-1.664.4-2.49zm5.75-12.826a26.355 26.355 0 012.488-2.28c.23 3.048.582 6.128 1.051 9.17l.061.084a113.392 113.392 0 01-2.742 3.997l-.33.177c-1.538-2.893-2.392-5.329-2.875-8.227a23.439 23.439 0 012.347-2.92zm7.884-5.982c1.874-1.15 3.67-2.257 5.133-3.77a172.165 172.165 0 01-5.253 9.923 43.608 43.608 0 01-.702-5.649l.305-.19.517-.314zm6.957 2.013c1.935-1.388 4.286-2.377 7.106-2.984-1.266 2.144-2.15 4.56-2.625 7.202l.034.106a47.772 47.772 0 00-5.456 3.508l.246-3.954c.118-.506.225-1.01.316-1.515a33.56 33.56 0 00.38-2.363zm12.833-3.674c.85-.037 1.71-.053 2.567-.053a31.948 31.948 0 00-2.887 4.295l-.004.01-.004.004c-2.637 1.054-5.261 2.242-7.778 3.626.487-2.669 1.395-5.105 2.699-7.26 1.644-.33 3.44-.538 5.407-.622zM79.42 4.61C75.5 5.8 71.213 7.12 66.948 8.794a31.437 31.437 0 012.848-4.169c1.03 0 2.062.016 3.073.034 2.153.038 4.362.072 6.552-.049zm-5.372 5.901c-1.294-.203-4.852-.806-6.943-1.518 4.253-1.67 8.53-2.98 12.436-4.163-1.796 1.97-3.564 3.87-5.493 5.681zm-2.084 1.863c-1.758 1.49-3.368 2.675-4.939 3.63l-1.044-.392c-2.355-.883-4.587-1.723-6.89-2.936 2.485-1.35 5.07-2.52 7.67-3.547 1.975.728 5.567 1.348 7.062 1.59-.6.563-1.218 1.113-1.859 1.655zM60.342 26.481c-3.4-.014-6.905-.01-10.319-.029a142.744 142.744 0 0112.52-7.026l.133.005c-.131 2.411-.927 4.81-2.334 7.05zm-1.588 2.17c-2.1 2.474-4.596 4.163-7.238 5.948l-.814.554a31.009 31.009 0 00-6.035.096 30.87 30.87 0 00-1.884.243c-1.599-.16-3.023-.47-4.327-.936a142.928 142.928 0 015.032-3.736l.044-.035.011-.005.02.005c3.732.777 7.34 1.107 11.02 1.398h.008l.12-.112-.11-.126c-3.602-.291-7.141-.612-10.792-1.353 1.913-1.35 3.86-2.65 5.835-3.903 3.473.015 7.054.012 10.542.03-.426.66-.902 1.301-1.432 1.932zM43.65 38.98l-.212.424c.048 1.057.08 1.969.11 2.871l.025.675a26.918 26.918 0 01-7.084.398 47.43 47.43 0 016.538-4.168l.05-.165-.164-.05a47.965 47.965 0 00-6.702 4.29 18.748 18.748 0 013.354-6.013 31.991 31.991 0 013.86-.868c1.614-.233 3.37-.34 5.343-.314a40.941 40.941 0 00-5.118 2.92zm-2 10.832c-3.89.199-7.587-.127-11.26-.986a49.138 49.138 0 015.808-5.26c.776.068 1.547.102 2.32.102a27.05 27.05 0 005.064-.481c.025.661.051 1.346.084 2.102a18.756 18.756 0 01-2.017 4.523zm-6.848 6.856a41.07 41.07 0 00-1.048-3.587l-.269-.29-.392.01c-1.565.732-3.066 1.68-4.486 2.794a21.65 21.65 0 01-3.227-.48 49.058 49.058 0 014.818-6.084 39.754 39.754 0 009.265 1.076c.67 0 1.347-.019 2.03-.049-1.634 2.572-3.91 4.83-6.691 6.61zm-1.42 22.001l-.003-.004-.024-.03-.038-.038-.046-.034-.02-.015-.069-.034h-.002l-.049-.02-.343.025-.029.014a15.55 15.55 0 00-2.203 1.533 25.865 25.865 0 00-2.997 2.747 16.509 16.509 0 01-4.214 1.122 55.072 55.072 0 011.33-7.275 30.693 30.693 0 009.877-3.26 42.346 42.346 0 01-1.17 5.27zm4.624 25.569a40.73 40.73 0 00-2.747 5.749 22.37 22.37 0 01-6.537 2.703c.3-3.058.62-6.119.963-9.18a46.802 46.802 0 008.832-4.693c.18 1.222.334 2.451.451 3.683a55.875 55.875 0 00-.962 1.738zm5.792 13.522c.65 4.722 1.556 9.662 3.547 14.418-1.32.883-3.693 1.863-5.292 2.009a266.61 266.61 0 001.02-8.113l1.794-.569.081-.149-.151-.083-1.696.54c.2-1.845.385-3.685.544-5.518l-.112-.127h-.008l-.12.108a263.409 263.409 0 01-.543 5.512c-3.903-3.048-5.762-6.271-7.726-9.68l-.397-.685a42.577 42.577 0 013.288-9.017 46.905 46.905 0 005.169 11.049l.102.054.065-.019.035-.169a46.582 46.582 0 01-5.216-11.22 38.799 38.799 0 014.598-7.042c.025 6.271.158 12.439 1.018 18.701zm4.284 22.4c-1.946-1.251-4.18-2.265-6.459-3.056.136-.889.267-1.782.394-2.669 1.622-.13 4.051-1.126 5.423-2.028a34.597 34.597 0 002.02 4.013 40.122 40.122 0 00-1.378 3.74zm6.02 1.554c2.898 2.479 5.897 5.04 7.548 8.384h.002l.07.152-.002.087.036.28a36.168 36.168 0 00-3.994-.824l.544-.209c.777-.295 1.55-.587 2.326-.877l.07-.156-.155-.074c-.775.296-1.552.588-2.325.884l-.95.36a35.577 35.577 0 00-2.614-.258l.178-3.226c.834-.015 2.314-1.141 2.38-1.191l.023-.168-.169-.025c-.426.324-1.6 1.126-2.22 1.145.041-.775.083-1.552.127-2.333l-.112-.127h-.008l-.119.117-.125 2.256c-2.795-1.596-4.299-3.689-5.476-5.746.216-.765.47-1.523.762-2.267 1.31 1.35 2.78 2.603 4.202 3.816zm17.032 15.706l-1.153.948-.948-2.79c.81.499 1.647 1.003 2.513 1.509l-.412.333zm3.456 1.384c-1.5-.043-2.97 0-4.418.125l-.108-.318 1.222-1.001.483-.398a135.35 135.35 0 002.821 1.592zm1.495 6.89l-.007-.009a23.884 23.884 0 00-9.102-5.241c4.295-.762 8.75-.728 13.615.043.494.262 3.24 1.723 5.714 2.796a96.355 96.355 0 01-10.22 2.411zm-10.568 1.31c-2.462-1.425-5.472-2.595-8.418-3.289.475-.233.953-.456 1.428-.665l.853-.364a36.31 36.31 0 016.81-2.091c3.57.956 6.84 2.654 9.596 5.152a98.063 98.063 0 01-10.27 1.257zm-8.761-3.124c2.89.651 5.862 1.776 8.323 3.155a96.68 96.68 0 01-13.66-.078 51.386 51.386 0 015.337-3.077zm-10.252-6.905c-1.437-2.121-2.982-3.757-4.705-4.964a40.833 40.833 0 018.803-1.471c3.003 2.392 4.985 4.556 6.04 6.59a173.1 173.1 0 01-10.138-.155zm-5.006-4.883c1.722 1.175 3.27 2.777 4.702 4.868-4.48-.203-8.948-.588-13.384-1.139 2.676-1.589 5.618-2.834 8.682-3.729zm-2.084-7.345c-.678-3.378-1.848-5.853-3.081-7.973 2.39.524 4.95 1.301 7.355 2.305a26.725 26.725 0 012.579 7.753 258.486 258.486 0 01-6.853-2.085zm-5.783-9.87l.08.334a33.821 33.821 0 00-1.476-.169 62.63 62.63 0 00-3.164-.205 16.248 16.248 0 004.071-2.324c.142.791.303 1.581.49 2.364zm-9.752-14.495c-.335-2.607-1.004-5.372-1.993-8.24a41.511 41.511 0 017.706 3.985c.595 3.163.924 6.283.98 9.291a87.615 87.615 0 00-6.693-5.036zm-6.726-4.203c-.904-2.372-2.037-4.426-3.45-6.26a39.26 39.26 0 017.887 2.108c.991 2.837 1.672 5.584 2.02 8.171a99.079 99.079 0 00-6.457-4.019zm.5-34.254a60.099 60.099 0 011.982 2.053c-.004 4.828-.862 10.39-1.696 13.364a109.678 109.678 0 00-4.763-8.996c.472-3.407.354-6.688-.373-10.259a39.274 39.274 0 014.85 3.838zm1.98-28.051l.05.087a34.344 34.344 0 011.818 5.133 32.396 32.396 0 01-5.166 8.172 160.953 160.953 0 00-.838-9.099 21.09 21.09 0 003.1-6.355c.33.62.784 1.493 1.036 2.062zM37.76 25.83a72.462 72.462 0 00.144 8.725l.049.087a138.07 138.07 0 00-4.418 3.605 26.65 26.65 0 00-.154-9.223l-.01-.06.91-.733a46.432 46.432 0 013.479-2.401zm5.362-6.517c2.898-.98 5.545-2.222 8.283-3.886a32.005 32.005 0 01-.595 1.518c-.41.942-.867 1.854-1.377 2.737l-.17.048a42.931 42.931 0 00-8.686 3.315 114.345 114.345 0 002.545-3.732zm-.116-.262c-.47-3.052-.818-6.137-1.046-9.195 1.167-.927 2.517-1.87 4.115-2.868.141 2.42.482 4.426.736 5.749l.026.055a137.789 137.789 0 01-3.831 6.26zM53.028 8.76a27.225 27.225 0 01-.277 1.82 32.776 32.776 0 01-1.22 4.485c-2.72 1.677-5.339 2.93-8.194 3.92a134.802 134.802 0 003.795-6.225c2.188-.917 4.168-2.261 5.896-4zm-.02-7.036c.283 2.194.299 4.436.063 6.648-1.678 1.742-3.607 3.1-5.74 4.043a171.884 171.884 0 005.508-10.486l.17-.205zm-3.441 24.73c.343-1.982.6-3.994.778-5.989a40.674 40.674 0 0111.717-1.067 142.398 142.398 0 00-12.49 7.055h-.005zm3.577-9.967l.032.018 4.42 1.889c-2.453.13-4.835.46-6.82.94.25-.499.486-1.009.712-1.522.54-.457 1.093-.899 1.656-1.325zm-9.57 13.973c.11-2.61.221-5.226.333-7.835a44.484 44.484 0 015.31-1.88l.882-.221a74.423 74.423 0 01-.794 6.026l.008.062a145.73 145.73 0 00-5.74 3.848zm-5.42 4.025l-.014.013a72.457 72.457 0 01-.133-8.822 44.284 44.284 0 015.656-2.946c-.112 2.637-.226 5.272-.336 7.907a147.478 147.478 0 00-5.172 3.848zm-1.303 2.678a30.905 30.905 0 00-3.395 1.543l.015-.087a143.517 143.517 0 014.756-3.888c1.142.423 2.38.724 3.74.908a27.457 27.457 0 00-5.116 1.524zM25.218 54.927a88.076 88.076 0 01-.495-7.91l.487-.588a29.997 29.997 0 015.609-4.997 23.514 23.514 0 00-.874 7.492l.006.025a48.74 48.74 0 00-4.733 5.978zm6.459 8.094c-.947.485-1.897.976-2.855 1.47 1.39-3.343 2.914-6.628 4.418-9.845a40.89 40.89 0 01.777 2.891l.006.01a42.13 42.13 0 01.693 3.906 360.062 360.062 0 01-3.04 1.568zm-5.148 7.459l.161-.467c.612-1.736 1.28-3.465 1.988-5.172a300.136 300.136 0 013.107-1.602c.983-.504 1.964-1.009 2.961-1.528.228 1.854.332 3.72.311 5.596a42.792 42.792 0 01-8.528 3.173zm-3.547 13.5l-.006.003a43.082 43.082 0 01-4.992-9.5 39.514 39.514 0 012.533-6.872 42.842 42.842 0 003.814 8.885l-.036.102.121.103h.002a55.025 55.025 0 00-1.318 7.263l-.118.016zm1.423 2.983l-.45.694-.825-1.12c.042-.778.104-1.562.188-2.355a16.55 16.55 0 003.87-.961 27.237 27.237 0 00-2.783 3.742zm6.448 6.812c.6-4.715 1.25-9.419 1.951-14.094a69.688 69.688 0 013.818 10.305c-1.836 1.661-3.772 2.937-5.77 3.79zm-2.367 18.863a42.831 42.831 0 01-9.03-7.715c.377-2.426.862-4.873 1.531-7.288.226-.772.468-1.54.726-2.296 2.171 3.046 4.647 5.643 7.736 8.122a646.495 646.495 0 00-.963 9.177zm4.747 4.416l-.073.311a44.416 44.416 0 00-2.881-2.024 35.462 35.462 0 00-1.707-1.102l.126-1.296a22.486 22.486 0 006.423-2.591 41.247 41.247 0 00-1.889 6.702zm1.68 18.343l-.144-.03a42.405 42.405 0 01-1.207-8.414c2.834 3.649 5.464 6.031 8.217 7.453-.125.874-.253 1.748-.388 2.621a41.316 41.316 0 00-6.478-1.63zm18.015 13.999c-1.821-.874-3.38-2.252-4.653-4.106a24.21 24.21 0 01.774-4.794c1.192 2.044 2.736 4.106 5.55 5.683l-.179 3.27a37.32 37.32 0 00-1.492-.053zm12.4 10.277l-.46.097-.237-.688a38.114 38.114 0 01-.872-3.116c1.837 1.097 3.629 1.99 6.073 2.703l.097.282a36.644 36.644 0 00-4.6.722zm-41.91-71.05l-.282.607a33.591 33.591 0 00-1.503 3.434c-1.008 2.524-1.747 5.111-2.313 7.697-.4-.906-.81-1.805-1.224-2.688.847-2.868 1.743-8.496 1.779-13.432a45.398 45.398 0 013.543 4.382zm-.24 2.868a33.102 33.102 0 012.788-4.989 51.426 51.426 0 004.614 7.503 656.234 656.234 0 00-1.1 9.171c-3.063-2.474-5.516-5.071-7.672-8.12a56.24 56.24 0 011.37-3.565zm25.227 58.104a24.08 24.08 0 01-.161-2.063l-.008-.373-.001-.161-.002-.427.023-.892c1.157 1.617 2.538 2.858 4.128 3.713a36.848 36.848 0 00-3.979.203zm-20.06-35.492a39.62 39.62 0 00-9.554-4.134c.176-1.558.377-3.145.62-4.741a42.865 42.865 0 009.049 7.677l-.116 1.198zm4.194-34.273a653.727 653.727 0 00-1.916 13.824 51.04 51.04 0 01-4.5-7.38c.332-.475.68-.947 1.052-1.417a32.546 32.546 0 012.942-3.135 22.561 22.561 0 012.422-1.892zm-3.983-15.325a43.613 43.613 0 01-.636-7.046c1.462-1.319 3.154-2.513 5.129-3.391l.083.243c-1.557 3.328-3.138 6.73-4.576 10.194zm-2.27 5.944a38.315 38.315 0 01-2.194-8.744c1.01-1.334 2.193-2.737 3.59-4.026.033 2.392.262 4.794.687 7.146l.03.059a104.684 104.684 0 00-1.934 5.052l-.178.513zm-5.614-3.158a38.908 38.908 0 012.439-4.27l.085-.087.694-.956a38.52 38.52 0 002.213 8.666l-.008.072.072.084a72.118 72.118 0 00-1.654 5.53 42.692 42.692 0 01-3.84-9.039zm3.816-19.979a87.66 87.66 0 00.514 7.867l.015.05a47.298 47.298 0 00-2.44 4.128c-.442-1.742-1.052-3.727-1.931-5.765a31.738 31.738 0 013.842-6.28zm1.77-7.646c2.4-1.626 4.6-3.524 6.558-5.654a31.093 31.093 0 01-.33 4.659l-.102.525a29.952 29.952 0 00-7.16 5.764 110.38 110.38 0 001.034-5.294zm-9.305 40.242c.082-.71.182-1.412.302-2.112.172-.98.382-1.95.627-2.911a43.194 43.194 0 005.163 9.618 50.155 50.155 0 00-.14 1.742 41.47 41.47 0 00-4.57-5.003 72.627 72.627 0 00-1.382-1.334zm14.53 62.084l-4.175-6.143a60.21 60.21 0 014.842.265 34.35 34.35 0 013.864.593c1.247 2.116 2.44 4.58 3.137 7.958a263.93 263.93 0 01-7.648-2.592l-.02-.081zm37.233 13.388l1.021 3.008c-2.425-.724-4.206-1.63-6.055-2.752-.188-.81-.358-1.64-.525-2.498-.102-.529-.199-1.054-.29-1.562l.004-.021.02-.144a87.155 87.155 0 005.825 3.969zm-25.883-29.305a258.015 258.015 0 01-1.018 8.075c-2.72-1.427-5.432-3.916-8.266-7.608l-.01-.258-.01-.438v-.053a42.945 42.945 0 011.13-10.026l.27.467c1.996 3.459 3.885 6.731 7.904 9.841zm-4.354-27.519a46.193 46.193 0 01-8.761 4.678c.345-3.063.71-6.124 1.099-9.182 2.033-.853 4.01-2.13 5.88-3.804a69.61 69.61 0 011.782 8.308zm-3.883-25.447a30.695 30.695 0 01-9.856 3.3 73.29 73.29 0 011.694-5.653 43.079 43.079 0 008.62-3.179 42.648 42.648 0 01-.458 5.532zm-9.336-17.77a23.2 23.2 0 003.07.477c-1.934 1.562-3.707 3.46-5.28 5.608a44.84 44.84 0 00-.386-1.713 47.903 47.903 0 012.575-4.382l.02.01zm10.66-11.86a49.447 49.447 0 00-5.742 5.223 23.25 23.25 0 01.953-7.478 30.04 30.04 0 011.584-1.01l.205-.112.129-.048c1.603-.87 3.143-1.617 4.742-2.223.449-.165.902-.315 1.358-.455a18.944 18.944 0 00-3.238 6.016l.008.088zm22.92-30.662c2.367 1.262 4.646 2.117 7.056 3.02l.868.324a23.528 23.528 0 01-4.883 2.208 44.001 44.001 0 00-3.736 0l-4.784-2.043a48.027 48.027 0 015.479-3.509zm-5.866 3.495l-1.277 1.015a29.709 29.709 0 001.373-3.87l-.168 2.738.072.117zM32.408 29.053a32.37 32.37 0 01.406 4.61 37.121 37.121 0 01-6.501 5.667c.436-2.625.771-5.263 1.01-7.913 1.62-1.894 3.005-3.742 4.217-5.63.36 1.067.65 2.159.868 3.266zm-5.31 2.18a33.361 33.361 0 01-3.95-5.791 37.59 37.59 0 014.326-6.4c.108 4.072-.018 8.144-.377 12.19zM23.01 25.7a33.452 33.452 0 004.03 5.832l.026.025c-.24 2.65-.58 5.288-1.02 7.914-2.186-2.038-4.012-4.586-5.58-7.774A39.194 39.194 0 0123.01 25.7zm-2.647 6.327c1.582 3.166 3.427 5.698 5.633 7.73-.319 1.87-.69 3.729-1.109 5.576l-.61.694c-2.03-1.76-3.895-3.888-5.559-6.327.29-2.6.845-5.178 1.645-7.673zM10.242 53.422c1.313 1.831 3.157 3.582 5.012 4.727.37 3.048.652 6.11.845 9.177-2.181-.88-4.422-2.688-6.673-5.4.03-2.865.303-5.708.816-8.504zm6.391 21.428l.017-.034-.019-.1c-.04-2.37-.13-4.74-.276-7.105a32.558 32.558 0 005.244-8.143c.261 1.03.474 2.068.635 3.117-2.583 3.857-4.527 8.423-5.588 13.3l-.013-1.035zM5.881 97.58c1.857.38 4.058.705 6.584.705a29.33 29.33 0 005.417-.506c.46.982.911 1.98 1.352 2.989l-.028.131a69.428 69.428 0 00-.743 3.772c-2.624.65-5.32.915-8.007.79-2.016-2.509-3.493-5.26-4.575-7.881zm7.476 12.292c1.414 1.792 2.552 3.799 3.464 6.119-4.415-2.489-8.981-4.614-13.388-6.197 3.293-.447 6.633-.403 9.924.078zm-6.864 7.4c3.488-.092 6.752-.379 10.487-.912a98.858 98.858 0 016.584 4.095 40.905 40.905 0 01-11.461 4.112 51.936 51.936 0 01-5.61-7.295zm24.326 8.352c-.042-3.01-.362-6.139-.948-9.313a42.454 42.454 0 013.096 2.29 42.101 42.101 0 00-.441 8.501 76.658 76.658 0 00-1.707-1.478zm-12.9 11.161c2.814-.665 5.753-.971 9.097-.942l4.15 6.109a255.068 255.068 0 01-13.246-5.167zm7.443 7.021a51.153 51.153 0 005.883-1.572 249.7 249.7 0 007.808 2.649c-1.851 1.343-4.043 2.335-6.828 3.076a43.229 43.229 0 01-6.863-4.153zm20.957 3.334c-1.5 1.882-3.78 2.896-6.067 3.727a40.926 40.926 0 01-7.692-2.753c2.757-.756 4.933-1.766 6.777-3.139a253.16 253.16 0 006.974 2.121l.008.044zm.206-.233a26.96 26.96 0 00-2.49-7.683l.905.404c.985.47 1.945.986 2.885 1.537a26.167 26.167 0 00-.51 3.848 24.36 24.36 0 00-.049 2.106l-.74-.212zm-13.4 9.201c4.34.532 8.713.896 13.095 1.095-.431.56-1.965 2.358-4.416 3.46a34.667 34.667 0 01-8.68-4.555zm9.003 4.667c2.612-1.242 4.151-3.236 4.384-3.556 2.564.111 5.131.168 7.694.168.823 0 1.643-.003 2.463-.013-.742 2.091-2.718 3.774-4.524 5.264-3.372-.101-6.768-.741-10.017-1.863zm14.784-3.644c-1.03-2.052-2.984-4.221-5.949-6.609a37.385 37.385 0 016.373.233c1.585.237 3.115.591 4.576 1.063a42.825 42.825 0 001.06 5.109c-2.019.102-4.038.17-6.06.204zm-5.536 10.064a95.96 95.96 0 0013.877.068c-.855 1.029-2.145 2.33-3.786 3.266-3.494-.557-7.143-1.645-10.091-3.334zm39.512 2.236c-3.225-.199-5.859-.072-8.22.404.415-.675.88-1.319 1.383-1.931a17.565 17.565 0 012.132-2.078c3.37-.455 6.375-.038 9.127.506a81.351 81.351 0 01-4.422 3.099zm-2.33 5.393a14.59 14.59 0 002.476-5.197 84.97 84.97 0 004.323-3.029 15.015 15.015 0 01-1.43 6.317 22.877 22.877 0 01-5.368 1.909zm13.603-8.367c-5.144-1.804-9.458-2.883-13.577-3.387l-.184.015c-2.825-1.023-7.378-3.605-7.425-3.63l-.154-.053a49.863 49.863 0 00-3.988-.476l-.066-.043a140.892 140.892 0 01-4.207-2.324l.053-.044.016-.17-.169-.015-.12.102c-3.654-2.115-6.746-4.163-9.66-6.39l-.163-.369c-1.74-3.524-4.817-6.148-7.79-8.691-1.517-1.291-3.078-2.63-4.433-4.063l.144-.333-.023-.447c-3.55-5.915-4.82-12.393-5.66-18.508-.914-6.633-1.002-13.189-1.015-19.875l-.313-.451-.07-.015-.458.15-.706.82a42.096 42.096 0 00-2.375 3.111 70.77 70.77 0 00-5.828-21.405l.017-.033a43.361 43.361 0 001.027-22.27c4.771-2.96 8.168-7.278 9.582-12.18l.017-.155c-.052-1.145-.084-2.116-.12-3.086-.03-.83-.06-1.659-.1-2.61 1.95-1.3 4.157-2.485 6.567-3.524l.089-.047.032-.015.953-.645c2.702-1.825 5.252-3.552 7.435-6.134 2.656-3.135 4.098-6.687 4.168-10.268l-.053-.223c2.956-1.155 5.726-2.906 8.983-5.668 3.225-2.732 5.883-5.658 8.694-8.76l.073-.538-.472-.267c-2.647.243-5.366.199-7.998.152-1.974-.035-4.01-.069-6.01.019-5.352.223-9.528 1.353-12.736 3.44.14-2.267.027-4.542-.356-6.76L53.402 0l-.5.22c-1.5 2.367-3.82 3.79-6.278 5.294l-.515.32c-3.373 2.076-5.705 3.871-7.56 5.828-2.173 2.286-3.865 4.973-4.765 7.57-.664 1.907-.957 3.877-1.243 5.774l-.076.514a26.468 26.468 0 00-4.25-7.93l-.379-.183-.36.155c-7.4 8.269-11.006 19.915-9.697 30.916a36.146 36.146 0 00-4.632-5.692l-.432-.13-.353.286C8.11 53.02 7.306 64.472 10.076 75.317a38.754 38.754 0 00-8.534-3.363l-.423.093-.181.393c.248 7.206.587 13.683 2.224 19.997 1.235 4.779 3.782 11.33 8.96 16.256a36.934 36.934 0 00-10.286.379l-.34.241-.02.419a52.947 52.947 0 0021.946 25.212 37.615 37.615 0 00-6.473 1.092l-.337.311.08.457c5.737 7.195 13.945 12.539 22.73 14.844a40.376 40.376 0 00-7.76 3.745l-.228.385.186.408c6.158 4.788 13.947 7.432 21.539 7.432.663 0 1.324-.019 1.984-.063a53.732 53.732 0 00-5.105 3.16l-.21.402.22.404c4.835 3.101 11.872 4.435 17.067 4.435l.907-.011c5.671-.184 9.936-1.008 13.868-2.722a17.396 17.396 0 00-2.37 6.177l.386.554c1.292.243 2.602.364 3.916.364 7.066 0 14.178-3.403 18.561-9.114l.079-.432-.301-.315z" fill="#43404C"/><path d="M31.462 17.81c.733 0 1.33-.597 1.33-1.33 0-.732-.597-1.33-1.33-1.33a1.33 1.33 0 000 2.66zM14.685 39.89c.871 0 1.58-.71 1.58-1.583 0-.874-.709-1.577-1.58-1.577a1.58 1.58 0 000 3.16zM4.753 69.494a1.58 1.58 0 100-3.16 1.58 1.58 0 000 3.16zm1.781 35.351a1.58 1.58 0 10-3.16.006 1.58 1.58 0 003.16-.006zm8.251 26.121c-.873 0-1.58.709-1.58 1.582 0 .874.707 1.577 1.58 1.577.872 0 1.58-.703 1.58-1.577 0-.873-.708-1.582-1.58-1.582zm15.048 19.065c-.873 0-1.58.709-1.58 1.582a1.581 1.581 0 101.58-1.582zm16.802 14.102c-.775 0-1.404.631-1.404 1.407 0 .777.629 1.402 1.404 1.402.774 0 1.403-.625 1.403-1.402 0-.776-.629-1.407-1.403-1.407zm153.363-47.094c-3.435-.093-6.644-.364-10.29-.874 4.524-2.551 9.207-4.716 13.71-6.293l.326.048a51.562 51.562 0 01-3.746 7.119zm-12.882 13.957a42.643 42.643 0 01-11.355-5.241l.002-.015a88.56 88.56 0 016.793-5.13 41.118 41.118 0 0011.495 4.159 51.637 51.637 0 01-6.935 6.227zm-9.198 3.823a16.043 16.043 0 01-4.669-2.572c.273-1.592.453-3.192.546-4.794a69.421 69.421 0 011.771-1.543l.008.01a42.616 42.616 0 0011.302 5.254 50.871 50.871 0 01-5.705 3.66 48.066 48.066 0 00-3.253-.015zm10.504 1.966a254.835 254.835 0 01-13.244 5.167l4.149-6.109c3.345-.029 6.283.277 9.097.942h-.002zm-7.181 6.828a50.522 50.522 0 01-5.771-1.511 257.075 257.075 0 0012.611-4.91 42.467 42.467 0 01-6.84 6.421zm-22.3 6.103c.043-.557.081-1.135.106-1.732l.024-.611.707-.204.024.077c1.465 1.864 3.646 2.897 5.865 3.717l-.48.112a38.366 38.366 0 00-6.246-1.359zm-10.103 12.632l-.053-.01a38.538 38.538 0 00-6.302-2.305c.279-.854.525-1.728.749-2.612l.073-.255c2.036.106 4.072.168 6.111.202.712 2.102 2.69 3.848 4.418 5.279a30.66 30.66 0 01-4.996-.299zm-10.489 8.632a59.225 59.225 0 01-4.053-.267c-1.54-1.174-2.857-2.838-3.717-4.716a99.424 99.424 0 0010.184 1.241c.822 1.02 2.096 2.355 3.736 3.35-2.198.33-4.322.455-6.15.392zm-19.324-7.273l.663-.273a97.277 97.277 0 0010.605 2.513c.818 1.85 2.073 3.505 3.552 4.713-4.056-.467-7.351-1.428-10.5-3.018a17.388 17.388 0 00-4.32-3.935zm6.578 11.413a84.816 84.816 0 01-9.81-5.465c3.158-.18 5.733-.025 8.05.461a16.438 16.438 0 011.94 4.979l-.18.025zm-7.461-.22c-1.201-1.566-2.033-3.236-2.531-5.074a84.94 84.94 0 009.563 5.356 21.366 21.366 0 01-7.032-.282zm-13.001-7.758c4.661-1.602 8.63-2.582 12.408-3.071l.011.004c.766.407 1.518.902 2.238 1.461-3.3-.394-6.25.044-8.956.586l-.049.025-.497-.374-.168.025.022.17.595.451a15.28 15.28 0 001.325 6.318c-2.641-1.378-5.027-3.271-6.929-5.595zm5.892-.81c2.751-.544 5.756-.961 9.127-.506a17.669 17.669 0 012.13 2.072 18.35 18.35 0 011.385 1.937c-2.361-.476-4.993-.603-8.22-.404a80.73 80.73 0 01-4.422-3.099zm1.384 6.583a14.996 14.996 0 01-1.431-6.317 85.16 85.16 0 004.324 3.029c.473 1.888 1.288 3.595 2.474 5.197a23.095 23.095 0 01-5.367-1.909zm13.334-12.427c4.964-.79 9.496-.805 13.873.006-3.482.999-6.669 2.716-9.358 5.192l-.009.009a96.2 96.2 0 01-10.22-2.411c2.474-1.073 5.22-2.534 5.714-2.796zm8.822-3.275l.485.398 1.22 1.001-.108.318a38.447 38.447 0 00-4.418-.125c.979-.538 1.917-1.067 2.821-1.592zm2.736-1.634l-.948 2.79-1.153-.948-.413-.333c.868-.506 1.705-1.01 2.514-1.509zm7.384-5.48c1.65-3.344 4.649-5.905 7.548-8.384 1.423-1.213 2.889-2.466 4.202-3.816.292.744.546 1.502.762 2.267-1.177 2.057-2.683 4.15-5.476 5.746l-.125-2.256-.119-.117h-.008l-.113.127c.043.781.087 1.558.128 2.333-.619-.019-1.796-.821-2.22-1.145l-.169.025.023.168c.066.05 1.548 1.176 2.38 1.191l.178 3.226c-.872.053-1.743.14-2.615.258l-.949-.36c-.773-.296-1.55-.588-2.325-.884l-.155.074.07.156c.777.29 1.55.582 2.324.877l.546.209c-1.334.199-2.668.47-3.994.824l.034-.28v-.087l.071-.152h.002zm14.212-17.691c1.369.902 3.798 1.898 5.42 2.028.127.887.258 1.78.394 2.669-2.279.791-4.513 1.805-6.459 3.056a40.572 40.572 0 00-1.377-3.74 35.48 35.48 0 002.022-4.013zm3.639-14.647c.86-6.262.993-12.43 1.017-18.7a39.004 39.004 0 014.601 7.041 46.725 46.725 0 01-5.218 11.22l.036.169.064.019.103-.054a46.935 46.935 0 005.168-11.049 42.504 42.504 0 013.287 9.017l-.395.685c-1.965 3.409-3.826 6.632-7.727 9.68a249.354 249.354 0 01-.544-5.512l-.119-.108h-.008l-.111.127c.159 1.833.343 3.673.543 5.518l-1.695-.54-.152.083.079.149 1.797.569c.297 2.707.638 5.416 1.019 8.113-1.599-.146-3.971-1.126-5.292-2.009 1.991-4.756 2.897-9.696 3.547-14.418zm4.829-15.26c.118-1.232.27-2.461.452-3.683a46.803 46.803 0 008.831 4.693c.344 3.061.665 6.122.964 9.18a22.394 22.394 0 01-6.537-2.703 40.707 40.707 0 00-2.747-5.749 55.284 55.284 0 00-.963-1.738zm4.417-29.1a30.689 30.689 0 009.877 3.26 55.007 55.007 0 011.33 7.275 16.5 16.5 0 01-4.214-1.122 25.406 25.406 0 00-2.999-2.747c-.741-.607-1.481-1.13-2.202-1.533l-.03-.014-.341-.024-.119.053-.021.015-.045.034-.038.038-.025.03-.004.004a42.452 42.452 0 01-1.169-5.27zm-6.94-23.342c.682.03 1.358.05 2.029.05 3.168 0 6.22-.355 9.265-1.078a49.047 49.047 0 014.818 6.085 21.63 21.63 0 01-3.228.48c-1.419-1.115-2.92-2.062-4.485-2.794l-.392-.01-.269.29a41.142 41.142 0 00-1.048 3.587c-2.781-1.78-5.057-4.038-6.69-6.61zm-2.09-6.871a27.07 27.07 0 005.065.481c.773 0 1.544-.034 2.318-.102a48.517 48.517 0 015.81 5.26c-3.674.859-7.37 1.185-11.26.986a18.559 18.559 0 01-2.016-4.523c.032-.756.058-1.44.083-2.102zm-5.186-7.127c1.975-.025 3.729.087 5.345.32a30.98 30.98 0 013.86.862 18.787 18.787 0 013.351 6.013 47.88 47.88 0 00-6.701-4.29l-.163.05.049.165a47.412 47.412 0 016.539 4.168c-2.338.18-4.665.053-7.085-.398l.025-.675c.031-.902.063-1.814.11-2.871l-.212-.424a40.86 40.86 0 00-5.118-2.92zm-9.985-7.41a19.174 19.174 0 01-1.432-1.931c3.488-.02 7.069-.015 10.544-.031a144.521 144.521 0 015.834 3.903c-3.651.741-7.191 1.062-10.792 1.353l-.111.126.12.112h.008c3.679-.29 7.288-.62 11.021-1.398l.019-.005.011.005.044.035a142.27 142.27 0 015.032 3.736c-1.303.466-2.728.777-4.327.936a30.806 30.806 0 00-1.882-.243 31.021 31.021 0 00-6.036-.096l-.815-.554c-2.643-1.785-5.138-3.474-7.238-5.948zm-3.789-9.225a142.97 142.97 0 0112.52 7.026c-3.414.02-6.917.015-10.318.029-1.408-2.24-2.204-4.639-2.335-7.05l.133-.005zm-11.283-8.707c1.495-.242 5.089-.862 7.064-1.59 2.599 1.027 5.185 2.197 7.667 3.547-2.302 1.213-4.532 2.053-6.887 2.936l-1.044.392c-1.571-.955-3.181-2.14-4.939-3.63a49.777 49.777 0 01-1.861-1.655zm-5.718-5.889c3.909 1.183 8.185 2.493 12.439 4.163-2.092.712-5.652 1.315-6.945 1.518-1.928-1.81-3.696-3.712-5.494-5.68zm6.675-.17a164.69 164.69 0 013.073-.035 31.536 31.536 0 012.848 4.169c-4.263-1.674-8.553-2.993-12.473-4.184 2.191.121 4.399.087 6.552.05zm11.359.64c1.303 2.155 2.21 4.591 2.697 7.26-2.515-1.384-5.139-2.572-7.777-3.626h-.002l-.002-.004-.003-.01a31.948 31.948 0 00-2.89-4.295c.86 0 1.718.016 2.569.053 1.967.084 3.763.293 5.408.622zm8.12 6.925l.247 3.965c-1.731-1.302-3.563-2.46-5.457-3.514l.034-.106c-.475-2.641-1.359-5.058-2.624-7.202 2.819.607 5.168 1.596 7.105 2.984.099.802.227 1.602.386 2.402.091.49.194.985.309 1.47zm6.262-5.886l.518.314.303.19a43.054 43.054 0 01-.702 5.649 171.236 171.236 0 01-5.252-9.923c1.465 1.513 3.259 2.62 5.133 3.77zm7.884 5.982c.871.923 1.66 1.907 2.347 2.921-.481 2.898-1.337 5.334-2.876 8.227l-.329-.177a110.313 110.313 0 01-2.742-3.997l.061-.084c.47-3.042.822-6.122 1.051-9.17a26.285 26.285 0 012.488 2.28zm5.75 12.825c.125.827.246 1.655.402 2.491l-.061.246-.449-.345a41.862 41.862 0 00-5.96-3.954c1.508-2.83 2.366-5.231 2.859-8.05.862 1.315 1.55 2.679 2.012 4.013.632 1.825.907 3.658 1.197 5.6zm5.682-6.502l.105.122c-.12 4.085-.004 8.172.346 12.234a50.337 50.337 0 01-4.079-5.503 25.55 25.55 0 013.628-6.852zm7.752 33.847a29.904 29.904 0 00-4.063-6.284c1.982-1.719 3.808-3.781 5.446-6.143a37.291 37.291 0 01-.394 10.54 32.876 32.876 0 00-.989 1.887zm6.891-8.298a158.991 158.991 0 00-2.283 13.617 20.85 20.85 0 01-2.986-6.299l.234-.432.05-.14a35.048 35.048 0 014.985-6.746zm2.864 8.9c-1.261 1.819-3.073 3.576-4.909 4.745.569-4.6 1.336-9.17 2.302-13.699a48.478 48.478 0 012.607 8.953zm.122 18.13c-2.418 1.736-4.356 2.794-6.206 3.385.038-2.296.129-4.59.268-6.885l.017-.01.028-.136c2.179-.858 4.413-2.635 6.653-5.284a51.075 51.075 0 01-.76 8.93zm-2.441 5.593a27.449 27.449 0 00-3.431 2.417 36.525 36.525 0 00-.218-1.416l-.04-.22-.1-.563c.002-.722.007-1.444.019-2.168 1.847-.582 3.772-1.615 6.152-3.304a51.332 51.332 0 01-1.002 4.41 42.58 42.58 0 00-1.38.844zm10.701-3.746c-4.037 4.378-7.734 9.376-11.055 14.942-.43-3.344-.285-6.586.46-10.117l.419-.267.527-.317.995-.601.041-.034a37.585 37.585 0 018.613-3.62v.014zm-.869 12.282c-3.198 1.461-6.367 2.248-10.084 2.96 3.288-5.536 6.944-10.506 10.938-14.862-.151 4.172-.356 8.107-.854 11.902zm-1.3 6.846a41.056 41.056 0 01-1.679 5.11c-3.069.641-7.103 1.146-12.004.249 1.48-3.135 3.059-6.13 4.736-8.973h.023c3.761-.713 6.959-1.494 10.186-2.95-.302 2.228-.705 4.411-1.262 6.564zm-9.688 16.694c-1.462.184-2.8.467-4.001.806a91.487 91.487 0 00-.678-4.781c2.197.539 4.439.815 6.692.815l1.104-.024a24.94 24.94 0 01-3.117 3.184zm-7.811 3.136a39.241 39.241 0 017.887-2.108c-1.413 1.831-2.546 3.888-3.45 6.26a99.184 99.184 0 00-6.457 4.019c.348-2.587 1.029-5.334 2.02-8.171zm-10.645 23.015c-.473.043-.97.1-1.479.169.22-.893.411-1.795.572-2.698a16.248 16.248 0 004.072 2.324c-1.016.04-2.066.106-3.165.205zm.734 7.03a264.457 264.457 0 01-7.649 2.592c.697-3.378 1.889-5.842 3.137-7.958a34.424 34.424 0 013.862-.593 60.296 60.296 0 014.844-.265l-4.175 6.143-.019.081zm-12.189-2.993a43.815 43.815 0 017.357-2.305c-1.233 2.12-2.4 4.595-3.08 7.973a249.524 249.524 0 01-6.853 2.085 26.716 26.716 0 012.576-7.753zm-2.511 17.881c1.433-2.091 2.981-3.693 4.703-4.868 3.064.895 6.006 2.14 8.682 3.729a171.61 171.61 0 01-13.385 1.139zm-4.401-6.42c2.958.165 5.931.659 8.803 1.471-1.722 1.207-3.268 2.843-4.705 4.964-3.378.15-6.76.203-10.138.155 1.055-2.034 3.037-4.198 6.04-6.59zm-14.477 16.495c2.461-1.379 5.434-2.504 8.324-3.155a51.497 51.497 0 015.337 3.077 96.685 96.685 0 01-13.661.078zm5.699-4.349l.853.364c.476.209.953.432 1.429.665-2.947.694-5.958 1.864-8.419 3.289a97.976 97.976 0 01-10.269-1.257c2.757-2.498 6.025-4.196 9.597-5.152a36.298 36.298 0 016.809 2.091zm-10.451-4.018c2.444-.713 4.237-1.606 6.073-2.703a35.841 35.841 0 01-1.109 3.804l-.466-.097a36.497 36.497 0 00-4.595-.722l.097-.282zm21.558-13.379c-1.271 1.854-2.833 3.232-4.654 4.106-.496.009-.994.024-1.491.053-.06-1.092-.121-2.178-.18-3.27 2.816-1.573 4.358-3.639 5.55-5.683.417 1.562.678 3.173.775 4.794zm.042 1.281l-.002.427-.002.161-.008.373a23.96 23.96 0 01-.161 2.063 36.84 36.84 0 00-3.979-.203c1.59-.855 2.971-2.096 4.129-3.713l.023.892zm14.67-19.618a42.376 42.376 0 01-1.207 8.414l-.142.03a41.37 41.37 0 00-6.48 1.63c-.134-.873-.263-1.747-.388-2.621 2.753-1.422 5.383-3.804 8.217-7.453zm4.991-12.714c-.578.349-1.146.719-1.708 1.102a44.541 44.541 0 00-2.881 2.024l-.07-.311a41.734 41.734 0 00-1.891-6.702 22.503 22.503 0 006.423 2.591l.127 1.296zm6.859-18.9c.257.757.498 1.519.723 2.284.669 2.423 1.156 4.874 1.533 7.3a42.766 42.766 0 01-9.03 7.715c-.298-3.052-.62-6.113-.963-9.177 3.089-2.479 5.565-5.076 7.737-8.122zm-11.092-15.658a651.949 651.949 0 011.953 14.094c-1.998-.852-3.935-2.128-5.771-3.789a69.745 69.745 0 013.818-10.305zm5.635 5.186c.369.466.716.936 1.046 1.408a51.094 51.094 0 01-4.5 7.379 653.808 653.808 0 00-1.916-13.824 22.144 22.144 0 012.414 1.888 31.69 31.69 0 012.956 3.148zm4.039 1.67l-.824 1.12-.447-.688a27.195 27.195 0 00-2.787-3.748 16.57 16.57 0 003.869.961c.085.793.148 1.577.189 2.354zm-1.286-9.836l.119-.103-.034-.102a42.821 42.821 0 003.814-8.885 39.562 39.562 0 012.533 6.872 43.034 43.034 0 01-4.992 9.5l-.004-.004-.12-.015a54.972 54.972 0 00-1.318-7.263h.002zm-10.33-14.99c.996.52 1.978 1.024 2.961 1.528a290.39 290.39 0 013.107 1.602 105.475 105.475 0 011.988 5.172l.161.467a42.735 42.735 0 01-8.528-3.173 42.135 42.135 0 01.311-5.596zm.724-4.165l.004-.009c.003-.019.344-1.518.776-2.89 1.507 3.216 3.03 6.5 4.42 9.845-.958-.495-1.907-.986-2.855-1.471a346.856 346.856 0 01-3.039-1.568c.169-1.31.4-2.616.694-3.907zm8.783-2.217a47.518 47.518 0 012.575 4.382c-.149.607-.277 1.18-.386 1.713-1.573-2.149-3.348-4.046-5.281-5.608a23.25 23.25 0 003.072-.476l.02-.011zm-5.581-13.897a30.165 30.165 0 015.606 4.993l.491.592a88.002 88.002 0 01-.495 7.91 48.722 48.722 0 00-4.733-5.978l.006-.025a23.464 23.464 0 00-.875-7.492zm-12.507-10.796c-.11-2.635-.224-5.27-.335-7.907a44.351 44.351 0 015.655 2.946 72.762 72.762 0 01-.133 8.822l-.015-.013c-1.693-1.322-3.42-2.6-5.172-3.848zm-6.772-10.113l.88.222a44.245 44.245 0 015.31 1.878c.112 2.61.226 5.222.333 7.836a143.25 143.25 0 00-5.737-3.848l.008-.062a74.158 74.158 0 01-.794-6.026zm-.246-.059c.178 1.995.438 4.007.779 5.988h-.006a142.563 142.563 0 00-12.49-7.055c3.937-.218 7.89.15 11.717 1.067zm-2.727-12.093a28.637 28.637 0 01.063-6.648l.171.205a172.505 172.505 0 005.507 10.486c-2.133-.942-4.062-2.301-5.741-4.043zm9.736 10.613c-2.856-.99-5.475-2.243-8.195-3.92a32.69 32.69 0 01-1.22-4.485 27.23 27.23 0 01-.277-1.82c1.728 1.739 3.708 3.083 5.896 4a134.54 134.54 0 003.796 6.225zm-3.5-6.19l.025-.056c.255-1.323.596-3.328.737-5.749 1.599.999 2.948 1.941 4.115 2.868a117.75 117.75 0 01-1.046 9.195 137.97 137.97 0 01-3.831-6.259zm-6.307 3.692c.562.426 1.116.868 1.656 1.325.225.513.462 1.023.712 1.522-1.986-.48-4.367-.81-6.821-.94l4.42-1.889.033-.018zm3.88 3.245l-.169-.048a28.083 28.083 0 01-1.374-2.721 35.866 35.866 0 01-.598-1.534c2.738 1.664 5.384 2.906 8.283 3.886.843 1.29 1.692 2.534 2.547 3.732a42.792 42.792 0 00-8.689-3.315zm15.891 9.235l-.008.062a26.657 26.657 0 00-.153 9.22 138.77 138.77 0 00-4.419-3.605l.049-.087a72.59 72.59 0 00.145-8.725 47.65 47.65 0 013.476 2.397l.91.738zm16.741 45.75l-.019.1.017.034-.013 1.04c-1.061-4.882-3.005-9.448-5.588-13.305.161-1.049.374-2.087.635-3.117a32.542 32.542 0 005.243 8.143 161.604 161.604 0 00-.275 7.105zm-1.309 22.627c-.836-2.974-1.692-8.536-1.696-13.364a64.925 64.925 0 011.986-2.058 39.03 39.03 0 014.846-3.833c-.727 3.572-.845 6.852-.373 10.259a110.615 110.615 0 00-4.763 8.996zm-3.693-4.678a33.202 33.202 0 00-1.512-3.456l-.273-.586c1-1.421 2.185-2.888 3.543-4.382.036 4.936.933 10.564 1.78 13.432-.427.908-.846 1.829-1.257 2.765l-.212-.883a57 57 0 00-2.069-6.89zm-1.544-1.174a56.609 56.609 0 011.37 3.566c-2.155 3.048-4.61 5.645-7.674 8.119a649.19 649.19 0 00-1.099-9.171 51.586 51.586 0 004.614-7.503 33.058 33.058 0 012.789 4.99zm-5.192-26.666c.425-2.352.654-4.754.686-7.146 1.399 1.29 2.579 2.692 3.591 4.026a38.296 38.296 0 01-2.194 8.744l-.178-.513a104.693 104.693 0 00-1.935-5.052l.03-.059zm-4.679-10.757c1.974.878 3.666 2.072 5.127 3.391a43.488 43.488 0 01-.635 7.046c-1.438-3.463-3.02-6.866-4.576-10.194l.084-.243zm12.402-.476c-.879 2.038-1.489 4.023-1.931 5.765a47.119 47.119 0 00-2.44-4.129l.015-.05c.288-2.594.461-5.24.514-7.866a31.722 31.722 0 013.842 6.28zm-4.576-8.632a29.987 29.987 0 00-7.161-5.764l-.103-.525a31.066 31.066 0 01-.329-4.66 37.324 37.324 0 006.557 5.655c.302 1.77.646 3.537 1.036 5.294zm.709 31.37a72.713 72.713 0 00-1.652-5.53l.07-.084-.007-.072a38.632 38.632 0 002.212-8.666l.694.956.083.087a38.62 38.62 0 012.441 4.27 42.704 42.704 0 01-3.841 9.04zm1.469 8.173a43.186 43.186 0 005.162-9.618c.245.96.455 1.927.626 2.902.119.703.221 1.408.303 2.12-.476.446-.934.894-1.382 1.335a41.494 41.494 0 00-4.569 5.003 55.014 55.014 0 00-.14-1.742zm-5.416 28.402a42.818 42.818 0 009.05-7.677c.244 1.596.443 3.183.619 4.741a39.624 39.624 0 00-9.553 4.134l-.116-1.198zm18.004-7.444a27.966 27.966 0 01-8.047-.801 77.54 77.54 0 00-.76-3.828c.449-1.034.91-2.048 1.381-3.053a29.63 29.63 0 005.417.506c2.526 0 4.726-.326 6.584-.705-1.081 2.621-2.559 5.372-4.575 7.881zm1.031-43.536c-2.251 2.713-4.493 4.52-6.674 5.4.193-3.067.476-6.128.845-9.176 1.855-1.145 3.697-2.896 5.012-4.727a50.11 50.11 0 01.817 8.503zm-10.209-8.05c.252-.569.707-1.443 1.036-2.063a21.073 21.073 0 003.1 6.356 160.398 160.398 0 00-.837 9.099 32.313 32.313 0 01-5.167-8.172 34.536 34.536 0 011.819-5.133l.049-.087zm.915-14.175c-1.663 2.44-3.53 4.566-5.559 6.327l-.612-.694a105.381 105.381 0 01-1.106-5.576c2.205-2.032 4.05-4.564 5.634-7.73a39.507 39.507 0 011.643 7.673zm-1.749-8.003c-1.566 3.188-3.393 5.736-5.58 7.774a107.463 107.463 0 01-1.021-7.914l.028-.025a33.403 33.403 0 004.031-5.832 39.25 39.25 0 012.542 5.997zm-7.006-12.654a37.575 37.575 0 014.325 6.399 33.264 33.264 0 01-3.95 5.79 107.278 107.278 0 01-.375-12.19zm-4.066 6.744a50.533 50.533 0 004.217 5.63c.239 2.65.574 5.288 1.01 7.913a37.09 37.09 0 01-6.5-5.667c.022-1.528.159-3.067.405-4.61.218-1.107.51-2.199.868-3.266zm-21.534-12.33c.372 1.321.83 2.616 1.376 3.869l-1.277-1.015.072-.117-.171-2.737zm-.287 2.867l-4.787 2.044a43.947 43.947 0 00-3.734 0 23.517 23.517 0 01-4.882-2.208l.867-.325c2.411-.902 4.69-1.757 7.056-3.019a48.017 48.017 0 015.48 3.508zm11.394 19.314a17.454 17.454 0 003.74-.908 141.28 141.28 0 014.756 3.888l.015.087a31.19 31.19 0 00-3.397-1.543 27.487 27.487 0 00-5.114-1.524zm6.056 7.754a18.904 18.904 0 00-3.24-6.016c.458.14.911.29 1.36.455 1.599.606 3.14 1.353 4.743 2.223l.128.048.205.112c.542.32 1.067.66 1.584 1.01.724 2.43 1.042 4.94.953 7.478a49.538 49.538 0 00-5.741-5.222l.008-.088zm.858 24.185a43.022 43.022 0 008.619 3.18 73.653 73.653 0 011.692 5.651 30.697 30.697 0 01-9.854-3.3 42.23 42.23 0 01-.457-5.53zm-1.643 22.671c1.87 1.674 3.847 2.951 5.879 3.804a663.11 663.11 0 011.1 9.182 46.277 46.277 0 01-8.764-4.678 70.252 70.252 0 011.785-8.308zm1.768 25.986l.269-.467a42.99 42.99 0 011.129 10.001l-.002.099-.007.392-.01.283c-2.836 3.686-5.545 6.181-8.266 7.608a255.053 255.053 0 01-1.017-8.075c4.02-3.11 5.907-6.382 7.904-9.841zm-27.964 35.177l.021.144.006.021c-.093.508-.19 1.033-.292 1.562a69.159 69.159 0 01-.525 2.498c-1.851 1.122-3.63 2.028-6.055 2.752l1.021-3.008a86.606 86.606 0 005.824-3.969zm1.425 19.118c-1.641-.936-2.931-2.237-3.785-3.266a95.955 95.955 0 0013.876-.068c-2.948 1.689-6.597 2.777-10.091 3.334zm-1.504-13.602c.457-1.68.811-3.388 1.059-5.109a28.725 28.725 0 014.574-1.063 37.403 37.403 0 016.375-.233c-2.965 2.388-4.918 4.557-5.951 6.609-2.02-.034-4.041-.102-6.057-.204zm10.826 5.711c-1.805-1.49-3.782-3.173-4.525-5.264.821.01 1.641.013 2.462.013 2.565 0 5.133-.057 7.696-.168.233.32 1.771 2.314 4.384 3.556-3.249 1.122-6.644 1.762-10.017 1.863zm10.341-1.975c-2.452-1.102-3.984-2.9-4.416-3.46 4.382-.199 8.755-.563 13.096-1.095a34.663 34.663 0 01-8.68 4.555zm-5.462-13.544a25.162 25.162 0 00-.05-2.109 26.179 26.179 0 00-.509-3.845 38.753 38.753 0 012.88-1.537l.909-.404a26.999 26.999 0 00-2.49 7.683l-.74.212zm7.014 3.748c-2.287-.831-4.566-1.845-6.067-3.727l.008-.044c2.33-.674 4.655-1.378 6.974-2.121 1.843 1.369 4.021 2.383 6.777 3.139a40.917 40.917 0 01-7.692 2.753zm8.028-2.908c-2.785-.741-4.978-1.733-6.829-3.076a251.48 251.48 0 007.808-2.649 51.153 51.153 0 005.883 1.572 43.245 43.245 0 01-6.862 4.153zm-.301-20.857a42.27 42.27 0 00-.442-8.501 42.049 42.049 0 013.096-2.29c-.586 3.174-.906 6.303-.948 9.313-.583.489-1.151.984-1.706 1.478zm1.953-1.683c.055-3.008.385-6.128.98-9.291a41.46 41.46 0 017.705-3.985c-.989 2.868-1.658 5.633-1.991 8.24a87.318 87.318 0 00-6.694 5.036zm18.469-.852a40.893 40.893 0 01-11.461-4.112 99.142 99.142 0 016.584-4.095c3.735.533 6.999.82 10.488.912a51.968 51.968 0 01-5.611 7.295zm8.67-14.773c-4.407 1.583-8.973 3.708-13.387 6.197.911-2.32 2.049-4.327 3.463-6.119 3.291-.481 6.631-.525 9.924-.078zm1.597-.722a36.932 36.932 0 00-10.286-.379c5.179-4.926 7.725-11.477 8.96-16.256 1.637-6.314 1.975-12.79 2.225-19.997l-.182-.393-.423-.093a38.745 38.745 0 00-8.533 3.363c2.768-10.844 1.966-22.297-2.285-32.375l-.355-.287-.432.13a36.25 36.25 0 00-4.634 5.693c1.311-11.001-2.294-22.647-9.695-30.916l-.36-.155-.379.183a26.42 26.42 0 00-4.248 7.93l-.078-.514c-.286-1.897-.58-3.867-1.243-5.774-.9-2.596-2.594-5.284-4.765-7.57-1.855-1.957-4.187-3.752-7.557-5.827l-.52-.32c-2.455-1.506-4.776-2.928-6.273-5.295l-.502-.22-.381.395a29.307 29.307 0 00-.358 6.76c-3.206-2.088-7.382-3.218-12.736-3.441-1.997-.088-4.034-.054-6.008-.02-2.632.048-5.353.092-7.998-.151l-.471.267.072.538c2.813 3.102 5.469 6.028 8.694 8.76 3.257 2.762 6.027 4.513 8.981 5.668l-.051.223c.07 3.58 1.512 7.133 4.168 10.268 2.183 2.582 4.733 4.309 7.435 6.134l.953.645h.002l.026.015.095.047c2.409 1.039 4.615 2.224 6.565 3.524-.039.951-.07 1.78-.1 2.61-.036.97-.068 1.94-.119 3.086l.018.155c1.412 4.902 4.809 9.22 9.582 12.18a43.293 43.293 0 001.027 22.27l.015.033a70.692 70.692 0 00-5.828 21.405 41.838 41.838 0 00-3.081-3.932l-.529-.134-.312.451c-.014 6.686-.1 13.242-1.014 19.875-.841 6.115-2.111 12.593-5.661 18.508l-.023.447.144.333c-1.355 1.433-2.918 2.772-4.434 4.063-2.972 2.543-6.049 5.167-7.788 8.691l-.163.369c-2.914 2.227-6.006 4.275-9.659 6.39l-.122-.102-.168.015.013.17.053.044a142.456 142.456 0 01-4.204 2.324l-.067.043a49.998 49.998 0 00-3.99.476l-.151.053c-.05.025-4.601 2.607-7.426 3.63l-.184-.015c-4.119.504-8.433 1.583-13.577 3.387l-.301.315.079.432c4.383 5.711 11.495 9.114 18.561 9.114 1.315 0 2.624-.121 3.916-.364l.387-.554a17.404 17.404 0 00-2.371-6.177c3.93 1.714 8.197 2.538 13.868 2.722l.907.011c5.195 0 12.232-1.334 17.068-4.435l.219-.404-.21-.402a53.739 53.739 0 00-5.104-3.16c.659.044 1.32.063 1.984.063 7.591 0 15.381-2.644 21.538-7.432l.186-.408-.228-.385a40.369 40.369 0 00-7.76-3.745c8.785-2.305 16.993-7.649 22.73-14.844l.08-.457-.337-.311a37.65 37.65 0 00-6.475-1.092c9.811-5.779 17.572-14.679 21.948-25.212l-.02-.419-.34-.241z" fill="#43404C"/><path d="M174.881 17.81a1.33 1.33 0 000-2.66 1.33 1.33 0 100 2.66zm16.776 22.08c.874 0 1.581-.71 1.581-1.583 0-.874-.707-1.577-1.581-1.577-.873 0-1.58.703-1.58 1.577s.707 1.583 1.58 1.583zm9.933 29.604a1.58 1.58 0 10-.003-3.16 1.58 1.58 0 00.003 3.16zm-1.781 35.351a1.579 1.579 0 103.158.004 1.579 1.579 0 00-3.158-.004zm-8.251 26.121a1.58 1.58 0 10.001 3.161 1.58 1.58 0 00-.001-3.161zm-15.049 19.065a1.582 1.582 0 000 3.165 1.582 1.582 0 000-3.165zm-16.801 14.102c-.777 0-1.406.631-1.406 1.407 0 .777.629 1.402 1.406 1.402.774 0 1.404-.625 1.404-1.402 0-.776-.63-1.407-1.404-1.407zM46.072 40.108v74.35c0 40.649 56.6 50.428 57.172 50.525.427-.097 57.026-9.91 57.026-50.525v-74.35c-21.266-9.095-28.805-23.949-30.444-27.768l-26.855-5.793-26.455 5.793c-1.64 3.82-9.174 18.673-30.444 27.768zm56.899 128.222c-.871-.121-60.272-10.393-60.272-53.872V38.985c0-.684.415-1.3 1.046-1.556 23.42-9.609 29.889-26.94 29.952-27.112a1.684 1.684 0 011.23-1.076l27.686-6.022.758-.044.358.044 27.687 6.022a1.683 1.683 0 011.23 1.076c.062.171 6.531 17.503 29.951 27.112a1.68 1.68 0 011.046 1.556v75.473c0 43.479-59.401 53.751-59.999 53.847l-.673.025z" fill="#43404C"/><path d="M160.271 114.458c0 40.615-56.6 50.428-57.026 50.525-.572-.097-57.172-9.876-57.172-50.525v-74.35c21.27-9.095 28.804-23.949 30.443-27.768l26.456-5.793 26.855 5.793c1.639 3.82 9.178 18.673 30.444 27.768v74.35zm.57-75.681c-20.567-8.792-27.922-22.894-29.686-27.004l-.297-.684-27.888-6.016-27.488 6.016-.294.684c-1.766 4.11-9.123 18.212-29.684 27.004l-.877.373v75.308c0 41.849 57.799 51.853 58.383 51.946l.331.029.249-.048c5.951-1.112 58.125-12.015 58.125-51.927V39.15l-.874-.373z" fill="#43404C"/><path d="M145.384 145.762a53.532 53.532 0 01-1.81 1.528c-.612.494-1.233.98-1.86 1.452l-1.266.925-1.285.898-.646.432-1.303.844a80.096 80.096 0 01-6.628 3.766 99.732 99.732 0 01-9.735 4.296c-1.241.47-2.449.906-3.613 1.304l-.58.195c-.574.193-1.137.377-1.688.552-6.787 2.16-11.603 2.998-11.726 3.029-.095-.016-1.696-.292-4.308-.924l-.774-.187c-1.2-.302-2.578-.671-4.092-1.107l-1.03-.305a117.424 117.424 0 01-7.513-2.548 115.227 115.227 0 01-4.466-1.81c-.87-.379-1.745-.772-2.628-1.185l-.663-.315c-.441-.214-.885-.428-1.328-.65a78.71 78.71 0 01-3.996-2.121 55.285 55.285 0 01-1.328-.767 69.47 69.47 0 01-7.728-5.264 57.538 57.538 0 01-4.74-4.184l-.56-.563c-7.031-7.182-12.018-16.527-12.018-28.595v-74.35a71.512 71.512 0 007.04-3.475l.79-.457 1.164-.688.796-.495a63.64 63.64 0 005.849-4.168l1.034-.849.192-.161c.475-.402.936-.81 1.38-1.213l.592-.539 1.07-1.02.777-.77.015-.014a56.91 56.91 0 003.551-3.975 57.646 57.646 0 001.45-1.879c.447-.606.86-1.198 1.24-1.766l.548-.834c.349-.544.665-1.064.953-1.552l.407-.713a33.957 33.957 0 001.596-3.2l26.455-5.793 26.855 5.793c.512 1.194 1.599 3.465 3.504 6.299l.596.87a53.581 53.581 0 005.66 6.763c.671.68 1.385 1.369 2.139 2.059l1.163 1.038 1.228 1.037a61.956 61.956 0 003.363 2.572c3.577 2.548 7.808 4.999 12.791 7.13v74.35c0 4.755-.777 9.094-2.15 13.042a35.835 35.835 0 01-.58 1.559 39.7 39.7 0 01-1.342 2.995c-.242.485-.494.964-.755 1.434a44.03 44.03 0 01-1.232 2.084c-.288.451-.581.896-.885 1.338-2.27 3.3-4.977 6.236-7.942 8.852zm17.213-108.333c-23.42-9.609-29.889-26.94-29.951-27.112a1.7 1.7 0 00-1.23-1.082L103.729 3.22l-.358-.044-.756.044-27.689 6.016a1.701 1.701 0 00-1.23 1.082c-.062.171-6.53 17.503-29.95 27.112a1.68 1.68 0 00-1.047 1.556v75.473c0 43.479 59.401 53.751 60.272 53.872l.673-.025c.598-.096 59.999-10.368 59.999-53.847V38.985c0-.684-.415-1.3-1.046-1.556z" fill="#0B7AC9"/><path d="M105.045 23.226l5.695.178-4.574 3.587 1.599 5.775-4.647-3.486-4.707 3.388 1.702-5.737-4.51-3.677 5.7-.062 1.921-5.664 1.821 5.698zm-17.21 5.012l4.697.146-3.772 2.959 1.319 4.756-3.831-2.868-3.883 2.79 1.404-4.731-3.717-3.027 4.697-.059 1.586-4.663 1.5 4.697zm33.759 0l4.697.146-3.771 2.959 1.319 4.756-3.831-2.868-3.882 2.79 1.402-4.731-3.717-3.027 4.698-.059 1.584-4.663 1.501 4.697z" fill="#FF8F0C"/></svg>