<svg width="48" height="48" fill="none" xmlns="http://www.w3.org/2000/svg"><path fill="#F1F1F1" d="M0 0h48v48H0z"/><path d="M6 30.405h23.08c1.393 0 2.73-.548 3.715-1.523a5.176 5.176 0 001.539-3.68v-3.4a5.18 5.18 0 00-1.54-3.677 5.287 5.287 0 00-3.715-1.526H6V10h23.08c3.16.004 6.19 1.249 8.424 3.461A11.758 11.758 0 0141 21.802v3.4a11.752 11.752 0 01-3.496 8.34A11.992 11.992 0 0129.079 37H6v-6.595z" fill="#1D1D1B"/><path d="M13.657 27H6v-7h7.657a3.465 3.465 0 012.372 1.072c.623.652.971 1.522.971 2.428 0 .906-.348 1.776-.971 2.428A3.465 3.465 0 0113.657 27z" fill="#FD0"/></svg>