<svg width="20" height="20" fill="none" xmlns="http://www.w3.org/2000/svg"><path d="M9.993 1.667c-4.6 0-8.325 3.733-8.325 8.333s3.725 8.333 8.325 8.333c4.608 0 8.342-3.733 8.342-8.333S14.6 1.667 9.993 1.667zm5.775 5H13.31A13.038 13.038 0 0012.16 3.7a6.691 6.691 0 013.608 2.967zm-5.767-3.3a11.74 11.74 0 011.592 3.3H8.41c.358-1.192.9-2.3 1.591-3.3zm-6.45 8.3A6.868 6.868 0 013.335 10c0-.575.083-1.133.216-1.667h2.817c-.067.55-.117 1.1-.117 1.667s.05 1.117.117 1.667H3.551zm.684 1.666h2.458a13.04 13.04 0 001.15 2.967 6.656 6.656 0 01-3.608-2.967zm2.458-6.666H4.235A6.656 6.656 0 017.843 3.7c-.5.925-.883 1.925-1.15 2.967zm3.308 9.966c-.691-1-1.233-2.108-1.591-3.3h3.183a11.74 11.74 0 01-1.592 3.3zm1.95-4.966h-3.9A12.26 12.26 0 017.918 10c0-.567.058-1.125.133-1.667h3.9c.075.542.134 1.1.134 1.667s-.059 1.117-.134 1.667zm.209 4.633c.5-.925.883-1.925 1.15-2.967h2.458A6.691 6.691 0 0112.16 16.3zm1.475-4.633c.066-.55.116-1.1.116-1.667s-.05-1.117-.116-1.667h2.816A6.87 6.87 0 0116.668 10a6.87 6.87 0 01-.217 1.667h-2.816z" fill="#8B96A5"/></svg>