<svg width="20" height="20" fill="none" xmlns="http://www.w3.org/2000/svg"><circle cx="10" cy="10" r="9.5" fill="#FFF4E7" stroke="#FF8F0C"/><path d="M8.697 11.674v-.128c.003-.442.042-.795.118-1.057.078-.263.192-.475.34-.637a2.61 2.61 0 01.538-.439 3.57 3.57 0 00.42-.314 1.36 1.36 0 00.296-.36.916.916 0 00.11-.447.836.836 0 00-.125-.459.832.832 0 00-.337-.303 1.004 1.004 0 00-.462-.106c-.164 0-.32.037-.466.11a.89.89 0 00-.36.318.976.976 0 00-.151.52H7.072c.013-.506.134-.922.364-1.25.23-.331.534-.578.913-.74a3.12 3.12 0 011.254-.246c.502 0 .947.084 1.333.25.386.165.69.403.909.716.22.314.33.691.33 1.133 0 .295-.05.558-.148.788-.096.227-.231.43-.405.606a3.14 3.14 0 01-.618.473 2.5 2.5 0 00-.492.372 1.26 1.26 0 00-.284.447 1.898 1.898 0 00-.095.625v.128H8.697zm.75 2.425a.89.89 0 01-.647-.266.871.871 0 01-.262-.643.855.855 0 01.262-.637.89.89 0 01.647-.265.88.88 0 01.633.265.87.87 0 01.144 1.095.98.98 0 01-.33.33.861.861 0 01-.447.12z" fill="#FF8F0C"/></svg>