<svg width="280" height="279" viewBox="0 0 280 279" fill="none" xmlns="http://www.w3.org/2000/svg">
<path d="M266 9H224.672C222.809 3.7755 217.859 0 212 0H149C143.141 0 138.191 3.7755 136.328 9H95C87.557 9 81.5 15.057 81.5 22.5V81H66.173C60.6965 81 55.292 82.4355 50.54 85.1535L26.303 99H0.5V180H30.6365L49.6985 192.708C54.8915 196.173 60.935 198 67.172 198H81.5V265.5C81.5 272.943 87.557 279 95 279H266C273.443 279 279.5 272.943 279.5 265.5V22.5C279.5 15.057 273.443 9 266 9ZM108.5 117H117.5C127.427 117 135.5 108.927 135.5 99C135.5 89.073 127.427 81 117.5 81H108.5V36H136.328C138.191 41.2245 143.141 45 149 45H212C217.859 45 222.809 41.2245 224.672 36H252.5V252H108.5V117ZM144.5 13.5C144.5 11.016 146.516 9 149 9H212C214.484 9 216.5 11.016 216.5 13.5V31.5C216.5 33.984 214.484 36 212 36H149C146.516 36 144.5 33.984 144.5 31.5V13.5ZM90.5 22.5C90.5 20.016 92.516 18 95 18H135.5V27H99.5V81H90.5V22.5ZM67.172 189C62.717 189 58.4015 187.695 54.6935 185.22L33.3635 171H9.5V108H28.697L55.0085 92.9655C58.4015 91.026 62.2625 90 66.173 90H117.5C122.464 90 126.5 94.0365 126.5 99C126.5 103.964 122.464 108 117.5 108H63.5V112.5C63.5 124.907 53.4065 135 41 135V144C56.8445 144 69.989 132.246 72.1805 117H81.5V189H67.172ZM270.5 265.5C270.5 267.984 268.484 270 266 270H95C92.516 270 90.5 267.984 90.5 265.5V117H99.5V261H261.5V27H225.5V18H266C268.484 18 270.5 20.016 270.5 22.5V265.5Z" fill="#BCC5CB"/>
<path d="M213.679 207.94L198.491 203.602L198.487 201.321C206.645 195.624 212 186.183 212 175.5V166.5C212 149.135 197.866 135 180.5 135C163.134 135 149 149.135 149 166.5V175.5C149 186.174 154.351 195.611 162.5 201.312V203.607L147.317 207.94C137.709 210.69 131 219.587 131 229.581V243H230V229.581C230 219.587 223.291 210.69 213.679 207.94ZM158 175.5V166.5C158 154.094 168.093 144 180.5 144C192.907 144 203 154.094 203 166.5V175.5C203 187.907 192.907 198 180.5 198C168.093 198 158 187.907 158 175.5ZM189.342 205.713L180.5 217.499L171.658 205.713C174.465 206.537 177.431 207 180.5 207C183.569 207 186.535 206.537 189.342 205.713ZM221 234H140V229.581C140 223.587 144.027 218.245 149.792 216.598L165.258 212.18L180.5 232.501L195.742 212.18L211.208 216.598C216.973 218.245 221 223.587 221 229.581V234Z" fill="#0B7AC9"/>
<path d="M126.5 54H117.5V63H126.5V54Z" fill="#FF8F0C"/>
<path d="M243.5 54H135.5V63H243.5V54Z" fill="#BCC5CB"/>
<path d="M243.5 72H144.5V81H243.5V72Z" fill="#BCC5CB"/>
<path d="M243.5 90H144.5V99H243.5V90Z" fill="#BCC5CB"/>
<path d="M243.5 108H234.5V117H243.5V108Z" fill="#FF8F0C"/>
<path d="M225.5 108H144.5V117H225.5V108Z" fill="#BCC5CB"/>
<path d="M162.475 26.5795H152V18.0151H154.085V24.4942H162.475V26.5795Z" fill="#81939F"/>
<path d="M173.989 18.0466H163.515V20.132H173.989V18.0466Z" fill="#81939F"/>
<path d="M173.989 21.27H163.515V23.3554H173.989V21.27Z" fill="#81939F"/>
<path d="M173.989 24.4944H163.515V26.5797H173.989V24.4944Z" fill="#81939F"/>
<path d="M193.582 26.578H190.358C189.369 26.578 188.421 26.1854 187.721 25.4864C187.021 24.7875 186.627 23.8393 186.626 22.8502V18.0151H188.711V22.8502C188.711 23.2862 188.885 23.7044 189.193 24.0127C189.501 24.321 189.919 24.4942 190.355 24.4942H193.582C194.018 24.4938 194.436 24.3204 194.744 24.0122C195.052 23.704 195.226 23.2861 195.226 22.8502V18.0151H197.31V22.8502C197.309 23.8385 196.916 24.786 196.217 25.4848C195.518 26.1836 194.571 26.5767 193.582 26.578Z" fill="#81939F"/>
<path d="M204.687 19.0337C204.508 18.7196 204.248 18.4586 203.935 18.2771C203.622 18.0956 203.266 18 202.905 18C202.543 18 202.187 18.0956 201.874 18.2771C201.561 18.4586 201.302 18.7196 201.122 19.0337L196.815 26.5687H199.217L202.905 20.1161L205.4 24.4833H202.876L201.669 26.5687H209L204.687 19.0337Z" fill="#81939F"/>
<path d="M175.097 24.4945H182.317C182.753 24.4945 183.171 24.3213 183.48 24.013C183.788 23.7047 183.961 23.2865 183.961 22.8505V21.7759C183.961 21.34 183.788 20.9221 183.479 20.6139C183.171 20.3057 182.753 20.1324 182.317 20.132H175.097V18.0466H182.317C183.306 18.0479 184.254 18.4412 184.953 19.1403C185.652 19.8394 186.045 20.7872 186.047 21.7759V22.8505C186.045 23.8391 185.652 24.7868 184.953 25.4856C184.254 26.1845 183.306 26.5774 182.317 26.5783H175.097V24.4945Z" fill="#81939F"/>
<path d="M177.406 23.3606H175.097V21.2659H177.406C177.677 21.2763 177.933 21.3912 178.121 21.5865C178.309 21.7818 178.413 22.0422 178.413 22.3132C178.413 22.5842 178.309 22.8446 178.121 23.0399C177.933 23.2352 177.677 23.3501 177.406 23.3606Z" fill="#BCC5CB"/>
</svg>
