<svg width="11" height="11" viewBox="0 0 11 11" fill="none" xmlns="http://www.w3.org/2000/svg">
<g clip-path="url(#clip0_327_2980)">
<path d="M2.4442 5.92922L7.33934 10.8243C7.45256 10.9376 7.60369 11 7.76485 11C7.926 11 8.07714 10.9376 8.19036 10.8243L8.55085 10.4639C8.78542 10.229 8.78542 9.84733 8.55085 9.61285L4.44028 5.50228L8.55541 1.38715C8.66863 1.27384 8.73114 1.1228 8.73114 0.961733C8.73114 0.80049 8.66863 0.649443 8.55541 0.536045L8.19492 0.175731C8.08161 0.0624227 7.93056 8.83685e-07 7.76941 8.69597e-07C7.60826 8.55509e-07 7.45712 0.0624226 7.3439 0.175731L2.4442 5.07525C2.33071 5.18892 2.26838 5.34068 2.26874 5.50201C2.26838 5.66397 2.33071 5.81564 2.4442 5.92922Z" fill="#4E4E4E"/>
</g>
<defs>
<clipPath id="clip0_327_2980">
<rect x="11" y="11" width="11" height="11" rx="5.5" transform="rotate(-180 11 11)" fill="white"/>
</clipPath>
</defs>
</svg>
