<svg width="22" height="22" viewBox="0 0 22 22" fill="none" xmlns="http://www.w3.org/2000/svg">
<path fill-rule="evenodd" clip-rule="evenodd" d="M11 0C17.0751 0 22 4.92487 22 11C22 17.0751 17.0751 22 11 22C4.92487 22 0 17.0751 0 11C0 4.92487 4.92487 0 11 0ZM11.6588 4.48073C12.4068 4.57408 13.0112 4.75427 13.6744 5.07775C14.3266 5.3969 14.7441 5.69863 15.2964 6.24787C15.8138 6.76674 16.1008 7.15972 16.4052 7.76975C16.8292 8.62079 17.0706 9.63245 17.1119 10.7462C17.1271 11.1261 17.1162 11.2107 17.0292 11.3193C16.864 11.5299 16.5009 11.4951 16.377 11.2585C16.3378 11.1803 16.327 11.1131 16.3139 10.8091C16.2922 10.3424 16.2596 10.0406 16.1943 9.68021C15.9378 8.26692 15.2594 7.13802 14.1766 6.32823C13.2743 5.6509 12.3415 5.32089 11.1196 5.24926C10.7065 5.22538 10.6347 5.21019 10.5412 5.13854C10.3673 5.00176 10.3586 4.68047 10.526 4.53067C10.6282 4.4373 10.6999 4.42427 11.0544 4.43513C11.2392 4.44164 11.5109 4.46336 11.6588 4.48073ZM6.68843 4.7152C6.76455 4.74125 6.88195 4.80202 6.94936 4.84545C7.36244 5.119 8.51265 6.58875 8.88881 7.32256C9.10404 7.74154 9.17579 8.052 9.10842 8.28212C9.0388 8.52961 8.9236 8.65985 8.40828 9.07451C8.20172 9.24166 8.00821 9.41316 7.97779 9.45875C7.89951 9.57165 7.83643 9.79312 7.83643 9.94943C7.83863 10.312 8.07344 10.9698 8.3822 11.4756C8.62134 11.8685 9.04967 12.3722 9.47367 12.7587C9.97157 13.2146 10.4108 13.525 10.9065 13.7703C11.5436 14.0873 11.9328 14.1676 12.2176 14.0352C12.2894 14.0027 12.3654 13.9592 12.3894 13.9397C12.4111 13.9201 12.5785 13.7161 12.7612 13.4903C13.1134 13.0474 13.1938 12.9757 13.4352 12.8933C13.7418 12.7891 14.0549 12.8173 14.3701 12.978C14.6093 13.1017 15.1311 13.4252 15.4681 13.6596C15.9117 13.9701 16.8596 14.7429 16.988 14.8971C17.2141 15.175 17.2532 15.531 17.101 15.924C16.9401 16.3386 16.3139 17.1158 15.8769 17.448C15.4812 17.7476 15.2007 17.8626 14.8311 17.88C14.5267 17.8952 14.4006 17.8692 14.0114 17.7085C10.9587 16.4515 8.52135 14.5758 6.58623 11.9988C5.57521 10.6528 4.80551 9.25689 4.27932 7.80885C3.97277 6.96434 3.95755 6.59742 4.20974 6.1654C4.31847 5.98305 4.7816 5.53151 5.1186 5.27968C5.67958 4.86284 5.93829 4.70867 6.14485 4.66526C6.28618 4.63486 6.53187 4.65875 6.68843 4.7152ZM11.8088 6.05467C13.1286 6.24787 14.1505 6.8601 14.8202 7.8544C15.1964 8.41451 15.4312 9.07236 15.5116 9.77792C15.5399 10.0363 15.5399 10.5073 15.5095 10.5855C15.4812 10.6593 15.3899 10.7592 15.3116 10.8004C15.2268 10.8439 15.0463 10.8396 14.9463 10.7874C14.7789 10.7028 14.7289 10.5681 14.7289 10.2034C14.7289 9.64115 14.5832 9.04848 14.331 8.58822C14.044 8.06285 13.6265 7.62862 13.1178 7.32684C12.6807 7.06633 12.035 6.87313 11.4457 6.82537C11.2326 6.80798 11.1152 6.76461 11.0348 6.67126C10.9109 6.53013 10.8978 6.33905 11.0022 6.18058C11.1152 6.00472 11.2892 5.97651 11.8088 6.05467ZM12.2719 7.69378C12.7003 7.78497 13.0286 7.94774 13.3091 8.21044C13.67 8.55126 13.8679 8.96378 13.9548 9.55647C14.0135 9.9429 13.9896 10.0949 13.8526 10.2208C13.7244 10.338 13.4874 10.3423 13.3439 10.2316C13.2395 10.1535 13.2069 10.071 13.183 9.84738C13.1547 9.54995 13.1025 9.34154 13.0134 9.14832C12.822 8.73801 12.485 8.52522 11.9154 8.45575C11.6479 8.42318 11.5675 8.39282 11.4805 8.2908C11.3218 8.10192 11.3827 7.79578 11.6023 7.68288C11.6849 7.64164 11.7197 7.63732 11.9023 7.64818C12.0154 7.65469 12.1828 7.67423 12.2719 7.69378Z" fill="#7F4DA0"/>
</svg>
