<svg width="620" height="617" viewBox="0 0 620 617" fill="none" xmlns="http://www.w3.org/2000/svg">
<path d="M553.405 613.965C589.849 613.965 619.392 607.201 619.392 598.857C619.392 590.512 589.849 583.748 553.405 583.748C516.962 583.748 487.418 590.512 487.418 598.857C487.418 607.201 516.962 613.965 553.405 613.965Z" fill="#0B7AC9"/>
<path d="M256.906 615.838C380.572 615.838 480.823 604.65 480.823 590.85C480.823 577.05 380.572 565.863 256.906 565.863C133.24 565.863 32.9883 577.05 32.9883 590.85C32.9883 604.65 133.24 615.838 256.906 615.838Z" fill="#0B7AC9"/>
<path d="M564.118 246.257L554.885 244.256L552.818 235.023C552.754 234.7 552.431 234.442 552.108 234.442C551.785 234.442 551.463 234.7 551.398 235.023L549.267 244.256L540.034 246.451C539.711 246.516 539.453 246.839 539.453 247.162C539.453 247.484 539.711 247.807 540.034 247.872L549.267 249.873L551.333 259.106C551.398 259.429 551.721 259.687 552.044 259.687C552.366 259.687 552.689 259.429 552.754 259.106L554.885 249.873L564.118 247.678C564.441 247.614 564.699 247.291 564.699 246.968C564.634 246.645 564.441 246.387 564.118 246.257Z" fill="#0B7AC9"/>
<path d="M120.223 226.306L110.99 224.305L108.924 215.072C108.859 214.749 108.536 214.491 108.214 214.491C107.891 214.491 107.568 214.749 107.503 215.072L105.373 224.305L96.1397 226.5C95.8168 226.565 95.5586 226.888 95.5586 227.21C95.5586 227.533 95.8168 227.856 96.1397 227.921L105.373 229.922L107.439 239.155C107.503 239.478 107.826 239.736 108.149 239.736C108.472 239.736 108.795 239.478 108.859 239.155L110.99 229.922L120.223 227.727C120.546 227.662 120.804 227.34 120.804 227.017C120.804 226.694 120.546 226.371 120.223 226.306Z" fill="#0B7AC9"/>
<path d="M517.437 209.325L512.659 208.292L511.561 203.514C511.496 203.321 511.367 203.256 511.174 203.256C510.98 203.256 510.851 203.385 510.786 203.514L509.689 208.292L504.911 209.454C504.717 209.519 504.652 209.648 504.652 209.842C504.652 210.036 504.781 210.165 504.975 210.229L509.753 211.262L510.851 216.04C510.915 216.234 511.044 216.299 511.238 216.299C511.432 216.299 511.561 216.169 511.626 216.04L512.723 211.262L517.501 210.1C517.695 210.036 517.759 209.906 517.759 209.713C517.759 209.519 517.63 209.39 517.437 209.325Z" fill="#0B7AC9"/>
<path d="M212.562 402.251L220.117 373.971L308.767 398.506L333.238 446.608L428.474 461.652L441.645 543.717L212.562 402.251Z" fill="#0B7AC9"/>
<path d="M441.641 543.717C408.648 588.978 378.495 614.417 319.998 614.417C242.905 614.417 180.469 551.981 180.469 474.889C180.469 436.988 195.577 402.703 220.048 377.522L254.01 418.328L335.106 433.437L359.641 482.443L403.03 474.889L441.641 543.717Z" fill="url(#paint0_linear_327_4752)"/>
<path d="M320.065 617C241.681 617 177.953 553.208 177.953 474.889C177.953 437.634 192.287 402.38 218.307 375.714L220.309 373.648L255.498 415.939L336.917 431.112L361.129 479.537L404.389 471.983L444.743 543.846L443.774 545.202C410.652 590.721 379.789 617 320.065 617ZM219.986 381.461C196.226 406.9 183.118 439.958 183.118 474.889C183.118 550.367 244.521 611.835 320.065 611.835C376.948 611.835 406.778 586.847 438.609 543.523L401.677 477.794L358.224 485.348L333.43 435.761L252.721 420.717L219.986 381.461Z" fill="#0B7AC9"/>
<path d="M238.051 240.124L183.363 322.124L236.114 328.774L299.325 289.13L314.369 304.239L361.503 291.971L424.714 324.965L461.452 322.124L398.306 238.251L238.051 240.124Z" fill="#0B7AC9"/>
<path d="M399.213 182.143C384.105 153.992 378.939 122.612 376.357 105.631C375.194 98.1413 368.738 92.5886 361.119 92.5886H333.678H311.532H284.091C276.472 92.5886 270.015 98.1413 268.853 105.631C266.27 122.612 261.105 153.992 245.996 182.143C228.822 214.039 191.76 274.086 187.047 314.569L247.352 253.295L300.168 294.747L312.435 287.193L357.697 314.505L398.245 255.103L458.098 314.505C453.449 274.086 416.388 214.039 399.213 182.143Z" fill="url(#paint1_linear_327_4752)"/>
<path d="M183.629 321.865L184.533 314.311C188.536 279.832 214.879 232.763 234.056 198.414C237.607 192.086 240.964 186.081 243.741 180.916C259.172 152.248 264.208 119.319 266.339 105.244C267.695 96.3981 275.185 89.9414 284.159 89.9414H361.123C370.098 89.9414 377.587 96.3335 378.943 105.244C381.074 119.319 386.11 152.248 401.542 180.916C404.318 186.081 407.676 192.086 411.227 198.414C430.468 232.763 456.746 279.832 460.749 314.311L461.589 321.671L398.636 259.235L358.476 318.056L312.504 290.292L300.043 297.975L247.679 256.782L183.629 321.865ZM312.504 284.223L356.991 311.083L397.926 251.165L454.357 307.144C447.836 274.538 424.269 232.376 406.707 200.932C403.156 194.539 399.798 188.535 397.022 183.369C381.139 153.927 376.038 120.352 373.843 106.018C372.874 99.7555 367.58 95.1713 361.188 95.1713H284.224C277.832 95.1713 272.537 99.7555 271.569 106.018C269.374 120.352 264.273 153.927 248.389 183.369C245.613 188.535 242.256 194.539 238.704 200.932C221.142 232.311 197.64 274.344 191.054 306.95L247.292 249.809L300.495 291.583L312.504 284.223Z" fill="#0B7AC9"/>
<path d="M319.472 376.553L318.762 371.388C332.256 369.58 340.327 362.349 342.716 359.895C341.425 359.443 340.133 358.991 338.842 358.41C334.064 356.409 324.702 350.597 323.927 342.656C323.411 337.49 326.381 332.713 332.773 328.387C337.357 325.287 345.944 325.158 351.045 329.936C355.177 333.81 358.147 341.494 350.722 356.667C360.536 358.668 367.51 356.602 371.9 354.149C379.196 350.081 382.683 343.495 383.522 338.653C383.651 337.942 383.716 337.297 383.845 336.651C383.587 336.716 383.328 336.78 383.07 336.909C378.099 338.394 363.958 338.072 359.18 330.905C356.081 326.191 357.437 320.187 363.313 312.955C366.606 308.952 373.773 306.498 380.036 309.404C383.845 311.147 389.333 315.796 389.591 328.322C393.336 325.868 396.113 322.705 397.791 318.702C404.636 302.689 392.82 279.187 392.239 278.089C390.624 275.248 361.118 223.143 352.595 204.418C340.392 177.688 334.71 84.8408 334.451 80.9022L339.681 80.5793C339.746 81.5478 345.557 176.332 357.373 202.223C365.895 220.883 396.565 274.99 396.887 275.571L396.952 275.635C397.533 276.733 410.576 302.172 402.699 320.703C400.116 326.708 395.661 331.292 389.462 334.391C389.333 336.005 389.075 337.684 388.752 339.492C387.719 345.561 383.458 353.761 374.547 358.668C369.059 361.703 360.407 364.221 348.269 361.38C348.14 361.574 348.01 361.768 347.881 362.026L347.623 362.349C347.106 362.93 337.68 374.1 319.472 376.553ZM340.779 331.486C338.713 331.486 336.776 332.002 335.614 332.777C330.965 335.941 328.77 339.105 329.092 342.204C329.609 346.982 336.259 351.824 340.844 353.697C342.458 354.342 344.007 354.923 345.492 355.375C350.593 345.238 351.368 337.49 347.429 333.81C345.622 332.131 343.103 331.486 340.779 331.486ZM374.16 313.343C371.384 313.343 368.672 314.569 367.316 316.248C364.41 319.864 361.311 324.771 363.506 327.999C366.412 332.39 377.259 333.164 381.585 331.873C382.554 331.615 383.458 331.292 384.362 330.969C384.684 322.188 382.489 316.183 377.905 314.117C376.678 313.601 375.451 313.343 374.16 313.343Z" fill="#FFDD00"/>
<path d="M255.55 371.001C247.092 371.001 241.345 368.353 238.44 363.188C233.92 355.053 238.569 343.689 241.539 339.492C244.315 335.553 247.35 332.39 250.578 330.065C250.126 329.549 249.739 329.097 249.287 328.58L249.222 328.451C248.512 327.547 232.241 306.628 242.314 286.095C247.35 275.765 256.454 261.495 265.17 247.678C276.728 229.47 288.673 210.617 290.158 202.869C295.84 173.039 304.169 81.4833 304.233 80.5793L309.399 81.0313C309.334 81.9352 300.94 173.749 295.194 203.837C293.515 212.618 281.829 231.02 269.496 250.519C260.844 264.207 251.805 278.347 246.898 288.42C238.44 305.594 252.322 324.125 253.161 325.223C253.807 325.998 254.452 326.708 255.098 327.483C257.874 326.191 260.844 325.546 263.879 325.352C280.279 324.577 294.032 340.525 294.613 341.235L290.674 344.593C290.545 344.464 278.019 329.936 264.137 330.582C262.265 330.646 260.393 331.034 258.649 331.679C270.013 345.82 274.081 356.215 271.111 363.382C269.238 367.966 264.525 370.678 257.874 371.001C257.1 371.001 256.325 371.001 255.55 371.001ZM254 334.133C251.095 336.135 248.383 338.911 245.865 342.527C243.411 346.013 239.989 355.182 243.024 360.67C245.09 364.415 250.062 366.158 257.745 365.706C260.328 365.577 264.977 364.802 266.397 361.251C267.624 358.216 267.495 350.727 254 334.133Z" fill="#FFDD00"/>
<path d="M349.242 28.6677V27.6992C349.242 12.3968 336.845 0 321.543 0C306.241 0 293.844 12.3968 293.844 27.6992V28.6677H349.242Z" fill="#0B7AC9"/>
<path d="M376.551 21.3716H266.465V88.9084H376.551V21.3716Z" fill="#0B7AC9"/>
<path d="M384.621 84.518C384.621 90.5227 379.779 95.4298 373.709 95.4298H270.08C264.075 95.4298 259.168 90.5873 259.168 84.518C259.168 78.5133 264.01 73.6062 270.08 73.6062H373.709C379.779 73.6708 384.621 78.5133 384.621 84.518Z" fill="white"/>
<path d="M373.776 98.0124H270.147C262.722 98.0124 256.652 91.9431 256.652 84.5179C256.652 77.0927 262.722 71.0234 270.147 71.0234H373.776C381.202 71.0234 387.271 77.0927 387.271 84.5179C387.206 91.9431 381.202 98.0124 373.776 98.0124ZM270.147 76.2533C265.563 76.2533 261.882 79.9982 261.882 84.5179C261.882 89.1021 265.627 92.7824 270.147 92.7824H373.776C378.361 92.7824 382.041 89.0376 382.041 84.5179C382.041 79.9337 378.296 76.2533 373.776 76.2533H270.147Z" fill="#0B7AC9"/>
<path d="M384.621 56.4313C384.621 62.436 379.779 67.3431 373.709 67.3431H270.08C264.075 67.3431 259.168 62.5006 259.168 56.4313C259.168 50.4266 264.01 45.5195 270.08 45.5195H373.709C379.779 45.5195 384.621 50.3621 384.621 56.4313Z" fill="white"/>
<path d="M373.776 69.8612H270.147C262.722 69.8612 256.652 63.792 256.652 56.3668C256.652 48.9416 262.722 42.8723 270.147 42.8723H373.776C381.202 42.8723 387.271 48.9416 387.271 56.3668C387.206 63.8565 381.202 69.8612 373.776 69.8612ZM270.147 48.1022C265.563 48.1022 261.882 51.8471 261.882 56.3668C261.882 60.951 265.627 64.6313 270.147 64.6313H373.776C378.361 64.6313 382.041 60.8865 382.041 56.3668C382.041 51.7825 378.296 48.1022 373.776 48.1022H270.147Z" fill="#0B7AC9"/>
<path d="M384.621 28.2804C384.621 34.2852 379.779 39.1922 373.709 39.1922H270.08C264.075 39.1922 259.168 34.3497 259.168 28.2804C259.168 22.2757 264.01 17.3687 270.08 17.3687H373.709C379.779 17.3687 384.621 22.2757 384.621 28.2804Z" fill="white"/>
<path d="M373.776 41.7747H270.147C262.722 41.7747 256.652 35.7055 256.652 28.2804C256.652 20.8552 262.722 14.7859 270.147 14.7859H373.776C381.202 14.7859 387.271 20.8552 387.271 28.2804C387.271 35.7055 381.202 41.7747 373.776 41.7747ZM270.147 20.0158C265.563 20.0158 261.882 23.7607 261.882 28.2804C261.882 32.8646 265.627 36.5449 270.147 36.5449H373.776C378.361 36.5449 382.041 32.8 382.041 28.2804C382.041 23.6961 378.296 20.0158 373.776 20.0158H270.147Z" fill="#0B7AC9"/>
<path d="M152.702 368.676C155.155 366.546 158.448 365.512 162.516 365.771C166.583 365.964 171.684 367.127 177.754 369.193C183.823 371.259 188.407 373.519 191.635 376.037C194.864 378.555 196.736 381.396 197.317 384.753C197.898 388.046 197.963 390.887 197.446 393.341C196.93 395.73 195.961 399.152 194.476 403.542L139.982 563.539C137.464 571.028 134.623 576.258 131.588 579.164C128.554 582.069 125.002 583.49 120.87 583.361C116.738 583.232 111.895 582.199 106.343 580.326C100.79 578.454 96.5285 576.452 93.623 574.386C90.6529 572.32 88.5868 570.318 87.2955 568.381C86.0042 566.444 85.423 564.12 85.4876 561.343C85.423 557.663 86.5852 552.498 88.8451 545.783L100.79 510.658L22.7933 484.057C9.36339 479.473 2.64844 473.145 2.64844 465.01C2.713 461.588 3.6815 457.326 5.4248 452.161C7.1681 446.996 8.78229 443.251 10.2028 440.926L66.957 352.664C69.6042 348.66 71.7349 345.626 73.4136 343.624C75.0924 341.623 77.5459 340.009 80.8388 338.782C84.1317 337.555 87.812 337.62 91.8152 338.976C95.8183 340.331 100.015 342.527 104.341 345.497C116.544 353.697 121.128 362.155 118.223 370.807C117.19 373.906 115.124 377.651 112.089 382.235C111.766 382.558 111.573 382.816 111.508 383.01L70.0562 447.254L116.996 463.267L143.791 384.689C145.276 380.298 146.568 377.07 147.536 375.068C148.569 372.938 150.248 370.871 152.702 368.676Z" fill="white"/>
<path d="M121.385 585.943C121.192 585.943 120.998 585.943 120.804 585.943C116.414 585.814 111.313 584.717 105.502 582.78C99.6265 580.778 95.2359 578.712 92.0722 576.516C88.8438 574.257 86.584 572.061 85.099 569.802C83.5494 567.413 82.7746 564.572 82.9037 561.343C82.8391 557.34 84.0013 551.981 86.3903 545.008L97.4958 512.337L21.9527 486.575C7.42518 481.603 0.0645668 474.372 0 465.01C0.0645668 461.265 1.03307 456.81 2.9055 451.322C4.77794 445.898 6.3921 442.089 7.9417 439.57L64.6959 351.243C67.4723 347.046 69.603 344.076 71.3463 341.946C73.2833 339.621 76.1242 337.684 79.8691 336.328C83.7431 334.908 88.0045 334.972 92.6533 336.522C96.8501 337.942 101.305 340.267 105.825 343.366C119.061 352.276 124.033 361.768 120.675 371.646C119.578 374.939 117.447 378.878 114.219 383.656L114.089 383.849L113.896 384.043C113.896 384.043 113.896 384.043 113.831 384.107L73.9935 445.833L115.252 459.909L141.208 383.785C142.757 379.2 144.048 375.972 145.082 373.841C146.244 371.517 148.116 369.193 150.893 366.804C153.863 364.156 157.801 362.994 162.579 363.253C166.905 363.511 172.264 364.673 178.527 366.804C184.79 368.934 189.762 371.388 193.184 374.035C196.929 376.941 199.188 380.363 199.899 384.301C200.544 387.917 200.609 391.145 200.028 393.857C199.511 396.375 198.478 399.862 196.929 404.382L142.434 564.378C139.722 572.32 136.752 577.808 133.395 581.036C130.037 584.264 125.97 585.943 121.385 585.943ZM85.8092 340.46C84.3887 340.46 83.0329 340.719 81.8061 341.171C78.9651 342.204 76.8344 343.624 75.4785 345.238C73.9289 347.175 71.7982 350.145 69.2156 354.084L12.5259 442.347C11.2346 444.413 9.68499 448.029 8.00625 453C6.32752 457.907 5.4236 461.975 5.35903 465.074C5.35903 471.854 11.5574 477.471 23.7606 481.603L104.211 509.044L91.4265 546.622C89.2312 553.014 88.1336 557.986 88.1982 561.279V561.343V561.408C88.1336 563.603 88.5856 565.411 89.5541 566.896C90.6517 568.575 92.5241 570.318 95.1714 572.19C97.8832 574.128 101.951 576 107.245 577.808C112.54 579.616 117.189 580.584 120.998 580.713C124.42 580.778 127.326 579.68 129.844 577.227C132.556 574.579 135.138 569.672 137.527 562.635L192.021 402.638C193.507 398.377 194.475 395.019 194.927 392.76C195.379 390.693 195.314 388.175 194.798 385.205C194.346 382.558 192.796 380.234 190.085 378.103C187.114 375.779 182.659 373.648 176.913 371.711C171.166 369.774 166.259 368.612 162.385 368.418C158.963 368.224 156.381 368.999 154.444 370.678C152.248 372.615 150.699 374.423 149.859 376.166C148.891 378.038 147.664 381.202 146.244 385.463L118.609 466.495L66.0518 448.61L109.247 381.719C109.441 381.331 109.699 380.944 110.086 380.556C112.927 376.295 114.864 372.744 115.768 369.967C118.286 362.542 114.089 355.246 102.919 347.692C98.7871 344.851 94.784 342.785 90.9745 341.493C89.1667 340.783 87.4234 340.46 85.8092 340.46Z" fill="#0B7AC9"/>
<path d="M527.771 386.044C529.063 383.01 531.581 380.75 535.326 379.136C539.135 377.521 544.171 376.359 550.499 375.584C556.826 374.81 561.992 374.81 565.995 375.649C569.998 376.488 572.968 378.296 574.905 381.008C576.842 383.72 578.133 386.303 578.779 388.627C579.36 391.016 579.941 394.503 580.522 399.151L601.119 566.96C602.088 574.838 601.829 580.713 600.409 584.652C598.924 588.59 596.341 591.431 592.596 593.11C588.851 594.789 584.009 596.015 578.198 596.726C572.387 597.436 567.674 597.5 564.122 596.919C560.571 596.338 557.795 595.434 555.858 594.272C553.856 593.11 552.307 591.237 551.209 588.719C549.595 585.426 548.368 580.326 547.464 573.223L542.944 536.42L461.138 546.428C447.063 548.171 438.217 545.395 434.666 538.035C433.246 534.935 432.212 530.674 431.567 525.25C430.921 519.827 430.727 515.759 430.986 513.047L443.641 408.901C444.286 404.123 444.932 400.507 445.513 397.925C446.094 395.407 447.644 392.888 450.098 390.306C452.551 387.788 455.909 386.238 460.105 385.721C464.302 385.205 469.016 385.334 474.245 386.109C488.773 388.175 496.65 393.792 497.748 402.832C498.135 406.06 497.941 410.386 497.167 415.745C497.037 416.197 496.973 416.52 496.973 416.713L487.611 492.579L536.811 486.51L526.674 404.123C526.093 399.474 525.834 396.052 525.899 393.792C525.834 391.726 526.48 389.079 527.771 386.044Z" fill="white"/>
<path d="M569.542 599.954C567.347 599.954 565.41 599.825 563.667 599.502C559.793 598.857 556.758 597.888 554.434 596.532C551.98 595.112 550.108 592.852 548.752 589.882C547.009 586.331 545.717 580.972 544.813 573.611L540.617 539.391L461.393 549.14C446.155 551.013 436.341 547.72 432.273 539.326C430.724 535.904 429.626 531.449 428.916 525.702C428.206 520.021 428.012 515.824 428.335 512.918L440.99 408.708C441.636 403.736 442.281 400.12 442.927 397.473C443.637 394.503 445.381 391.533 448.157 388.692C450.998 385.722 454.936 383.914 459.714 383.333C464.169 382.816 469.141 382.945 474.565 383.72C490.319 385.98 498.971 392.372 500.262 402.703C500.714 406.189 500.521 410.645 499.681 416.326L499.617 416.585L499.552 416.843V416.907L490.577 489.803L533.837 484.509L524.023 404.704C523.442 399.926 523.184 396.44 523.184 394.051C523.248 391.404 523.894 388.563 525.314 385.205C526.864 381.525 529.834 378.749 534.289 376.876C538.292 375.197 543.651 373.971 550.172 373.131C556.758 372.292 562.246 372.356 566.508 373.26C571.157 374.229 574.643 376.36 577.032 379.588C579.163 382.558 580.648 385.464 581.294 388.111C581.939 390.629 582.52 394.18 583.102 398.958L603.698 566.767C604.731 575.096 604.409 581.295 602.794 585.685C601.116 590.334 598.016 593.627 593.561 595.628C589.558 597.436 584.457 598.727 578.388 599.438C575.095 599.76 572.125 599.954 569.542 599.954ZM545.072 533.58L549.914 572.965C550.754 579.68 551.916 584.587 553.401 587.622L553.465 587.751C554.369 589.817 555.531 591.238 557.081 592.142C558.76 593.175 561.278 593.95 564.442 594.466C567.735 594.983 572.19 594.918 577.742 594.272C583.295 593.562 587.879 592.465 591.431 590.85C594.594 589.43 596.66 587.17 597.887 583.877C599.179 580.326 599.372 574.773 598.468 567.413L577.872 399.604C577.29 395.084 576.774 391.662 576.193 389.402C575.676 387.336 574.514 385.076 572.771 382.623C571.157 380.427 568.768 379.007 565.41 378.297C561.73 377.522 556.823 377.522 550.818 378.232C544.749 379.007 539.906 380.104 536.291 381.589C533.127 382.945 531.125 384.689 530.092 387.078C528.994 389.789 528.349 392.114 528.349 393.986C528.349 396.117 528.607 399.475 529.124 403.93L539.583 488.899L484.508 495.679L494.258 416.649C494.258 416.197 494.322 415.745 494.516 415.229C495.226 410.193 495.42 406.125 495.032 403.219C494.064 395.407 487.091 390.693 473.725 388.756C468.754 387.982 464.234 387.852 460.295 388.369C456.68 388.821 453.903 390.048 451.837 392.178C449.707 394.374 448.415 396.569 447.899 398.571C447.318 400.96 446.672 404.575 446.091 409.289L433.436 513.435C433.177 515.888 433.371 519.762 434.017 524.992C434.662 530.158 435.631 534.225 436.922 537.002C439.892 543.135 447.899 545.46 460.683 543.91L545.072 533.58Z" fill="#0B7AC9"/>
<defs>
<linearGradient id="paint0_linear_327_4752" x1="311.055" y1="377.522" x2="311.055" y2="614.417" gradientUnits="userSpaceOnUse">
<stop stop-color="white"/>
<stop offset="1" stop-color="#8A8A8A" stop-opacity="0"/>
</linearGradient>
<linearGradient id="paint1_linear_327_4752" x1="322.572" y1="92.5886" x2="322.572" y2="314.569" gradientUnits="userSpaceOnUse">
<stop stop-color="white"/>
<stop offset="1" stop-color="#8A8A8A" stop-opacity="0"/>
</linearGradient>
</defs>
</svg>
