<svg width="17" height="17" viewBox="0 0 17 17" fill="none" xmlns="http://www.w3.org/2000/svg">
<path d="M8.56932 16.3847C4.18458 16.3847 0.617188 12.8173 0.617188 8.4326C0.617188 4.04786 4.18458 0.480469 8.56932 0.480469C12.954 0.480469 16.5214 4.04786 16.5214 8.4326C16.5214 12.8173 12.954 16.3847 8.56932 16.3847ZM8.56932 1.17196C4.56559 1.17196 1.30868 4.42887 1.30868 8.4326C1.30868 12.4363 4.56559 15.6932 8.56932 15.6932C12.573 15.6932 15.83 12.4363 15.83 8.4326C15.83 4.42887 12.573 1.17196 8.56932 1.17196Z" fill="black"/>
<path d="M12.7183 12.9273C12.5274 12.9273 12.3725 12.7724 12.3725 12.5815C12.3725 10.4842 10.6666 8.77834 8.56932 8.77834C6.47203 8.77834 4.76612 10.4842 4.76612 12.5815C4.76612 12.7724 4.61123 12.9273 4.42038 12.9273C4.22953 12.9273 4.07463 12.7724 4.07463 12.5815C4.07463 10.1032 6.09102 8.08685 8.56932 8.08685C11.0476 8.08685 13.064 10.1032 13.064 12.5815C13.064 12.7724 12.9091 12.9273 12.7183 12.9273Z" fill="black"/>
<path d="M8.56932 7.39536C7.23474 7.39536 6.1491 6.30972 6.1491 4.97515C6.1491 3.64058 7.23474 2.55494 8.56932 2.55494C9.90389 2.55494 10.9895 3.64058 10.9895 4.97515C10.9895 6.30972 9.90389 7.39536 8.56932 7.39536ZM8.56932 3.24643C7.61644 3.24643 6.84059 4.02228 6.84059 4.97515C6.84059 5.92802 7.61644 6.70387 8.56932 6.70387C9.52219 6.70387 10.298 5.92802 10.298 4.97515C10.298 4.02228 9.52219 3.24643 8.56932 3.24643Z" fill="black"/>
</svg>
