<svg width="6" height="12" viewBox="0 0 6 12" fill="none" xmlns="http://www.w3.org/2000/svg">
<path d="M5.10617 0.414661C5.1887 0.332131 5.30063 0.285767 5.41735 0.285767C5.53406 0.285767 5.646 0.332131 5.72853 0.414661C5.81106 0.497191 5.85742 0.609125 5.85742 0.72584C5.85742 0.842554 5.81106 0.954489 5.72853 1.03702L5.10617 0.414661ZM5.72853 10.9631C5.76939 11.004 5.80181 11.0525 5.82392 11.1059C5.84604 11.1592 5.85742 11.2165 5.85742 11.2743C5.85742 11.3321 5.84604 11.3893 5.82392 11.4427C5.80181 11.4961 5.76939 11.5446 5.72853 11.5854C5.646 11.668 5.53406 11.7143 5.41735 11.7143C5.35956 11.7143 5.30233 11.703 5.24894 11.6808C5.19555 11.6587 5.14703 11.6263 5.10617 11.5854L5.72853 10.9631ZM0.454314 5.0674L5.10617 0.414661L5.72853 1.03702L1.07491 5.68887L0.453435 5.0674H0.454314ZM1.07491 6.31123L5.72853 10.9631L5.10617 11.5854L0.453435 6.93271L1.07491 6.31123ZM1.07491 5.68887C1.03398 5.7297 1.00151 5.7782 0.979351 5.8316C0.957193 5.885 0.945788 5.94224 0.945788 6.00005C0.945788 6.05786 0.957193 6.11511 0.979351 6.1685C1.00151 6.2219 1.03398 6.2704 1.07491 6.31123L0.453435 6.93271C0.330906 6.81026 0.233707 6.66487 0.16739 6.50484C0.101074 6.34481 0.0669412 6.17328 0.0669412 6.00005C0.0669412 5.82683 0.101074 5.6553 0.16739 5.49527C0.233707 5.33524 0.330906 5.18985 0.453435 5.0674L1.07491 5.68887Z" fill="#0B7AC9"/>
</svg>
