<svg width="25" height="25" viewBox="0 0 25 25" fill="none" xmlns="http://www.w3.org/2000/svg">
<circle cx="12.5" cy="12.5" r="12" transform="rotate(90 12.5 12.5)" fill="white" stroke="#BCC5CB"/>
<path d="M15.9907 11.1834C16.0423 11.1318 16.0713 11.0619 16.0713 10.9889C16.0713 10.916 16.0423 10.846 15.9907 10.7944C15.9391 10.7428 15.8692 10.7139 15.7962 10.7139C15.7233 10.7139 15.6533 10.7428 15.6018 10.7944L15.9907 11.1834ZM9.39796 10.7944C9.37242 10.7689 9.3421 10.7486 9.30873 10.7348C9.27536 10.721 9.2396 10.7139 9.20348 10.7139C9.16736 10.7139 9.13159 10.721 9.09822 10.7348C9.06485 10.7486 9.03453 10.7689 9.00899 10.7944C8.95741 10.846 8.92843 10.916 8.92843 10.9889C8.92843 11.025 8.93555 11.0608 8.94937 11.0942C8.96319 11.1275 8.98345 11.1579 9.00899 11.1834L9.39796 10.7944ZM13.0828 14.0908L15.9907 11.1834L15.6018 10.7944L12.6943 13.7029L13.0828 14.0908ZM12.3054 13.7029L9.39796 10.7944L9.00899 11.1834L11.9169 14.0914L12.3054 13.7029ZM12.6943 13.7029C12.6688 13.7285 12.6385 13.7488 12.6051 13.7627C12.5718 13.7765 12.536 13.7836 12.4999 13.7836C12.4637 13.7836 12.428 13.7765 12.3946 13.7627C12.3612 13.7488 12.3309 13.7285 12.3054 13.7029L11.9169 14.0914C11.9935 14.1679 12.0844 14.2287 12.1844 14.2701C12.2844 14.3116 12.3916 14.3329 12.4999 14.3329C12.6081 14.3329 12.7153 14.3116 12.8153 14.2701C12.9154 14.2287 13.0062 14.1674 13.0828 14.0908L12.6943 13.7029Z" fill="black"/>
</svg>
