<svg width="15" height="15" viewBox="0 0 15 15" fill="none" xmlns="http://www.w3.org/2000/svg">
<path d="M3.74948 0L14.5831 9.47121e-07C14.8131 9.67229e-07 14.9998 0.186675 14.9998 0.416685L14.9998 11.2505C14.9998 11.4805 14.8131 11.6672 14.5831 11.6672C14.3531 11.6672 14.1664 11.4805 14.1664 11.2505L14.1664 0.833369L3.74948 0.833368C3.51947 0.833368 3.3328 0.646694 3.3328 0.416684C3.3328 0.186674 3.51947 -2.01073e-08 3.74948 0Z" fill="#0B7AC9"/>
<path d="M14.5831 9.47121e-07C14.6898 9.56446e-07 14.7965 0.0408355 14.8781 0.121672C15.0406 0.284179 15.0406 0.548357 14.8781 0.710864L0.711062 14.8781C0.548557 15.0406 0.284383 15.0406 0.121878 14.8781C-0.0406261 14.7156 -0.0406261 14.4514 0.121878 14.2889L14.2889 0.121672C14.3698 0.0408355 14.4764 9.37795e-07 14.5831 9.47121e-07Z" fill="#0B7AC9"/>
</svg>
