<svg width="17" height="17" viewBox="0 0 17 17" fill="none" xmlns="http://www.w3.org/2000/svg">
<path d="M8.02624 12.1234C8.85999 12.4325 9.78208 12.3559 10.5913 12.0014L9.38914 12.9126C8.89919 12.6604 8.4467 12.3992 8.02624 12.1234ZM5.086 6.28939C4.68953 7.17872 4.60343 8.19817 4.9633 9.10848C4.65426 8.65006 4.36488 8.15352 4.08763 7.61141L5.086 6.28939ZM12.1689 12.0605L12.1947 12.0409L12.1955 12.0402C13.2915 12.3986 14.4382 12.5824 15.6053 12.5878V15.6052C11.8595 15.5916 8.44922 14.1263 5.90887 11.7439C6.76749 12.5332 7.76462 13.2039 8.96153 13.8171C9.28552 13.985 9.67719 13.949 9.96607 13.7301C9.96609 13.73 9.96611 13.73 9.96613 13.73L12.1689 12.0605ZM3.18168 8.03611C3.77688 9.20522 4.4307 10.1846 5.20132 11.0324C2.85124 8.49832 1.40833 5.11169 1.39483 1.39474H4.42117C4.42654 2.5612 4.61036 3.70806 4.96644 4.7983C4.96068 4.80661 4.95137 4.81845 4.93672 4.83367L4.91591 4.85527L4.89784 4.8792L3.26942 7.03552L3.26874 7.03642C3.05176 7.32509 3.01678 7.713 3.18168 8.03611Z" fill="white" stroke="white"/>
</svg>
