<svg width="18" height="17" viewBox="0 0 18 17" fill="none" xmlns="http://www.w3.org/2000/svg">
<path d="M15.7106 17C7.07731 17 0.0527344 9.97542 0.0527344 1.34211C0.0527344 0.602158 0.654892 0 1.39484 0H4.52642C5.26637 0 5.86852 0.602158 5.86852 1.34211C5.86852 2.38895 6.03316 3.417 6.35616 4.39584C6.50916 4.88526 6.38121 5.40689 6.02421 5.76479V5.76479C5.15886 6.91458 4.98665 8.50291 5.88933 9.62363C6.38868 10.2436 6.9435 10.7871 7.57871 11.2791C8.62405 12.0888 10.0789 11.9358 11.134 11.139V11.139C11.2669 11.0386 11.3875 10.9211 11.5282 10.8322C11.8434 10.633 12.2731 10.5738 12.6605 10.7073C13.6348 11.0294 14.662 11.1932 15.7106 11.1932C16.4506 11.1932 17.0527 11.7953 17.0527 12.5353V15.6579C17.0527 16.3978 16.4506 17 15.7106 17ZM1.39484 0.894737C1.14879 0.894737 0.947471 1.09516 0.947471 1.34211C0.947471 9.48242 7.57031 16.1053 15.7106 16.1053C15.9567 16.1053 16.158 15.9048 16.158 15.6579V12.5353C16.158 12.2883 15.9567 12.0879 15.7106 12.0879C14.5672 12.0879 13.4452 11.9089 12.375 11.5555C12.2158 11.5027 12.0395 11.5439 11.9196 11.662L9.71679 13.3316C9.57989 13.4354 9.39468 13.4515 9.24347 13.3727C6.61831 12.0279 5.00689 10.4156 3.68 7.80926C3.60216 7.65716 3.61826 7.47374 3.72116 7.33684L5.34958 5.18053C5.51331 5.01053 5.55537 4.83784 5.50347 4.67053C5.15274 3.60668 4.97379 2.48468 4.97379 1.34211C4.97379 1.09516 4.77247 0.894737 4.52642 0.894737H1.39484Z" fill="white"/>
<path d="M1.39484 0.894737C1.14879 0.894737 0.947471 1.09516 0.947471 1.34211C0.947471 9.48242 7.57031 16.1053 15.7106 16.1053C15.9567 16.1053 16.158 15.9048 16.158 15.6579V12.5353C16.158 12.2883 15.9567 12.0879 15.7106 12.0879C14.5672 12.0879 13.4452 11.9089 12.375 11.5555C12.2158 11.5027 12.0395 11.5439 11.9196 11.662L9.71679 13.3316C9.57989 13.4354 9.39468 13.4515 9.24347 13.3727C6.61831 12.0279 5.00689 10.4156 3.68 7.80926C3.60216 7.65716 3.61826 7.47374 3.72116 7.33684L5.34958 5.18053C5.51331 5.01053 5.55537 4.83784 5.50347 4.67053C5.15274 3.60668 4.97379 2.48468 4.97379 1.34211C4.97379 1.09516 4.77247 0.894737 4.52642 0.894737H1.39484Z" fill="white"/>
</svg>
