<svg width="17" height="17" viewBox="0 0 17 17" fill="none" xmlns="http://www.w3.org/2000/svg">
<path d="M15.6579 17C7.02458 17 0 9.97542 0 1.34211C0 0.602158 0.602158 0 1.34211 0H4.47368C5.21363 0 5.81579 0.602158 5.81579 1.34211C5.81579 2.38895 5.98042 3.417 6.30342 4.39584C6.45642 4.88526 6.32847 5.40689 5.97147 5.76479V5.76479C5.10613 6.91458 4.93392 8.50291 5.8366 9.62363C6.33595 10.2436 6.89077 10.7871 7.52598 11.2791C8.57132 12.0888 10.0262 11.9358 11.0813 11.139V11.139C11.2141 11.0386 11.3347 10.9211 11.4755 10.8322C11.7907 10.633 12.2203 10.5738 12.6077 10.7073C13.5821 11.0294 14.6093 11.1932 15.6579 11.1932C16.3978 11.1932 17 11.7953 17 12.5353V15.6579C17 16.3978 16.3978 17 15.6579 17ZM1.34211 0.894737C1.09605 0.894737 0.894737 1.09516 0.894737 1.34211C0.894737 9.48242 7.51758 16.1053 15.6579 16.1053C15.9039 16.1053 16.1053 15.9048 16.1053 15.6579V12.5353C16.1053 12.2883 15.9039 12.0879 15.6579 12.0879C14.5144 12.0879 13.3924 11.9089 12.3223 11.5555C12.1631 11.5027 11.9868 11.5439 11.8669 11.662L9.66405 13.3316C9.52716 13.4354 9.34195 13.4515 9.19074 13.3727C6.56558 12.0279 4.95416 10.4156 3.62726 7.80926C3.54942 7.65716 3.56553 7.47374 3.66842 7.33684L5.29684 5.18053C5.46058 5.01053 5.50263 4.83784 5.45074 4.67053C5.1 3.60668 4.92105 2.48468 4.92105 1.34211C4.92105 1.09516 4.71974 0.894737 4.47368 0.894737H1.34211Z" fill="#0B7AC9"/>
<path d="M1.34211 0.894737C1.09605 0.894737 0.894737 1.09516 0.894737 1.34211C0.894737 9.48242 7.51758 16.1053 15.6579 16.1053C15.9039 16.1053 16.1053 15.9048 16.1053 15.6579V12.5353C16.1053 12.2883 15.9039 12.0879 15.6579 12.0879C14.5144 12.0879 13.3924 11.9089 12.3223 11.5555C12.1631 11.5027 11.9868 11.5439 11.8669 11.662L9.66405 13.3316C9.52716 13.4354 9.34195 13.4515 9.19074 13.3727C6.56558 12.0279 4.95416 10.4156 3.62726 7.80926C3.54942 7.65716 3.56553 7.47374 3.66842 7.33684L5.29684 5.18053C5.46058 5.01053 5.50263 4.83784 5.45074 4.67053C5.1 3.60668 4.92105 2.48468 4.92105 1.34211C4.92105 1.09516 4.71974 0.894737 4.47368 0.894737H1.34211Z" fill="#0B7AC9"/>
</svg>
