<svg width="24" height="22" viewBox="0 0 24 22" fill="none" xmlns="http://www.w3.org/2000/svg">
    <path d="M8.5 21.5C7.42491 21.5 6.5018 20.5779 6.5 19.5032C6.50164 20.6255 7.37719 21.5 8.5 21.5ZM8.5 21.5C9.57614 21.5 10.5 20.5761 10.5 19.5M8.5 21.5C9.62386 21.5 10.5 20.6239 10.5 19.5M10.5 19.5C10.5 18.4239 9.57614 17.5 8.5 17.5M10.5 19.5C10.5 18.3761 9.62386 17.5 8.5 17.5M8.5 17.5C7.42491 17.5 6.5018 18.4221 6.5 19.4968C6.50164 18.3745 7.37719 17.5 8.5 17.5ZM18.5 21.5C17.4271 21.5 16.5055 20.5816 16.5 19.5096C16.505 20.6288 17.3793 21.5 18.5 21.5ZM18.5 21.5C19.5761 21.5 20.5 20.5761 20.5 19.5M18.5 21.5C19.6239 21.5 20.5 20.6239 20.5 19.5M20.5 19.5C20.5 18.4239 19.5761 17.5 18.5 17.5M20.5 19.5C20.5 18.3761 19.6239 17.5 18.5 17.5M18.5 17.5C17.4271 17.5 16.5055 18.4184 16.5 19.4904C16.505 18.3712 17.3793 17.5 18.5 17.5ZM23.4846 3.5L21.7167 10.5715L23.2863 4.01642L23.4099 3.5H23.4846ZM6.56452 13.3958L15.2022 12.2717L6.93214 13.4046L6.19848 13.5051L6.56588 14.1481C7.06752 15.0259 8.04755 15.5 9 15.5L8.89999 15.5C7.53354 15.5 6.24581 14.4645 5.99144 13.1079L5.99146 13.1079L5.9906 13.1035L4.10139 3.5H4.1101L4.20971 3.99805L6.00971 12.9981L6.10132 13.4561L6.56452 13.3958ZM22.1662 4.39999L20.6939 10.5486L6.89868 12.3439L5.3099 4.39999H22.1662ZM8.5 20.5C7.97614 20.5 7.5 20.0239 7.5 19.5C7.5 18.9761 7.97614 18.5 8.5 18.5C9.02386 18.5 9.5 18.9761 9.5 19.5C9.5 20.0239 9.02386 20.5 8.5 20.5ZM18.5 20.5C17.9761 20.5 17.5 20.0239 17.5 19.5C17.5 18.9761 17.9761 18.5 18.5 18.5C19.0239 18.5 19.5 18.9761 19.5 19.5C19.5 20.0239 19.0239 20.5 18.5 20.5Z"
          stroke="white"/>
    <path d="M8.5 21.5C7.42491 21.5 6.5018 20.5779 6.5 19.5032C6.50164 20.6255 7.37719 21.5 8.5 21.5ZM8.5 21.5C9.57614 21.5 10.5 20.5761 10.5 19.5M8.5 21.5C9.62386 21.5 10.5 20.6239 10.5 19.5M10.5 19.5C10.5 18.4239 9.57614 17.5 8.5 17.5M10.5 19.5C10.5 18.3761 9.62386 17.5 8.5 17.5M8.5 17.5C7.42491 17.5 6.5018 18.4221 6.5 19.4968C6.50164 18.3745 7.37719 17.5 8.5 17.5ZM18.5 21.5C17.4271 21.5 16.5055 20.5816 16.5 19.5096C16.505 20.6288 17.3793 21.5 18.5 21.5ZM18.5 21.5C19.5761 21.5 20.5 20.5761 20.5 19.5M18.5 21.5C19.6239 21.5 20.5 20.6239 20.5 19.5M20.5 19.5C20.5 18.4239 19.5761 17.5 18.5 17.5M20.5 19.5C20.5 18.3761 19.6239 17.5 18.5 17.5M18.5 17.5C17.4271 17.5 16.5055 18.4184 16.5 19.4904C16.505 18.3712 17.3793 17.5 18.5 17.5ZM23.4846 3.5L21.7167 10.5715L23.2863 4.01642L23.4099 3.5H23.4846ZM6.56452 13.3958L15.2022 12.2717L6.93214 13.4046L6.19848 13.5051L6.56588 14.1481C7.06752 15.0259 8.04755 15.5 9 15.5L8.89999 15.5C7.53354 15.5 6.24581 14.4645 5.99144 13.1079L5.99146 13.1079L5.9906 13.1035L4.10139 3.5H4.1101L4.20971 3.99805L6.00971 12.9981L6.10132 13.4561L6.56452 13.3958ZM22.1662 4.39999L20.6939 10.5486L6.89868 12.3439L5.3099 4.39999H22.1662ZM8.5 20.5C7.97614 20.5 7.5 20.0239 7.5 19.5C7.5 18.9761 7.97614 18.5 8.5 18.5C9.02386 18.5 9.5 18.9761 9.5 19.5C9.5 20.0239 9.02386 20.5 8.5 20.5ZM18.5 20.5C17.9761 20.5 17.5 20.0239 17.5 19.5C17.5 18.9761 17.9761 18.5 18.5 18.5C19.0239 18.5 19.5 18.9761 19.5 19.5C19.5 20.0239 19.0239 20.5 18.5 20.5Z"
          stroke="#FFFEFE" stroke-opacity="0.2"/>
</svg>
