<svg width="18" height="18" viewBox="0 0 18 18" fill="none" xmlns="http://www.w3.org/2000/svg">
<path d="M13.7496 17.2129C12.796 17.2129 12.0209 16.4371 12.0209 15.4842C12.0209 14.5313 12.796 13.7555 13.7496 13.7555C14.7031 13.7555 15.4783 14.5313 15.4783 15.4842C15.4783 16.4371 14.7031 17.2129 13.7496 17.2129ZM13.7496 14.447C13.1777 14.447 12.7124 14.9123 12.7124 15.4842C12.7124 16.0561 13.1777 16.5214 13.7496 16.5214C14.3214 16.5214 14.7868 16.0561 14.7868 15.4842C14.7868 14.9123 14.3214 14.447 13.7496 14.447Z" fill="black"/>
<path d="M6.83469 17.2129C5.88113 17.2129 5.10597 16.4371 5.10597 15.4842C5.10597 14.5313 5.88113 13.7555 6.83469 13.7555C7.78825 13.7555 8.56341 14.5313 8.56341 15.4842C8.56341 16.4371 7.78825 17.2129 6.83469 17.2129ZM6.83469 14.447C6.26283 14.447 5.79746 14.9123 5.79746 15.4842C5.79746 16.0561 6.26283 16.5214 6.83469 16.5214C7.40655 16.5214 7.87193 16.0561 7.87193 15.4842C7.87193 14.9123 7.40655 14.447 6.83469 14.447Z" fill="black"/>
<path d="M15.1326 13.064H7.15208C6.00214 13.064 5.00501 12.246 4.77889 11.1188L3.09373 2.69166H1.30278C1.11192 2.69166 0.957031 2.53676 0.957031 2.34591C0.957031 2.15506 1.11192 2.00017 1.30278 2.00017H3.37724C3.54182 2.00017 3.68357 2.11634 3.71607 2.27814L5.45724 10.9826C5.61767 11.7882 6.33059 12.3725 7.15208 12.3725H15.1326C15.3234 12.3725 15.4783 12.5274 15.4783 12.7183C15.4783 12.9091 15.3234 13.064 15.1326 13.064Z" fill="black"/>
<path d="M14.6029 10.298H5.10597C4.91512 10.298 4.76022 10.1431 4.76022 9.95229C4.76022 9.76144 4.91512 9.60655 5.10597 9.60655H14.6029C15.125 9.60655 15.5675 9.21586 15.6318 8.69793C15.6553 8.50777 15.8393 8.37432 16.0177 8.39783C16.2071 8.42134 16.342 8.59421 16.3185 8.78368C16.2106 9.64735 15.4728 10.298 14.6029 10.298Z" fill="black"/>
<path d="M8.90916 4.76612H4.06873C3.87788 4.76612 3.72299 4.61123 3.72299 4.42038C3.72299 4.22953 3.87788 4.07463 4.06873 4.07463H8.90916C9.10001 4.07463 9.2549 4.22953 9.2549 4.42038C9.2549 4.61123 9.10001 4.76612 8.90916 4.76612Z" fill="black"/>
<path d="M13.7496 8.22357C11.653 8.22357 9.94639 6.51767 9.94639 4.42038C9.94639 2.32309 11.653 0.617188 13.7496 0.617188C15.8462 0.617188 17.5528 2.32309 17.5528 4.42038C17.5528 6.51767 15.8462 8.22357 13.7496 8.22357ZM13.7496 1.30868C12.034 1.30868 10.6379 2.70479 10.6379 4.42038C10.6379 6.13596 12.034 7.53208 13.7496 7.53208C15.4652 7.53208 16.8613 6.13596 16.8613 4.42038C16.8613 2.70479 15.4652 1.30868 13.7496 1.30868Z" fill="black"/>
<path d="M13.0581 6.1491C12.9696 6.1491 12.8811 6.11522 12.8133 6.04815L11.4303 4.66517C11.2955 4.53033 11.2955 4.31112 11.4303 4.17628C11.5652 4.04144 11.7844 4.04144 11.9192 4.17628L13.0581 5.31447L15.5793 2.7933C15.7141 2.65846 15.9333 2.65846 16.0681 2.7933C16.203 2.92815 16.203 3.14735 16.0681 3.28219L13.3022 6.04815C13.2351 6.11522 13.1466 6.1491 13.0581 6.1491Z" fill="black"/>
</svg>
