<svg width="25" height="30" viewBox="0 0 25 30" fill="none" xmlns="http://www.w3.org/2000/svg">
<path d="M24 12.439V26.1863C24 27.7127 22.7626 28.9507 21.2356 28.9507H3.7644C2.23735 28.9507 1 27.7127 1 26.1863V3.7644C1 2.23798 2.23735 1 3.7644 1H12.2995C12.417 1 12.5126 1.09552 12.5126 1.21303V9.51566C12.5126 11.0421 13.7499 12.2801 15.277 12.2801H23.841C23.8831 12.2801 23.9233 12.297 23.9535 12.3266C23.983 12.3567 24 12.3969 24 12.439Z" fill="#FFDD00" stroke="#FFDD00" stroke-miterlimit="10"/>
<path d="M23.9061 12.2801H15.3679C13.7899 12.2801 12.5117 11.0025 12.5117 9.42391V1H12.6261L23.9061 12.2801Z" stroke="#FFDD00" stroke-miterlimit="10" stroke-linejoin="bevel"/>
<path d="M10.113 20.8713C10.0012 21.0787 9.82523 21.2458 9.58644 21.3728C9.34764 21.4997 9.046 21.5632 8.68215 21.5632H7.93936V23.2643H7.05078V18.834H8.68215C9.02463 18.834 9.31685 18.8931 9.55816 19.0118C9.79947 19.1306 9.98045 19.2934 10.1011 19.5007C10.2218 19.7081 10.2821 19.9431 10.2821 20.2052C10.2815 20.4421 10.2249 20.6639 10.113 20.8713ZM9.18928 20.6778C9.30742 20.5659 9.36712 20.4082 9.36712 20.2052C9.36712 19.7735 9.12581 19.5579 8.64381 19.5579H7.93936V20.8462H8.64381C8.8889 20.8462 9.07114 20.7902 9.18928 20.6778Z" fill="#0B7AC9"/>
<path d="M13.6852 19.1073C14.0383 19.2896 14.3111 19.5485 14.504 19.8847C14.6963 20.2209 14.7924 20.6111 14.7924 21.0554C14.7924 21.4997 14.6963 21.8881 14.504 22.2199C14.3117 22.5523 14.0383 22.8093 13.6852 22.991C13.332 23.1732 12.9223 23.2637 12.4572 23.2637H10.9082V18.834H12.4566C12.9223 18.834 13.3314 18.9251 13.6852 19.1073ZM13.5042 22.1281C13.7581 21.8743 13.885 21.5167 13.885 21.0554C13.885 20.5942 13.7581 20.2335 13.5042 19.9733C13.2503 19.7131 12.8909 19.5831 12.4252 19.5831H11.7968V22.509H12.4252C12.8909 22.509 13.2503 22.382 13.5042 22.1281Z" fill="#0B7AC9"/>
<path d="M18.1964 18.834V19.551H16.3495V20.6872H17.7647V21.3916H16.3495V23.2637H15.4609V18.834H18.1964Z" fill="#0B7AC9"/>
</svg>
