<svg width="40" height="40" viewBox="0 0 40 40" fill="none" xmlns="http://www.w3.org/2000/svg">
<path d="M39.1667 19.1667C38.7067 19.1667 38.3333 19.54 38.3333 20C38.3333 30.1083 30.1083 38.3333 20 38.3333C11.3917 38.3333 6.11833 32.2367 3.095 26.6667H7.5C7.96 26.6667 8.33333 26.2933 8.33333 25.8333C8.33333 25.3733 7.96 25 7.5 25H0.833333C0.373333 25 0 25.3733 0 25.8333V32.43C0 32.89 0.373333 33.2633 0.833333 33.2633C1.29333 33.2633 1.66667 32.8917 1.66667 32.43V27.5133C6.10833 35.6833 12.42 40 20 40C31.0283 40 40 31.0283 40 20C40 19.54 39.6267 19.1667 39.1667 19.1667ZM39.1667 6.73667C38.7067 6.73667 38.3333 7.11 38.3333 7.57V12.4867C33.8917 4.315 27.58 0 20 0C8.97167 0 0 8.97167 0 20C0 20.46 0.373333 20.8333 0.833333 20.8333C1.29333 20.8333 1.66667 20.46 1.66667 20C1.66667 9.89167 9.89167 1.66667 20 1.66667C28.6083 1.66667 33.8817 7.76333 36.905 13.3333H32.5C32.04 13.3333 31.6667 13.7067 31.6667 14.1667C31.6667 14.6267 32.04 15 32.5 15H39.1667C39.6267 15 40 14.6267 40 14.1667V7.57C40 7.11 39.6267 6.73667 39.1667 6.73667Z" fill="#0B7AC9"/>
<path d="M19.757 8.57901L12.2542 20.1217C11.8218 20.7869 12.2992 21.6667 13.0927 21.6667H19.7917L18.2023 30.011C17.9988 31.079 19.4055 31.6587 20.0136 30.7574L27.9063 19.0593C28.3544 18.3951 27.8785 17.5 27.0773 17.5H20.625L21.5887 9.23988C21.7112 8.18993 20.3331 7.69271 19.757 8.57901Z" stroke="#0B7AC9" stroke-width="2"/>
</svg>
