<svg width="42" height="42" viewBox="0 0 42 42" fill="none" xmlns="http://www.w3.org/2000/svg">
<path d="M8.00849 9.76807H40.9997V41.0001H1V17.2565L8.00849 9.76807ZM8.00849 9.76807V17.2565" stroke="#0B7AC9"/>
<path d="M36.0547 24.3795C36.0547 26.556 34.4111 28.263 32.4521 28.263C30.4932 28.263 28.8496 26.556 28.8496 24.3795C28.8496 22.2031 30.4932 20.4961 32.4521 20.4961C34.4111 20.4961 36.0547 22.2031 36.0547 24.3795Z" stroke="#0B7AC9"/>
<path d="M8.70409 35.7034C8.70409 36.6695 7.97889 37.3952 7.15283 37.3952C6.32676 37.3952 5.60156 36.6695 5.60156 35.7034C5.60156 34.7374 6.32676 34.0117 7.15283 34.0117C7.97889 34.0117 8.70409 34.7374 8.70409 35.7034Z" stroke="#0B7AC9"/>
<path d="M22.3799 16.3426C22.3799 17.3086 21.6547 18.0343 20.8286 18.0343C20.0025 18.0343 19.2773 17.3086 19.2773 16.3426C19.2773 15.3766 20.0025 14.6509 20.8286 14.6509C21.6547 14.6509 22.3799 15.3766 22.3799 16.3426Z" stroke="#0B7AC9"/>
<path d="M12.625 5.38421V5.38421C12.625 3.82946 12.883 2.08318 14.2007 1.25807C14.4638 1.09331 14.7415 0.990031 15.0181 1.00076C15.2491 1.00972 15.4781 1.0981 15.6962 1.23324C17.0202 2.05334 17.2403 3.82679 17.2403 5.38421V5.38421M12.625 5.38421H17.2403M12.625 5.38421V7.94122M17.2403 5.38421V7.94122M12.625 7.94122H17.2403M12.625 7.94122V9.76765M17.2403 7.94122V9.76765M12.625 9.76765V34.0592L15.0181 38.6253L17.2403 34.0592V9.76765M12.625 9.76765H17.2403M14.8472 18.5345V19.6304" stroke="#0B7AC9"/>
<path d="M14.8457 20.7256V30.5883" stroke="#0B7AC9"/>
<path d="M12.7949 32.416H16.7265" stroke="#0B7AC9"/>
<path d="M12.9648 34.6074H17.0674" stroke="#0B7AC9"/>
<path d="M32.1113 38.4438H39.1198" stroke="#0B7AC9" stroke-linecap="round"/>
<path d="M1 17.438H8.52131" stroke="#0B7AC9"/>
<path d="M38.947 36.25H36.041" stroke="#0B7AC9" stroke-linecap="round"/>
<path d="M21.1298 26.6978C21.1298 26.6978 21.2 22.4298 22.5427 20.5336C24.0335 18.4282 28.3965 17.4062 28.3965 17.4062" stroke="#0B7AC9" stroke-linecap="round"/>
<path d="M26.1837 25.6981C26.1837 25.6981 25.6457 29.2187 24.5042 31.2092C23.2368 33.4193 20.1172 35.6753 20.1172 35.6753" stroke="#0B7AC9" stroke-linecap="round"/>
<path d="M10.0474 31.7147C10.0474 31.7147 7.8847 30.7802 7.0979 29.5898C6.22428 28.268 6.2832 25.4751 6.2832 25.4751" stroke="#0B7AC9" stroke-linecap="round"/>
</svg>
