<svg width="40" height="40" viewBox="0 0 40 40" fill="none" xmlns="http://www.w3.org/2000/svg">
<path d="M21.6656 14.6449C22.1756 14.6449 22.6856 14.8383 23.0739 15.2283C24.1405 16.2949 24.7855 17.2599 25.1288 18.2916C25.3755 19.0332 25.9671 19.6249 26.7104 19.8732C27.7421 20.2166 28.7054 20.8599 29.742 21.8965L38.58 30.7348C39.495 31.6498 40 32.8682 40 34.1631C40 35.4648 39.495 36.6831 38.58 37.5998L37.6001 38.5798C35.7635 40.4165 32.5636 40.4081 30.7353 38.5798L21.8973 29.7415C20.8606 28.7065 20.2173 27.7432 19.874 26.7099C19.6273 25.9682 19.0357 25.3765 18.2924 25.1282C17.2608 24.7849 16.2975 24.1415 15.2608 23.1049C14.4525 22.2965 14.4525 21.0382 15.2258 20.2666L20.2673 15.2249C20.6523 14.8383 21.1573 14.6449 21.6656 14.6449ZM34.1652 38.3331C35.0218 38.3331 35.8201 38.0015 36.4218 37.3998L37.4018 36.4215C38.0017 35.8198 38.3334 35.0198 38.3334 34.1698C38.3334 33.3132 38.0017 32.5132 37.4001 31.9132L28.562 23.0749C27.7154 22.2282 26.9588 21.7132 26.1821 21.4549C24.9438 21.0416 23.9589 20.0566 23.5455 18.8182C23.2872 18.0399 22.7706 17.2832 21.9223 16.4349C21.7673 16.2799 21.5706 16.2766 21.4423 16.4016L16.4008 21.4432C16.2775 21.5666 16.2775 21.7665 16.4008 21.8899C17.2841 22.7732 18.0391 23.2882 18.8174 23.5465C20.0557 23.9599 21.0406 24.9449 21.4539 26.1832C21.7139 26.9615 22.2273 27.7165 23.0756 28.5632L31.9136 37.4015C32.5136 38.0015 33.3136 38.3331 34.1652 38.3331Z" fill="#0B7AC9"/>
<path d="M2.50125 3.22857e-07C2.62791 3.22857e-07 2.75457 0.0283327 2.87457 0.0883323L8.61938 2.96165C9.47101 3.38665 10.001 4.24498 10.001 5.19664V6.32163L19.7573 16.0782C20.0823 16.4032 20.0823 16.9316 19.7573 17.2566C19.4324 17.5816 18.904 17.5816 18.579 17.2566L8.57938 7.25663C8.42272 7.09996 8.33439 6.8883 8.33439 6.66663V5.19664C8.33439 4.87831 8.15773 4.59331 7.8744 4.45164L2.66624 1.84666L1.8496 2.66332L4.45452 7.87162C4.59451 8.15662 4.8795 8.33329 5.19782 8.33329H6.66777C6.88943 8.33329 7.10109 8.42162 7.25776 8.57662L17.2574 18.5766C17.5824 18.9016 17.5824 19.4299 17.2574 19.7549C16.9324 20.0799 16.4041 20.0799 16.0791 19.7549L6.32279 9.99995H5.19782C4.24452 9.99995 3.38788 9.46995 2.96123 8.61829L0.0879939 2.87332C-0.0720008 2.55332 -0.0103364 2.16499 0.244655 1.91166L1.91127 0.244998C2.07293 0.0833321 2.28625 3.22857e-07 2.50125 3.22857e-07Z" fill="#0B7AC9"/>
<path d="M16.2508 17.9166C16.4641 17.9166 16.6774 17.9982 16.8408 18.1599L17.6741 18.9932C17.9991 19.3182 17.9991 19.8466 17.6741 20.1716L16.4024 21.4432C16.2975 21.5482 16.2975 21.7849 16.4024 21.8899C17.2858 22.7732 18.0407 23.2882 18.819 23.5465C19.429 23.7499 19.9923 24.0982 20.449 24.5549C20.774 24.8799 20.774 25.4065 20.449 25.7332L18.0507 28.1315C17.1208 29.0615 16.6158 30.2415 16.6641 31.3698C16.7524 33.4265 15.8925 35.3915 14.0325 37.3731C12.4409 39.0698 10.266 40.0165 8.23105 39.9998C6.37778 39.9765 4.61284 39.3298 3.12456 38.1281C2.9129 37.9565 2.7979 37.6931 2.81623 37.4215C2.83623 37.1498 2.98623 36.9048 3.21955 36.7648L8.31272 33.7098C8.16106 32.1798 7.25609 30.8348 5.87113 30.1182L1.31128 32.8532C1.05629 33.0065 0.742968 33.0115 0.482976 32.8698C0.229651 32.7315 0.0329933 32.4565 0.0163272 32.1698C-0.120335 29.8465 0.679636 27.6382 2.27125 25.9515C3.83953 24.2865 6.04946 23.3332 8.33438 23.3332C8.9477 23.3332 9.56268 23.4132 10.2377 23.5849L15.6608 18.1616C15.8241 17.9982 16.0375 17.9166 16.2508 17.9166ZM18.579 25.2432C18.4857 25.1982 18.3907 25.1599 18.2924 25.1282C17.2591 24.7849 16.2958 24.1415 15.2592 23.1049C14.8158 22.6615 14.6158 22.0865 14.6525 21.5282L11.0726 25.1082C10.856 25.3249 10.5393 25.4065 10.2427 25.3165C9.52935 25.0999 8.92436 24.9999 8.33438 24.9999C6.47945 24.9999 4.75617 25.7432 3.48288 27.0932C2.54124 28.0932 1.94459 29.3215 1.7446 30.6482L5.40615 28.4515C5.64947 28.3048 5.95113 28.2932 6.20779 28.4198L6.55944 28.5948C8.6827 29.6598 10.001 31.7932 10.001 34.1665C10.001 34.4598 9.84767 34.7298 9.59601 34.8815L5.19616 37.5215C6.14279 38.0415 7.18109 38.3198 8.25272 38.3331C9.82433 38.3765 11.5443 37.5898 12.8142 36.2348C14.3725 34.5731 15.0658 33.0498 14.9958 31.4432C14.9258 29.8498 15.6091 28.2132 16.8691 26.9549L18.579 25.2432Z" fill="#0B7AC9"/>
<path d="M31.6719 0C31.6753 0 31.6786 0 31.6836 0C33.4036 0.00333332 35.0635 0.539996 36.4868 1.55332C36.7151 1.71666 36.8468 1.98332 36.8351 2.26499C36.8251 2.54499 36.6718 2.80165 36.4318 2.94665L30.857 6.29163C31.0086 7.82329 31.9136 9.16662 33.2986 9.88328L38.6434 6.67663C38.8867 6.53163 39.1817 6.5183 39.4367 6.64163C39.69 6.76496 39.8633 7.00663 39.9 7.28496L39.9267 7.48163C39.9633 7.76163 40 8.04162 40 8.33329C40 12.9283 36.2618 16.6666 31.6669 16.6666C30.292 16.7399 29.0687 17.1116 28.2454 17.9332L25.7321 20.4466C25.4072 20.7716 24.8805 20.7716 24.5538 20.4466C24.0972 19.9916 23.7489 19.4282 23.5455 18.8166C23.2872 18.0399 22.7722 17.2832 21.9223 16.4332C21.7673 16.2782 21.5706 16.2749 21.4423 16.3999L20.1707 17.6716C19.8457 17.9966 19.3174 17.9966 18.9924 17.6716L18.1591 16.8382C17.8341 16.5132 17.8341 15.9849 18.1591 15.6599L21.9456 11.8733C22.8789 10.9399 23.3856 9.75495 23.3372 8.62495C23.2489 6.58163 24.0989 4.63164 25.9338 2.66332C27.5121 0.971661 29.6037 0 31.6719 0ZM34.3602 2.24499C33.5169 1.86666 32.6086 1.66832 31.6803 1.66666C31.6803 1.66666 31.6753 1.66666 31.6719 1.66666C30.0637 1.66666 28.4187 2.44332 27.1554 3.79998C25.6205 5.44831 24.9372 6.95829 25.0055 8.55495C25.0738 10.1516 24.3889 11.7916 23.1272 13.0533L21.5306 14.6499C22.0923 14.6066 22.6522 14.8049 23.0739 15.2283C24.1405 16.2949 24.7855 17.2599 25.1288 18.2916C25.1622 18.3899 25.1988 18.4849 25.2438 18.5782L27.0671 16.7549C28.2004 15.6232 29.8153 14.9999 31.6169 14.9999C31.6269 14.9999 31.6369 14.9999 31.6469 14.9999C35.1802 14.9999 38.0684 12.2666 38.3151 8.81495L33.7619 11.5483C33.5169 11.6949 33.2152 11.7066 32.9602 11.5799L32.6086 11.4049C30.487 10.3416 29.167 8.20662 29.167 5.8333C29.167 5.53997 29.3204 5.26997 29.572 5.1183L34.3602 2.24499Z" fill="#0B7AC9"/>
</svg>
