<svg width="40" height="40" viewBox="0 0 40 40" fill="none" xmlns="http://www.w3.org/2000/svg">
<path d="M39.1667 19.1667C38.7067 19.1667 38.3333 19.54 38.3333 20C38.3333 30.1083 30.1083 38.3333 20 38.3333C11.3917 38.3333 6.11833 32.2367 3.095 26.6667H7.5C7.96 26.6667 8.33333 26.2933 8.33333 25.8333C8.33333 25.3733 7.96 25 7.5 25H0.833333C0.373333 25 0 25.3733 0 25.8333V32.43C0 32.89 0.373333 33.2633 0.833333 33.2633C1.29333 33.2633 1.66667 32.8917 1.66667 32.43V27.5133C6.10833 35.6833 12.42 40 20 40C31.0283 40 40 31.0283 40 20C40 19.54 39.6267 19.1667 39.1667 19.1667ZM39.1667 6.73667C38.7067 6.73667 38.3333 7.11 38.3333 7.57V12.4867C33.8917 4.315 27.58 0 20 0C8.97167 0 0 8.97167 0 20C0 20.46 0.373333 20.8333 0.833333 20.8333C1.29333 20.8333 1.66667 20.46 1.66667 20C1.66667 9.89167 9.89167 1.66667 20 1.66667C28.6083 1.66667 33.8817 7.76333 36.905 13.3333H32.5C32.04 13.3333 31.6667 13.7067 31.6667 14.1667C31.6667 14.6267 32.04 15 32.5 15H39.1667C39.6267 15 40 14.6267 40 14.1667V7.57C40 7.11 39.6267 6.73667 39.1667 6.73667Z" fill="#0B7AC9"/>
<path d="M18.75 12.5V22.0833H27.9167" stroke="#0B7AC9"/>
</svg>
