<svg width="30" height="40" viewBox="0 0 30 40" fill="none" xmlns="http://www.w3.org/2000/svg">
<path d="M16.2104 13.0711L15.0113 10.4199L13.8121 13.0711L10.8926 13.4018L13.1269 15.0554L12.2571 18.151L15.0113 16.5437L17.8569 18.151L16.8956 15.3862L19.1069 13.4018L16.2104 13.0711Z" stroke="#0B7AC9"/>
<path d="M15.0001 23.3314C20.3524 23.3314 24.7059 19.2181 24.7059 14.1648C24.7059 9.11154 20.3524 4.99827 15.0001 4.99827C9.64778 4.99827 5.29428 9.11154 5.29428 14.1648C5.29428 19.2181 9.64778 23.3314 15.0001 23.3314ZM15.0001 6.66491C19.3783 6.66491 22.9412 10.0299 22.9412 14.1648C22.9412 18.2998 19.3783 21.6647 15.0001 21.6647C10.6219 21.6647 7.05898 18.2998 7.05898 14.1648C7.05898 10.0299 10.6219 6.66491 15.0001 6.66491ZM24.7306 24.9263C27.9494 22.3264 30 18.4714 30 14.1665C30 6.35491 23.2712 0 15.0001 0C6.72898 0 0.000201929 6.35491 0.000201929 14.1665C0.000201929 18.4714 2.04901 22.3247 5.26781 24.9263L0.0496136 38.8895C-0.0686209 39.2078 0.0284369 39.5661 0.298435 39.7911C0.464316 39.9261 0.67255 39.9978 0.882549 39.9978C1.01667 39.9978 1.15255 39.9678 1.27784 39.9095L7.83191 36.8145L11.8025 39.8161C12.0425 39.9961 12.3601 40.0445 12.6478 39.9511C12.9354 39.8561 13.1489 39.6278 13.216 39.3461L14.4354 34.1662L16.8336 39.4911C16.9413 39.7311 17.1619 39.9095 17.4301 39.9728C17.6966 40.0411 17.9824 39.9778 18.1977 39.8161L22.1683 36.8145L28.7224 39.9095C28.8477 39.9678 28.9835 39.9978 29.1177 39.9978C29.3277 39.9978 29.5359 39.9261 29.7 39.7895C29.97 39.5645 30.0688 39.2061 29.9488 38.8878L24.7306 24.9263ZM1.7649 14.1648C1.7649 7.27157 7.70133 1.66498 15.0001 1.66498C22.2989 1.66498 28.2353 7.27157 28.2353 14.1648C28.2353 21.058 22.2989 26.6646 15.0001 26.6646C7.70133 26.6646 1.7649 21.058 1.7649 14.1648ZM11.7989 37.6795L8.49191 35.1812C8.22191 34.9779 7.85309 34.9429 7.54603 35.0862L2.44077 37.4962L6.74486 25.9796C8.21485 26.8996 9.86837 27.5746 11.6384 27.9596L13.246 31.5279L11.7989 37.6795ZM22.4524 35.0862C22.1453 34.9429 21.7765 34.9779 21.5065 35.1812L18.0036 37.8295L13.6942 28.2679C14.1248 28.3029 14.5589 28.3296 15.0001 28.3296C18.0495 28.3296 20.8854 27.4613 23.2553 25.9796L27.5577 37.4945L22.4524 35.0862Z" fill="#0B7AC9"/>
</svg>
