<svg width="18" height="18" viewBox="0 0 18 18" fill="none" xmlns="http://www.w3.org/2000/svg">
<path d="M8.91506 17.0411C8.84038 17.0411 8.7657 17.0169 8.70346 16.9685C8.37293 16.7126 0.617188 10.6358 0.617188 5.11287C0.617188 2.53914 2.71102 0.445312 5.28474 0.445312C6.70852 0.445312 8.03203 1.08701 8.91506 2.18372C9.79809 1.08701 11.1216 0.445312 12.5454 0.445312C15.1191 0.445312 17.2129 2.53914 17.2129 5.11287C17.2129 10.6358 9.45719 16.7126 9.12666 16.9685C9.06442 17.0169 8.98974 17.0411 8.91506 17.0411ZM5.28474 1.1368C3.09272 1.1368 1.30868 2.92084 1.30868 5.11287C1.30868 9.81015 7.66346 15.2307 8.91506 16.2521C10.1667 15.2307 16.5214 9.81084 16.5214 5.11287C16.5214 2.92084 14.7374 1.1368 12.5454 1.1368C11.1914 1.1368 9.9433 1.81861 9.20549 2.96095C9.07825 3.15803 8.75187 3.15803 8.62463 2.96095C7.88682 1.81861 6.63868 1.1368 5.28474 1.1368Z" fill="black"/>
</svg>
