<svg width="18" height="27" viewBox="0 0 18 27" fill="none" xmlns="http://www.w3.org/2000/svg">
<path d="M9 27C8.87718 27 8.75329 26.9539 8.65377 26.8628C8.30012 26.5388 0 18.8078 0 9.5625C0 4.28963 4.03729 0 9 0C13.9627 0 18 4.28963 18 9.5625C18 18.8078 9.69988 26.5388 9.34624 26.8628C9.24671 26.9539 9.12282 27 9 27ZM9 1.125C4.62071 1.125 1.05882 4.9095 1.05882 9.5625C1.05882 17.2598 7.42871 24.1043 9 25.6748C10.5702 24.1031 16.9412 17.2508 16.9412 9.5625C16.9412 4.9095 13.3793 1.125 9 1.125Z" fill="white"/>
<path d="M9 15.75C5.78965 15.75 3.17647 12.9746 3.17647 9.5625C3.17647 6.15038 5.78965 3.375 9 3.375C12.2104 3.375 14.8235 6.15038 14.8235 9.5625C14.8235 12.9746 12.2104 15.75 9 15.75ZM9 4.5C6.37306 4.5 4.23529 6.77138 4.23529 9.5625C4.23529 12.3536 6.37306 14.625 9 14.625C11.6269 14.625 13.7647 12.3536 13.7647 9.5625C13.7647 6.77138 11.6269 4.5 9 4.5Z" fill="white"/>
<path d="M7.94118 12.375C7.80565 12.375 7.67012 12.3199 7.56635 12.2108L5.44871 9.96075C5.24224 9.74138 5.24224 9.38475 5.44871 9.16538C5.65518 8.946 5.99082 8.946 6.19729 9.16538L7.94118 11.0171L11.8016 6.91537C12.0081 6.696 12.3438 6.696 12.5502 6.91537C12.7567 7.13475 12.7567 7.49138 12.5502 7.71075L8.31494 12.2108C8.21224 12.3199 8.07671 12.375 7.94118 12.375Z" fill="white"/>
</svg>
