<svg width="19" height="19" viewBox="0 0 19 19" fill="none" xmlns="http://www.w3.org/2000/svg">
<path d="M7.78065 5.24665L7.7807 5.24664L7.77824 5.23916C7.47211 4.31145 7.31579 3.33633 7.31579 2.34211C7.31579 1.32602 6.48978 0.5 5.47368 0.5H2.34211C1.32602 0.5 0.5 1.32602 0.5 2.34211C0.5 11.2516 7.74844 18.5 16.6579 18.5C17.674 18.5 18.5 17.674 18.5 16.6579V13.5353C18.5 12.5192 17.674 11.6932 16.6579 11.6932C15.6624 11.6932 14.6892 11.5379 13.7674 11.2335C13.2363 11.0516 12.6501 11.1305 12.2084 11.4094C12.1104 11.4714 12.0252 11.5396 11.9574 11.5955C11.9365 11.6127 11.9178 11.6282 11.9005 11.6427C11.8555 11.6802 11.8198 11.7099 11.78 11.74C10.8599 12.4348 9.65806 12.5235 8.83215 11.8838C8.22742 11.4154 7.7006 10.8992 7.22599 10.31C6.50951 9.42044 6.60306 8.10519 7.35249 7.09025C7.8211 6.60075 7.98475 5.89955 7.78065 5.24665Z" stroke="white"/>
</svg>
