<svg width="24" height="24" viewBox="0 0 24 24" fill="none" xmlns="http://www.w3.org/2000/svg">
<path d="M21.5 20H2.5C1.122 20 0 18.878 0 17.5V6.5C0 5.122 1.122 4 2.5 4H21.5C22.878 4 24 5.122 24 6.5V17.5C24 18.878 22.878 20 21.5 20ZM2.5 5C1.673 5 1 5.673 1 6.5V17.5C1 18.327 1.673 19 2.5 19H21.5C22.327 19 23 18.327 23 17.5V6.5C23 5.673 22.327 5 21.5 5H2.5Z" fill="white"/>
<path d="M11.9998 13.017C11.4498 13.017 10.8988 12.853 10.4188 12.524L2.21779 6.91299C1.98979 6.75699 1.93179 6.44599 2.08679 6.21799C2.24179 5.98999 2.55279 5.93099 2.78179 6.08799L10.9828 11.699C11.5998 12.121 12.3978 12.121 13.0158 11.699L21.2168 6.08799C21.4458 5.93299 21.7568 5.98999 21.9118 6.21799C22.0678 6.44599 22.0098 6.75699 21.7818 6.91299L13.5808 12.524C13.1008 12.853 12.5498 13.017 11.9998 13.017Z" fill="white"/>
<path d="M2.50095 18.0002C2.35695 18.0002 2.21495 17.9392 2.11595 17.8202C1.93895 17.6082 1.96795 17.2922 2.17995 17.1152L8.17995 12.1152C8.39195 11.9392 8.70795 11.9682 8.88495 12.1792C9.06195 12.3912 9.03295 12.7072 8.82095 12.8842L2.82095 17.8842C2.72795 17.9622 2.61395 18.0002 2.50095 18.0002Z" fill="white"/>
<path d="M21.5 18.0002C21.387 18.0002 21.274 17.9622 21.18 17.8842L15.18 12.8842C14.968 12.7072 14.939 12.3922 15.116 12.1792C15.293 11.9682 15.608 11.9392 15.821 12.1152L21.821 17.1152C22.033 17.2922 22.062 17.6072 21.885 17.8202C21.785 17.9392 21.643 18.0002 21.5 18.0002Z" fill="white"/>
</svg>
