<svg width="16" height="16" viewBox="0 0 16 16" fill="none" xmlns="http://www.w3.org/2000/svg">
<path d="M12.6993 15.2939H3.30111C2.0024 15.2939 0.941406 14.2329 0.941406 12.9342V3.53598C0.941406 2.23727 2.0024 1.17627 3.30111 1.17627H12.6993C13.9981 1.17627 15.0591 2.23727 15.0591 3.53598V12.9342C15.0591 14.2387 14.0039 15.2939 12.6993 15.2939Z" stroke="#0B7AC9"/>
<path d="M5.4399 10.801C6.12404 11.4851 7.0343 11.862 8.00253 11.862C8.97076 11.862 9.87522 11.4851 10.5652 10.801C11.2493 10.1169 11.6262 9.2066 11.6262 8.23837C11.6262 7.27014 11.2493 6.35988 10.5652 5.67574C9.88102 4.9916 8.97076 4.61475 8.00253 4.61475C7.0343 4.61475 6.12404 4.9916 5.4399 5.67574C4.75576 6.35988 4.37891 7.27014 4.37891 8.23837C4.37891 9.2066 4.75576 10.1169 5.4399 10.801Z" stroke="#0B7AC9"/>
<path d="M12.3325 4.49551C12.7167 4.49551 13.0282 4.18401 13.0282 3.79976C13.0282 3.4155 12.7167 3.104 12.3325 3.104C11.9482 3.104 11.6367 3.4155 11.6367 3.79976C11.6367 4.18401 11.9482 4.49551 12.3325 4.49551Z" stroke="#0B7AC9"/>
</svg>
