<svg width="15" height="19" viewBox="0 0 15 19" fill="none" xmlns="http://www.w3.org/2000/svg">
<path fill-rule="evenodd" clip-rule="evenodd" d="M6.78447 12.2566C7.30587 12.2734 7.77681 12.963 9.156 12.963C11.7462 12.9798 13.529 10.9951 14.0841 8.38813C16.0183 -0.643873 2.84874 -1.36711 1.50319 6.06706C1.18362 7.81627 1.70502 9.83459 3.06739 10.4905C4.11019 10.9951 4.17747 9.54866 3.8579 8.92635C2.44507 6.16797 4.14383 3.67871 6.36398 2.97229C8.44959 2.29952 9.92969 2.85456 11.0566 4.01509C12.5031 5.51202 11.8471 9.5823 10.1315 10.8774C9.52603 11.3315 8.41595 11.4324 7.84409 10.8942C6.66673 9.80096 8.48323 7.47988 8.21412 5.78113C7.94501 4.09919 5.28754 4.35148 5.15299 6.82393C5.08571 8.08538 5.45574 8.45541 5.16981 9.71686C4.71569 11.7352 3.3365 15.8559 4.31202 17.4706C5.74167 16.7978 6.44808 12.7612 6.78447 12.2566Z" stroke="#0B7AC9"/>
</svg>
