<svg width="16" height="18" viewBox="0 0 16 18" fill="none" xmlns="http://www.w3.org/2000/svg">
<path d="M11.433 1.62655L11.0356 1H8.63088V6.64308L8.62268 12.1551C8.62678 12.1961 8.63088 12.2411 8.63088 12.2821C8.63088 13.6621 7.50839 14.7883 6.12371 14.7883C4.73903 14.7883 3.61654 13.6662 3.61654 12.2821C3.61654 10.902 4.73903 9.77585 6.12371 9.77585C6.41047 9.77585 6.68905 9.82909 6.94714 9.91918V7.16726C6.68086 7.12221 6.40638 7.09764 6.12371 7.09764C3.26832 7.10173 0.941406 9.42776 0.941406 12.2862C0.941406 15.1446 3.26832 17.4706 6.1278 17.4706C8.98729 17.4706 11.3142 15.1446 11.3142 12.2862V5.72987C12.3507 6.76593 13.6903 7.77743 15.1733 8.10094V5.28759C13.5633 4.57504 11.9615 2.47015 11.433 1.62655Z" stroke="#0B7AC9"/>
</svg>
