<svg width="25" height="26" viewBox="0 0 25 26" fill="none" xmlns="http://www.w3.org/2000/svg">
<mask id="mask0_327_2688" style="mask-type:luminance" maskUnits="userSpaceOnUse" x="0" y="0" width="25" height="26">
<path d="M21.25 0.5H3.75C1.67893 0.5 0 2.17893 0 4.25V21.75C0 23.8211 1.67893 25.5 3.75 25.5H21.25C23.3211 25.5 25 23.8211 25 21.75V4.25C25 2.17893 23.3211 0.5 21.25 0.5Z" fill="white"/>
</mask>
<g mask="url(#mask0_327_2688)">
<path d="M0.00244141 25.5V0.5H25.0024L0.00244141 25.5Z" fill="#35A85B"/>
<path d="M12.5024 14.5625L1.56494 25.5H23.4399L12.5024 14.5625Z" fill="#5881CA"/>
<path d="M14.0649 13L25.0024 2.0625V23.9375L14.0649 13Z" fill="#C1C0BE"/>
<path d="M0.00244141 25.5L25.0024 0.5L0.00244141 25.5Z" fill="black"/>
<path fill-rule="evenodd" clip-rule="evenodd" d="M26.2283 1.72581L1.22825 26.7258L-1.22314 24.2744L23.7769 -0.725586L26.2283 1.72581Z" fill="#FADB2A"/>
<path fill-rule="evenodd" clip-rule="evenodd" d="M8.72507 6.74029C8.3023 6.69736 7.87472 6.81157 7.5127 7.07139C7.14964 7.33196 6.87257 7.72529 6.7371 8.19165C6.60156 8.65827 6.61861 9.16175 6.7846 9.61546C6.95047 10.0688 7.25201 10.4379 7.6297 10.6683C8.00627 10.898 8.43933 10.9789 8.85867 10.903C9.27866 10.827 9.67019 10.5961 9.96361 10.2381C10.1425 10.0197 10.2775 9.76286 10.3603 9.48462H8.5484V8.4104H11.5493L11.5265 8.96947C11.4972 9.68502 11.2414 10.3735 10.7945 10.9189C10.347 11.4651 9.73267 11.8365 9.05001 11.96C8.3667 12.0837 7.66709 11.9495 7.07022 11.5853C6.47447 11.2218 6.02076 10.6542 5.77578 9.98454C5.53092 9.31526 5.50641 8.57749 5.70552 7.892C5.90471 7.20625 6.31825 6.6064 6.88635 6.19867C7.45551 5.79019 8.14325 5.60146 8.8336 5.67157C9.52357 5.74163 10.1628 6.06471 10.6473 6.57619L9.86744 7.31492C9.55242 6.98235 9.14822 6.78326 8.72507 6.74029Z" fill="#F2F2F2"/>
<path d="M17.2388 4.65039C17.2388 3.74389 17.5989 2.87452 18.2399 2.23352C18.8809 1.59253 19.7502 1.23242 20.6567 1.23242C21.5632 1.23242 22.4326 1.59253 23.0736 2.23352C23.7146 2.87452 24.0747 3.74389 24.0747 4.65039C24.0747 8.06836 20.6567 8.06836 20.6567 12.3164C20.6567 8.06836 17.2388 8.06836 17.2388 4.65039Z" fill="#DE3738"/>
<path d="M20.6567 6.06641C21.3309 6.06641 21.8774 5.51988 21.8774 4.8457C21.8774 4.17153 21.3309 3.625 20.6567 3.625C19.9826 3.625 19.436 4.17153 19.436 4.8457C19.436 5.51988 19.9826 6.06641 20.6567 6.06641Z" fill="#7D2426"/>
</g>
</svg>
