<svg width="26" height="30" viewBox="0 0 26 30" fill="none" xmlns="http://www.w3.org/2000/svg">
<path fill-rule="evenodd" clip-rule="evenodd" d="M12.9811 30C12.942 30 12.903 29.9928 12.8663 29.9805C-1.8654 24.8534 -0.0513176 7.52668 0.202513 5.56863C0.228705 5.37667 0.337339 5.23376 0.532106 5.21952C9.37751 4.56526 12.6661 0.187736 12.6979 0.143791C12.8367 -0.0474613 13.124 -0.0492191 13.2667 0.146252C13.2983 0.190197 16.5871 4.56772 25.4325 5.22198C25.6278 5.23605 25.7362 5.37562 25.7596 5.56863C26.0159 7.52668 27.83 24.8536 13.0958 29.9805C13.0593 29.9928 13.0201 30 12.9811 30ZM0.871543 5.89822C0.554255 8.66188 -0.627534 24.4458 12.9811 29.2749C26.5921 24.4458 25.4105 8.66188 25.093 5.89822C17.466 5.26083 13.9503 1.98934 12.9811 0.902997C12.0118 1.98934 8.49613 5.26083 0.871543 5.89822Z" fill="#0B7AC9"/>
<path fill-rule="evenodd" clip-rule="evenodd" d="M10.8353 18.5813C10.745 18.5813 10.6546 18.5472 10.5863 18.4788L8.41832 16.3109C8.09242 15.985 8.58584 15.4853 8.91631 15.8129L10.8353 17.7319L17.0487 11.5185C17.3746 11.1926 17.8746 11.6861 17.5467 12.0165L11.0818 18.479C11.0134 18.5474 10.9231 18.5815 10.8352 18.5815L10.8353 18.5813Z" fill="#0B7AC9"/>
<path fill-rule="evenodd" clip-rule="evenodd" d="M12.9809 27.0164C12.9418 27.0164 12.9028 27.0092 12.8661 26.9969C1.04046 22.9683 2.57627 8.93591 2.73659 7.45564C2.7561 7.28724 2.89286 7.15523 3.06126 7.14064C10.0657 6.62314 12.6708 3.16355 12.6952 3.12699C12.8256 2.93996 13.1227 2.93117 13.2616 3.12699C13.286 3.16109 15.8934 6.62067 22.8955 7.13818C23.0914 7.15224 23.1944 7.2897 23.2227 7.4799C23.4254 9.0449 24.8731 22.8927 13.0907 26.9943C13.0591 27.0089 13.0199 27.0162 12.9809 27.0162V27.0164ZM3.40298 7.81934C3.14177 10.1631 2.30926 22.4874 12.9809 26.2911C23.65 22.4874 22.8198 10.1606 22.561 7.81934C16.6407 7.30904 13.8304 4.80659 12.9809 3.88145C12.1313 4.80659 9.32106 7.30922 3.40298 7.81934Z" fill="#0B7AC9"/>
<path fill-rule="evenodd" clip-rule="evenodd" d="M12.9815 24.1967C12.5894 24.1967 12.4937 23.6426 12.8668 23.5131C16.6461 22.1972 19.0142 19.3602 19.903 15.0755C19.9963 14.6227 20.6851 14.7637 20.5915 15.2172C19.9447 18.3398 18.1183 22.4292 13.0988 24.1749C13.0598 24.1895 13.0207 24.1967 12.9815 24.1967Z" fill="#0B7AC9"/>
</svg>
