<svg width="31" height="30" viewBox="0 0 31 30" fill="none" xmlns="http://www.w3.org/2000/svg">
<path d="M28.6808 5.3446H1.50952C0.654123 5.3446 0 5.99873 0 6.85412V21.9493C0 22.8047 0.654123 23.4588 1.50952 23.4588H4.02537V22.4524H1.50952C1.20761 22.4524 1.00634 22.2512 1.00634 21.9493V6.85412C1.00634 6.55222 1.20761 6.35095 1.50952 6.35095H6.54123V7.86046H7.54758V6.35095H28.6808C28.9827 6.35095 29.184 6.55222 29.184 6.85412V21.9493C29.184 22.2512 28.9827 22.4524 28.6808 22.4524H10.0634V23.4588H28.6808C29.5362 23.4588 30.1903 22.8047 30.1903 21.9493V6.85412C30.1903 5.99873 29.5362 5.3446 28.6808 5.3446Z" fill="#0B7AC9"/>
<path d="M7.54736 9.37H6.54102V11.3827H7.54736V9.37Z" fill="#0B7AC9"/>
<path d="M7.54736 12.8922H6.54102V14.9049H7.54736V12.8922Z" fill="#0B7AC9"/>
<path d="M7.54736 16.4143H6.54102V18.427H7.54736V16.4143Z" fill="#0B7AC9"/>
<path d="M5.5349 8.36365H2.0127V9.36999H5.5349V8.36365Z" fill="#0B7AC9"/>
<path d="M4.52855 9.87317H2.0127V10.8795H4.52855V9.87317Z" fill="#0B7AC9"/>
<path d="M21.2096 8.59553L15.165 19.6843L16.0486 20.166L22.0931 9.07717L21.2096 8.59553Z" fill="#0B7AC9"/>
<path d="M15.3463 8.86682C14.0884 8.86682 13.082 9.87316 13.082 11.1311C13.082 12.389 14.0884 13.3954 15.3463 13.3954C16.6042 13.3954 17.6106 12.389 17.6106 11.1311C17.6106 9.87316 16.6042 8.86682 15.3463 8.86682ZM15.3463 12.389C14.6419 12.389 14.0884 11.8355 14.0884 11.1311C14.0884 10.4267 14.6419 9.87316 15.3463 9.87316C16.0507 9.87316 16.6042 10.4267 16.6042 11.1311C16.6042 11.8355 16.0507 12.389 15.3463 12.389Z" fill="#0B7AC9"/>
<path d="M19.1201 18.1755C19.1201 19.4335 20.1265 20.4398 21.3844 20.4398C22.6423 20.4398 23.6487 19.4335 23.6487 18.1755C23.6487 16.9176 22.6423 15.9113 21.3844 15.9113C20.1265 15.9113 19.1201 16.9176 19.1201 18.1755ZM21.3844 16.9176C22.0888 16.9176 22.6423 17.4711 22.6423 18.1755C22.6423 18.88 22.0888 19.4335 21.3844 19.4335C20.6799 19.4335 20.1265 18.88 20.1265 18.1755C20.1265 17.4711 20.6799 16.9176 21.3844 16.9176Z" fill="#0B7AC9"/>
<path d="M27.2211 0.966999C27.4727 0.916682 27.7746 1.11795 27.7746 1.41985L28.1268 4.43888L29.1332 4.33825L28.781 1.31922C28.6803 0.514145 27.9256 -0.0896613 27.0702 0.010973L1.96191 3.33191L2.11287 4.33825L27.2211 0.966999Z" fill="#0B7AC9"/>
<path d="M10.5661 24.4652H10.0629V25.4715H10.5661C11.4215 25.4715 12.0756 26.1256 12.0756 26.981V27.4842C12.0756 28.3396 11.4215 28.9937 10.5661 28.9937C9.71073 28.9937 9.05661 28.3396 9.05661 27.4842V24.3142L7.64773 21.8487L11.5221 15.1565L10.6668 14.6533L7.04392 20.8423L3.4714 14.6533L2.61601 15.1565L6.49043 21.8487L5.03123 24.3142V27.4842C5.03123 28.3396 4.37711 28.9937 3.52172 28.9937C2.66633 28.9937 2.0122 28.3396 2.0122 27.4842V26.981C2.0122 26.1256 2.66633 25.4715 3.52172 25.4715H4.02489V24.4652H3.52172C2.11284 24.4652 1.00586 25.5721 1.00586 26.981V27.4842C1.00586 28.8931 2.11284 30.0001 3.52172 30.0001C4.9306 30.0001 6.03758 28.8931 6.03758 27.4842V24.6161L7.04392 22.855L8.05026 24.6161V27.4842C8.05026 28.8931 9.15724 30.0001 10.5661 30.0001C11.975 30.0001 13.082 28.8931 13.082 27.4842V26.981C13.082 25.5721 11.975 24.4652 10.5661 24.4652Z" fill="#0B7AC9"/>
</svg>
