<svg width="40" height="31" viewBox="0 0 40 31" fill="none" xmlns="http://www.w3.org/2000/svg">
<path d="M26.1239 21.5307L26.0234 21.4727C25.6397 21.2514 25.2104 21.1213 24.7685 21.0923M26.1239 21.5307L22.2842 25.7304C22.0152 25.3785 21.8307 24.9697 21.745 24.5352L21.745 24.5352C21.6592 24.1007 21.6744 23.6524 21.7895 23.2248L21.7895 23.2247C21.9046 22.7971 22.1164 22.4017 22.4086 22.069C22.7008 21.7362 23.0656 21.475 23.4748 21.3057L23.4748 21.3057C23.884 21.1364 24.3267 21.0634 24.7685 21.0923M26.1239 21.5307L26.2241 21.4722M26.1239 21.5307L26.2241 21.4722M24.7685 21.0923L24.7816 20.8927L24.7685 21.0923ZM26.2241 21.4722C26.6587 21.2186 27.152 21.0831 27.6552 21.0794C28.4213 21.0796 29.1559 21.384 29.6976 21.9257L29.6976 21.9257C30.2395 22.4675 30.5439 23.2025 30.5439 23.9688C30.5439 24.7351 30.2395 25.4701 29.6976 26.012C29.1558 26.5537 28.4211 26.8581 27.655 26.8583C27.1516 26.8552 26.6581 26.7176 26.2258 26.4597L26.1228 26.3982L26.0201 26.4601C25.5828 26.7236 25.0823 26.8635 24.5718 26.865C24.1291 26.8638 23.6927 26.7609 23.2961 26.5642L23.2961 26.5642M26.2241 21.4722L23.2961 26.5642M23.2961 26.5642C22.8993 26.3675 22.5531 26.0822 22.2842 25.7304L23.2961 26.5642ZM25.1811 22.4833L25.0685 22.7045C24.8692 23.0961 24.7653 23.5293 24.7653 23.9688C24.7653 24.4082 24.8692 24.8415 25.0685 25.2331L25.1787 25.4497L24.9449 25.5162C24.8247 25.5504 24.7005 25.5689 24.5756 25.5712L24.5737 25.5713C24.3613 25.5733 24.1507 25.5331 23.9539 25.453M25.1811 22.4833L23.4462 22.8378C23.1946 23.0881 23.035 23.4138 22.9896 23.7621H22.9568L22.9558 23.961C22.9547 24.1735 22.996 24.3839 23.077 24.5802L23.077 24.5802C23.158 24.7766 23.2773 24.9548 23.4279 25.1047C23.5783 25.2545 23.7571 25.3729 23.9539 25.453M25.1811 22.4833L24.9409 22.4203M25.1811 22.4833L24.9409 22.4203M23.9539 25.453L24.0294 25.2677L23.954 25.453C23.954 25.453 23.954 25.453 23.9539 25.453ZM24.9409 22.4203C24.8204 22.3888 24.6962 22.3729 24.5716 22.3732M24.9409 22.4203L24.5716 22.3732M27.6603 25.5644L27.6603 25.5644C27.3429 25.5736 27.0299 25.488 26.7615 25.3183L27.6603 25.5644ZM27.6603 25.5644C28.0754 25.5522 28.4693 25.3788 28.7586 25.0809L28.7587 25.0809C29.0479 24.7829 29.2096 24.384 29.2095 23.9688V23.9687M27.6603 25.5644L29.2095 23.9687M27.285 22.4079L27.285 22.4079C27.5958 22.3426 27.9189 22.3713 28.2132 22.4906C28.5074 22.6099 28.7595 22.8142 28.937 23.0776L27.285 22.4079ZM27.285 22.4079C26.9743 22.4734 26.6901 22.63 26.4689 22.8579C26.2477 23.0857 26.0996 23.3743 26.0433 23.6869C25.9871 23.9994 26.0254 24.3216 26.1534 24.6122M27.285 22.4079L26.1534 24.6122M29.2095 23.9687C29.2093 23.6512 29.1144 23.3409 28.937 23.0776L29.2095 23.9687ZM24.5716 22.3732C24.1498 22.3732 23.7452 22.5402 23.4463 22.8377L24.5716 22.3732ZM26.1534 24.6122C26.2813 24.9029 26.493 25.1488 26.7614 25.3183L26.1534 24.6122Z" fill="#0B7AC9" stroke="white" stroke-width="0.4"/>
<path d="M36.7601 0.350952H7.85767C6.99744 0.358086 6.17481 0.704333 5.56844 1.31456C4.96206 1.92473 4.62094 2.74952 4.61918 3.60975V4.56504H3.94168C2.99888 4.56687 2.0952 4.94214 1.42854 5.60881C0.761879 6.27547 0.386554 7.17913 0.384766 8.12195V26.794C0.386554 27.7369 0.761879 28.6405 1.42854 29.3072C2.0952 29.9739 2.99888 30.3492 3.94168 30.351H32.2479C33.1872 30.3438 34.0857 29.9661 34.7479 29.3001C35.4103 28.6339 35.7827 27.7333 35.7845 26.794V26.1165H36.7398C37.6035 26.1148 38.4314 25.7708 39.0422 25.1601C39.6529 24.5493 39.9968 23.7215 39.9986 22.8577V3.60975C39.9968 2.74952 39.6557 1.92473 39.0493 1.31456C38.443 0.704333 37.6203 0.358086 36.7601 0.350952ZM3.94168 6.25881H32.2479C32.7415 6.26057 33.2144 6.45745 33.5634 6.8065C33.9124 7.15549 34.1093 7.62839 34.1111 8.12195V8.71816H2.07853V8.12195C2.07853 7.62784 2.27483 7.15393 2.62424 6.80454C2.97364 6.45508 3.44754 6.25881 3.94168 6.25881ZM2.07853 10.4119H34.1111V11.9634H2.07853V10.4119ZM32.2479 28.6572H3.94168C3.44754 28.6572 2.97364 28.4609 2.62424 28.1115C2.27483 27.7621 2.07853 27.2882 2.07853 26.794V13.6369H34.1111V26.794C34.1111 27.2882 33.9148 27.7621 33.5653 28.1115C33.2159 28.4609 32.742 28.6572 32.2479 28.6572ZM38.3455 22.8781C38.3455 23.2932 38.1806 23.6912 37.8871 23.9847C37.5936 24.2782 37.1955 24.4431 36.7804 24.4431H35.7845V8.12195C35.7827 7.17913 35.4074 6.27547 34.7407 5.60881C34.0741 4.94214 33.1704 4.56687 32.2276 4.56504H6.29263V3.60975C6.29439 3.19526 6.4599 2.79817 6.75299 2.50508C7.04608 2.21199 7.44317 2.04647 7.85767 2.04471H36.7601C37.1752 2.04471 37.5733 2.20962 37.8668 2.50311C38.1603 2.79661 38.3252 3.19471 38.3252 3.60975L38.3455 22.8781Z" fill="#0B7AC9"/>
<path d="M36.7601 0.350952H7.85767C6.99744 0.358086 6.17481 0.704333 5.56844 1.31456C4.96206 1.92473 4.62094 2.74952 4.61918 3.60975V4.56504H3.94168C2.99888 4.56687 2.0952 4.94214 1.42854 5.60881C0.761879 6.27547 0.386554 7.17913 0.384766 8.12195V26.794C0.386554 27.7369 0.761879 28.6405 1.42854 29.3072C2.0952 29.9739 2.99888 30.3492 3.94168 30.351H32.2479C33.1872 30.3438 34.0857 29.9661 34.7479 29.3001C35.4103 28.6339 35.7827 27.7333 35.7845 26.794V26.1165H36.7398C37.6035 26.1148 38.4314 25.7708 39.0422 25.1601C39.6529 24.5493 39.9968 23.7215 39.9986 22.8577V3.60975C39.9968 2.74952 39.6557 1.92473 39.0493 1.31456C38.443 0.704333 37.6203 0.358086 36.7601 0.350952ZM3.94168 6.25881H32.2479C32.7415 6.26057 33.2144 6.45745 33.5634 6.8065C33.9124 7.15549 34.1093 7.62839 34.1111 8.12195V8.71816H2.07853V8.12195C2.07853 7.62784 2.27483 7.15393 2.62424 6.80454C2.97364 6.45508 3.44754 6.25881 3.94168 6.25881ZM2.07853 10.4119H34.1111V11.9634H2.07853V10.4119ZM32.2479 28.6572H3.94168C3.44754 28.6572 2.97364 28.4609 2.62424 28.1115C2.27483 27.7621 2.07853 27.2882 2.07853 26.794V13.6369H34.1111V26.794C34.1111 27.2882 33.9148 27.7621 33.5653 28.1115C33.2159 28.4609 32.742 28.6572 32.2479 28.6572ZM38.3455 22.8781C38.3455 23.2932 38.1806 23.6912 37.8871 23.9847C37.5936 24.2782 37.1955 24.4431 36.7804 24.4431H35.7845V8.12195C35.7827 7.17913 35.4074 6.27547 34.7407 5.60881C34.0741 4.94214 33.1704 4.56687 32.2276 4.56504H6.29263V3.60975C6.29439 3.19526 6.4599 2.79817 6.75299 2.50508C7.04608 2.21199 7.44317 2.04647 7.85767 2.04471H36.7601C37.1752 2.04471 37.5733 2.20962 37.8668 2.50311C38.1603 2.79661 38.3252 3.19471 38.3252 3.60975L38.3455 22.8781Z" stroke="white"/>
</svg>
