<svg width="30" height="30" viewBox="0 0 30 30" fill="none" xmlns="http://www.w3.org/2000/svg">
<path d="M26.1171 17.4048V7.75961C26.1175 7.66848 26.0938 7.57887 26.0483 7.49986C26.0029 7.42085 25.9375 7.35524 25.8585 7.30967L13.3171 0.0692878C13.2385 0.0238966 13.1493 0 13.0586 0C12.9678 0 12.8786 0.0238966 12.8 0.0692878L0.258589 7.30967C0.179667 7.35524 0.114186 7.42085 0.0687765 7.49986C0.0233672 7.57887 -0.000357719 7.66848 4.07679e-06 7.75961V22.2404C-0.000357719 22.3315 0.0233672 22.4211 0.0687765 22.5001C0.114186 22.5792 0.179667 22.6448 0.258589 22.6903L12.8 29.9307C12.8786 29.9761 12.9678 30 13.0586 30C13.1493 30 13.2385 29.9761 13.3171 29.9307L18.0286 27.2104C18.6158 28.0332 19.3845 28.7098 20.2752 29.1879C21.1658 29.666 22.1545 29.9328 23.1648 29.9675C24.175 30.0023 25.1798 29.8042 26.1012 29.3884C27.0226 28.9727 27.836 28.3505 28.4784 27.5701C29.1208 26.7896 29.5751 25.8718 29.806 24.8877C30.0369 23.9035 30.0382 22.8795 29.81 21.8947C29.5817 20.91 29.1299 19.991 28.4895 19.2088C27.8492 18.4267 27.0374 17.8023 26.1171 17.3842V17.4048ZM13.0586 1.11397L24.5656 7.75961L18.794 11.0902L8.10924 3.97393L13.0586 1.11397ZM13.0586 14.4053L1.55152 7.75961L7.1111 4.54798L17.7907 11.6694L13.0586 14.4053ZM1.03435 8.65432L12.5414 15.3V28.5861L1.03435 21.9404V8.65432ZM13.5757 28.5861V15.3L18.2303 12.5952V16.6239C18.2303 16.7611 18.2848 16.8926 18.3817 16.9896C18.4787 17.0866 18.6103 17.1411 18.7474 17.1411C18.8846 17.1411 19.0161 17.0866 19.1131 16.9896C19.2101 16.8926 19.2646 16.7611 19.2646 16.6239V12.0004L25.0569 8.65432V17.0377C24.5091 16.888 23.944 16.8114 23.3761 16.8101C22.2569 16.813 21.157 17.1011 20.1801 17.6472C19.2032 18.1934 18.3817 18.9796 17.7932 19.9315C17.2046 20.8834 16.8685 21.9697 16.8164 23.0877C16.7644 24.2056 16.9983 25.3184 17.4959 26.3209L13.5757 28.5861ZM23.402 28.9636C22.3024 28.9636 21.2275 28.6375 20.3132 28.0266C19.399 27.4157 18.6864 26.5475 18.2656 25.5316C17.8448 24.5157 17.7347 23.3979 17.9492 22.3194C18.1637 21.2409 18.6932 20.2503 19.4707 19.4728C20.2483 18.6953 21.2389 18.1658 22.3173 17.9513C23.3958 17.7367 24.5136 17.8468 25.5295 18.2676C26.5454 18.6884 27.4137 19.401 28.0246 20.3153C28.6355 21.2295 28.9616 22.3044 28.9616 23.404C28.9602 24.8781 28.374 26.2914 27.3317 27.3337C26.2893 28.3761 24.876 28.9622 23.402 28.9636Z" fill="#0B7AC9"/>
<path d="M25.8584 20.7199L22.6519 24.9504L20.9711 22.9748C20.8826 22.8685 20.7556 22.8017 20.6178 22.7891C20.4801 22.7764 20.343 22.8191 20.2367 22.9075C20.1304 22.996 20.0636 23.1231 20.051 23.2608C20.0384 23.3985 20.081 23.5356 20.1695 23.6419L22.2382 26.114C22.2867 26.1708 22.347 26.2163 22.4148 26.2476C22.4827 26.2788 22.5565 26.295 22.6312 26.295C22.7089 26.2926 22.785 26.2728 22.8539 26.237C22.9229 26.2012 22.9829 26.1503 23.0294 26.0881L26.6238 21.3457C26.6911 21.3009 26.747 21.2408 26.787 21.1705C26.827 21.1001 26.8498 21.0213 26.8538 20.9405C26.8578 20.8597 26.8427 20.7791 26.8099 20.7051C26.777 20.6312 26.7273 20.566 26.6646 20.5147C26.602 20.4635 26.5282 20.4277 26.4492 20.4102C26.3702 20.3927 26.2881 20.394 26.2097 20.4139C26.1313 20.4339 26.0587 20.472 25.9976 20.5251C25.9366 20.5782 25.8889 20.645 25.8584 20.7199Z" fill="#0B7AC9"/>
</svg>
