<svg width="24" height="22" viewBox="0 0 24 22" fill="none" xmlns="http://www.w3.org/2000/svg">
<path fill-rule="evenodd" clip-rule="evenodd" d="M11.5663 0C12.4302 0 13.1306 0.700377 13.1306 1.56434V6.78883C13.1306 7.65279 12.4302 8.35317 11.5663 8.35317C10.7023 8.35317 10.002 7.65279 10.002 6.78883V1.56434C10.002 0.700377 10.7023 0 11.5663 0Z" fill="#00A0FF"/>
<path fill-rule="evenodd" clip-rule="evenodd" d="M22.6494 8.05223C22.9164 8.8739 22.4667 9.75643 21.6451 10.0234L16.6763 11.6379C15.8546 11.9048 14.9721 11.4552 14.7051 10.6335C14.4381 9.81182 14.8878 8.9293 15.7095 8.66232L20.6782 7.04786C21.4999 6.78088 22.3824 7.23055 22.6494 8.05223Z" fill="#00A0FF"/>
<path fill-rule="evenodd" clip-rule="evenodd" d="M18.4161 21.0806C17.7171 21.5884 16.7388 21.4335 16.231 20.7345L13.1601 16.5078C12.6523 15.8089 12.8072 14.8306 13.5062 14.3228C14.2052 13.8149 15.1834 13.9699 15.6913 14.6689L18.7621 18.8956C19.27 19.5945 19.115 20.5728 18.4161 21.0806Z" fill="#00A0FF"/>
<path fill-rule="evenodd" clip-rule="evenodd" d="M4.71685 21.0805C4.01789 20.5727 3.86294 19.5944 4.37077 18.8954L7.44165 14.6687C7.94947 13.9698 8.92776 13.8148 9.62672 14.3226C10.3257 14.8305 10.4806 15.8088 9.9728 16.5077L6.90192 20.7344C6.39409 21.4334 5.4158 21.5883 4.71685 21.0805Z" fill="#00A0FF"/>
<path fill-rule="evenodd" clip-rule="evenodd" d="M0.483407 8.05202C0.750385 7.23035 1.63291 6.78068 2.45459 7.04766L7.42338 8.66211C8.24505 8.92909 8.69472 9.81162 8.42774 10.6333C8.16076 11.455 7.27824 11.9046 6.45656 11.6377L1.48777 10.0232C0.666098 9.75622 0.216429 8.8737 0.483407 8.05202Z" fill="#00A0FF"/>
</svg>
