<svg width="22" height="22" viewBox="0 0 22 22" fill="none" xmlns="http://www.w3.org/2000/svg">
<path d="M19.8823 5.14976C19.0829 3.87068 18.0836 2.83143 16.9645 2.032C15.8053 1.23258 14.5262 0.633013 13.0473 0.313246C10.649 -0.286321 8.33069 -0.00652339 6.09228 0.992753C4.85319 1.55235 3.73399 2.3118 2.81466 3.31108C1.61552 4.55019 0.776134 5.9092 0.256507 7.4681V7.50804C0.256507 7.54804 0.216535 7.62798 0.216535 7.66791C-0.303089 9.46664 0.176565 10.4259 0.975988 9.62652C1.01596 9.58652 1.05593 9.54658 1.05593 9.50658L1.0959 9.46664C2.01524 8.30747 3.49417 7.34817 3.49417 7.34817C3.85391 7.10836 4.25362 6.82855 4.65333 6.62868C5.13298 6.34887 5.61264 6.10906 6.05234 5.94918C6.05234 5.94918 6.45203 5.74932 6.57196 5.18972V5.14976C6.6519 4.6701 7.17152 3.35105 8.6105 3.27111C9.05018 3.19117 9.5298 3.27111 9.92955 3.47096C10.649 3.79073 11.1686 4.47024 11.2885 5.26967C11.3685 5.9092 11.2086 6.50874 10.8888 6.98842C10.8888 7.02842 10.8489 7.02842 10.8489 7.06836C10.8489 7.06836 10.8489 7.06836 10.8489 7.10836C10.569 7.4681 10.2093 7.74785 9.72968 7.90779C9.44987 7.98772 9.17006 8.06766 8.93025 8.06766C8.77037 8.1076 8.5705 8.06766 8.41063 8.02766C8.21076 7.98772 8.01088 7.90779 7.85101 7.82785C7.5712 7.70791 7.33139 7.54804 7.25145 7.4681C7.17152 7.38811 7.13152 7.38811 7.05158 7.34817C6.89171 7.30817 6.77177 7.34817 6.69184 7.38811C6.6519 7.4281 6.6119 7.4281 6.57196 7.4681C6.21222 7.74785 5.89244 8.06766 5.57267 8.38741C4.73328 9.26677 4.05377 10.2661 3.73399 10.7457C3.57411 11.0255 3.41423 11.3053 3.25434 11.5851C3.09446 11.8649 2.97455 12.1447 2.85463 12.4245C2.53486 12.7842 2.335 13.2639 2.17512 13.7435C2.17512 13.7835 2.17512 13.7835 2.13515 13.8235C2.13515 13.8635 2.09518 13.9034 2.09518 13.9034C2.09518 13.9434 2.09518 13.9834 2.05521 13.9834C1.05593 17.4209 2.85463 19.4195 4.37353 17.3409C4.45347 17.2211 4.53342 17.0612 4.61336 16.9412C6.21222 14.1832 9.44987 12.1847 9.44987 12.1847C9.64974 12.0647 9.84955 11.9449 10.0494 11.8249C10.0494 11.8249 10.0494 11.8249 10.0894 11.7849C10.649 11.4652 11.2086 11.1854 11.8082 10.9456C12.3278 10.7058 12.8874 10.5059 13.367 10.3859C13.367 10.3859 13.9266 10.2261 14.0466 9.58652C14.1664 9.1069 14.4862 8.38741 15.2857 8.02766C15.4855 7.94772 15.6454 7.86779 15.8452 7.82785C16.0451 7.78785 16.2849 7.74785 16.4848 7.78785C16.6047 7.78785 16.7246 7.78785 16.8445 7.82785C17.8438 8.02766 18.6432 8.82709 18.7631 9.90633C18.923 11.2254 18.0037 12.3845 16.6847 12.5444C16.0451 12.6244 15.4455 12.4645 14.9659 12.1047C14.4063 11.8649 13.9666 12.0248 13.8067 12.1047C13.3271 12.3845 12.8474 12.6644 12.4077 12.9841C11.5683 13.6237 10.8889 14.2632 10.649 14.503C10.0894 15.1026 9.5698 15.7421 9.13012 16.4216C9.09012 16.4616 9.09012 16.5016 9.05018 16.5415C9.05018 16.5415 9.05018 16.5415 9.05018 16.5815C8.6105 17.301 8.09082 18.2603 7.69114 19.3795C7.65114 19.4594 7.6112 19.5393 7.6112 19.6593C7.17152 21.0983 8.13082 21.6978 9.17006 21.8976C9.17006 21.8976 10.0095 22.0576 11.2086 21.9776C11.2885 21.9776 11.3285 21.9776 11.4085 21.9776C11.7282 21.9376 12.008 21.8977 12.3278 21.8577C14.4063 21.4979 16.245 20.6186 17.8438 19.2196C19.8424 17.4209 21.0415 15.2225 21.4012 12.5844C21.8409 9.86633 21.3213 7.38811 19.8823 5.14976Z" fill="#FFC40C"/>
</svg>
