<svg width="32" height="32" viewBox="0 0 32 32" fill="none" xmlns="http://www.w3.org/2000/svg">
<path d="M18.5684 22.3189L23.3493 14.6314C23.365 14.6065 23.378 14.5804 23.3882 14.5533C24.2138 13.207 24.6497 11.669 24.6497 10.0989C24.6497 5.38842 20.8174 1.55615 16.107 1.55615C11.3965 1.55615 7.56393 5.38842 7.56393 10.0989C7.56393 11.6694 8.00048 13.2079 8.82669 14.5552C8.83626 14.5788 8.84742 14.6018 8.86081 14.6241L13.4702 22.338C9.89206 22.8438 7.53906 24.3151 7.53906 26.0998C7.53906 28.3113 11.297 30.0431 16.0942 30.0431C20.8914 30.0431 24.6494 28.3109 24.6494 26.0998C24.6497 24.3068 22.187 22.8026 18.5684 22.3189ZM9.68543 14.1244C8.92331 12.9114 8.52057 11.5195 8.52057 10.0989C8.52057 5.91585 11.9236 2.51279 16.107 2.51279C20.29 2.51279 23.6931 5.91585 23.6931 10.0989C23.6931 11.5201 23.2903 12.912 22.5285 14.1244C22.5126 14.1499 22.4995 14.1764 22.489 14.2038L17.438 22.3246C17.3621 22.441 17.3471 22.4675 17.2543 22.6199L15.9788 24.6709L9.72816 14.2105C9.717 14.1808 9.70265 14.1518 9.68543 14.1244ZM16.0945 29.0864C11.6165 29.0864 8.49601 27.5121 8.49601 26.0998C8.49601 24.818 10.8461 23.61 14.0072 23.236L15.5601 25.8352C15.6459 25.9783 15.7996 26.0667 15.9664 26.068C15.9676 26.068 15.9692 26.068 15.9705 26.068C16.1357 26.068 16.2894 25.9825 16.3768 25.8422L18.0094 23.2172C21.2208 23.5651 23.6928 24.8036 23.6928 26.0998C23.6931 27.5125 20.5725 29.0864 16.0945 29.0864Z" fill="#81939F"/>
<path d="M19.2007 10.0989C19.2007 8.38617 17.8072 6.99268 16.0945 6.99268C14.3818 6.99268 12.9883 8.38617 12.9883 10.0989C12.9883 11.8116 14.3818 13.205 16.0945 13.205C17.8072 13.205 19.2007 11.8116 19.2007 10.0989ZM13.9449 10.0989C13.9449 8.91359 14.9092 7.94931 16.0945 7.94931C17.2797 7.94931 18.244 8.91359 18.244 10.0989C18.244 11.2841 17.2801 12.2484 16.0945 12.2484C14.9089 12.2484 13.9449 11.2841 13.9449 10.0989Z" fill="#81939F"/>
</svg>
