<svg width="220" height="34" viewBox="0 0 220 34" fill="none" xmlns="http://www.w3.org/2000/svg">
<path d="M40.43 33.1132H0V0.0576172H8.04868V25.0645H40.43V33.1132Z" fill="white"/>
<path d="M84.8693 0.178711H44.4453V8.22739H84.8693V0.178711Z" fill="white"/>
<path d="M84.8693 12.6216H44.4453V20.6703H84.8693V12.6216Z" fill="white"/>
<path d="M84.8693 25.064H44.4453V33.1126H84.8693V25.064Z" fill="white"/>
<path d="M160.492 33.1072H148.048C144.231 33.1072 140.569 31.5919 137.868 28.8942C135.167 26.1965 133.647 22.537 133.643 18.7195V0.0576172H141.691V18.7195C141.691 20.4023 142.36 22.0162 143.55 23.2061C144.74 24.396 146.353 25.0645 148.036 25.0645H160.492C162.174 25.0629 163.787 24.3939 164.976 23.2043C166.166 22.0148 166.835 20.4018 166.837 18.7195V0.0576172H174.879V18.7195C174.875 22.5339 173.357 26.1907 170.66 28.8878C167.963 31.585 164.306 33.1024 160.492 33.1072Z" fill="white"/>
<path d="M203.355 3.98974C202.662 2.77756 201.66 1.77019 200.451 1.06958C199.243 0.368975 197.871 0 196.475 0C195.078 0 193.706 0.368975 192.498 1.06958C191.289 1.77019 190.288 2.77756 189.594 3.98974L172.973 33.0721H182.243L196.475 8.16759L206.107 25.0235H196.366L191.707 33.0721H220.001L203.355 3.98974Z" fill="white"/>
<path d="M89.1484 25.0652H117.015C118.698 25.0652 120.312 24.3967 121.501 23.2068C122.691 22.0169 123.36 20.403 123.36 18.7202V14.5724C123.358 12.8901 122.689 11.2772 121.5 10.0876C120.31 8.89799 118.697 8.22899 117.015 8.22739H89.1484V0.178711H117.015C120.831 0.18349 124.489 1.7015 127.187 4.39981C129.886 7.09812 131.404 10.7564 131.409 14.5724V18.7202C131.404 22.5356 129.886 26.1933 127.187 28.8907C124.489 31.588 120.83 33.1047 117.015 33.1079H89.1484V25.0652Z" fill="white"/>
<path d="M98.058 20.6898H89.1484V12.605H98.058C99.1031 12.6453 100.092 13.0889 100.817 13.8425C101.542 14.5962 101.947 15.6015 101.947 16.6474C101.947 17.6933 101.542 18.6985 100.817 19.4522C100.092 20.2059 99.1031 20.6494 98.058 20.6898Z" fill="#FFDD00"/>
</svg>
