<svg width="20" height="20" viewBox="0 0 20 20" fill="none" xmlns="http://www.w3.org/2000/svg">
<g clip-path="url(#clip0_303_466)">
<path d="M4 0H1C0.447715 0 0 0.447715 0 1V4C0 4.55228 0.447715 5 1 5H4C4.55228 5 5 4.55228 5 4V1C5 0.447715 4.55228 0 4 0Z" fill="#0B7AC9"/>
<path d="M4 7.5H1C0.447715 7.5 0 7.94772 0 8.5V11.5C0 12.0523 0.447715 12.5 1 12.5H4C4.55228 12.5 5 12.0523 5 11.5V8.5C5 7.94772 4.55228 7.5 4 7.5Z" fill="#0B7AC9"/>
<path d="M4 15H1C0.447715 15 0 15.4477 0 16V19C0 19.5523 0.447715 20 1 20H4C4.55228 20 5 19.5523 5 19V16C5 15.4477 4.55228 15 4 15Z" fill="#0B7AC9"/>
<path d="M11.5 0H8.5C7.94772 0 7.5 0.447715 7.5 1V4C7.5 4.55228 7.94772 5 8.5 5H11.5C12.0523 5 12.5 4.55228 12.5 4V1C12.5 0.447715 12.0523 0 11.5 0Z" fill="#0B7AC9"/>
<path d="M11.5 7.5H8.5C7.94772 7.5 7.5 7.94772 7.5 8.5V11.5C7.5 12.0523 7.94772 12.5 8.5 12.5H11.5C12.0523 12.5 12.5 12.0523 12.5 11.5V8.5C12.5 7.94772 12.0523 7.5 11.5 7.5Z" fill="#0B7AC9"/>
<path d="M11.5 15H8.5C7.94772 15 7.5 15.4477 7.5 16V19C7.5 19.5523 7.94772 20 8.5 20H11.5C12.0523 20 12.5 19.5523 12.5 19V16C12.5 15.4477 12.0523 15 11.5 15Z" fill="#0B7AC9"/>
<path d="M19 0H16C15.4477 0 15 0.447715 15 1V4C15 4.55228 15.4477 5 16 5H19C19.5523 5 20 4.55228 20 4V1C20 0.447715 19.5523 0 19 0Z" fill="#0B7AC9"/>
<path d="M19 7.5H16C15.4477 7.5 15 7.94772 15 8.5V11.5C15 12.0523 15.4477 12.5 16 12.5H19C19.5523 12.5 20 12.0523 20 11.5V8.5C20 7.94772 19.5523 7.5 19 7.5Z" fill="#0B7AC9"/>
<path d="M19 15H16C15.4477 15 15 15.4477 15 16V19C15 19.5523 15.4477 20 16 20H19C19.5523 20 20 19.5523 20 19V16C20 15.4477 19.5523 15 19 15Z" fill="#0B7AC9"/>
</g>
<defs>
<clipPath id="clip0_303_466">
<rect width="20" height="20" fill="white"/>
</clipPath>
</defs>
</svg>
