<svg width="206" height="177" viewBox="0 0 206 177" fill="none" xmlns="http://www.w3.org/2000/svg">
<path d="M94.2736 172.737C95.1583 170.756 95.6128 168.588 95.5978 166.414L96.191 165.968L96.2152 165.798L96.0469 165.773L95.5502 166.147L95.5013 166.122C92.7957 165.58 89.8476 165.142 86.545 165.536C87.2648 164.977 88.0171 164.482 88.7825 164.075L88.7941 164.071C92.5721 164.56 96.5412 165.54 101.202 167.142C99.3001 169.466 96.9166 171.359 94.2736 172.737ZM81.1698 175.182C84.4686 173.605 87.665 171.814 90.7324 169.826C90.2337 171.664 89.4024 173.334 88.2009 174.9C85.8839 175.376 83.5024 175.484 81.1698 175.182ZM82.4998 170.116C84.8168 169.63 87.3919 169.475 90.5505 169.655C87.4069 171.689 84.1276 173.518 80.7396 175.12L80.5596 175.095C80.9215 173.353 81.5884 171.664 82.4998 170.116ZM72.4978 170.66C73.9777 169.452 75.232 167.797 76.0483 165.944C79.641 165.303 83.1876 164.467 86.6551 163.434L87.3182 163.707C85.6622 164.765 84.2032 166.103 82.9979 167.642C79.8491 169.232 76.5542 170.193 72.4978 170.66ZM67.9942 170.98C66.1637 171.043 64.0416 170.918 61.8439 170.588C63.4868 169.593 64.758 168.258 65.5802 167.238C68.9944 167.001 72.3974 166.584 75.7641 165.997C74.9041 167.875 73.5872 169.539 72.0467 170.713C70.7754 170.844 69.4324 170.931 67.9942 170.98ZM57.5072 162.348C55.8624 162.585 54.1895 162.681 52.5089 162.647C54.2371 161.216 56.215 159.47 56.9271 157.368C58.9662 157.334 61.0029 157.272 63.0376 157.166L63.1133 157.427C63.3369 158.305 63.5813 159.184 63.8597 160.033C61.7377 160.6 59.6462 161.368 57.5581 162.338L57.5072 162.348ZM40.6768 150.963C42.8973 150.143 45.0761 149.11 46.5405 147.246L46.5652 147.169L47.2719 147.373L47.2966 147.974C47.3214 148.575 47.3592 149.159 47.4029 149.716C45.2808 149.993 43.1908 150.453 41.156 151.075L40.6768 150.963ZM18.2625 137.192C22.4081 138.934 26.62 140.574 30.8735 142.102C29.0053 142.714 27.069 143.218 25.1023 143.613C22.5938 141.728 20.2879 139.575 18.2625 137.192ZM19.4675 131.174C23.4729 129.986 27.2717 128.219 30.7693 125.92L30.7769 125.91C31.3832 126.42 31.9723 126.934 32.5485 127.453C32.6412 129.055 32.8211 130.655 33.0942 132.247C31.6881 133.363 30.1213 134.222 28.4275 134.819C27.2982 134.785 26.2164 134.795 25.1724 134.834C23.1868 133.743 21.2826 132.514 19.4675 131.174ZM12.2924 124.769C16.3091 123.963 20.1723 122.566 23.7874 120.61C26.1785 122.246 28.4635 123.969 30.5798 125.74V125.755C27.0671 128.054 23.2531 129.815 19.2269 130.996C16.7297 129.133 14.4087 127.046 12.2924 124.769ZM2.92504 109.872C7.42873 111.449 12.1105 113.614 16.635 116.165C12.9896 116.675 9.77811 116.946 6.34306 117.039C4.91826 114.772 3.66206 112.395 2.59914 109.92L2.92504 109.872ZM10.6629 105.708L11.7675 105.732C14.0071 105.732 16.2352 105.461 18.4198 104.927C18.1602 106.5 17.9442 108.09 17.7812 109.698C16.58 109.359 15.2424 109.076 13.7797 108.892C12.622 107.907 11.5875 106.834 10.6629 105.708ZM2.83031 85.6342C6.05694 87.09 9.25519 87.8707 13.0161 88.5836H13.0389C14.7157 91.4271 16.2958 94.4216 17.7756 97.5569C12.874 98.4536 8.84024 97.9494 5.77086 97.3089C5.03763 95.4984 4.49385 93.753 4.09219 92.1982C3.53512 90.0451 3.13157 87.8615 2.83031 85.6342ZM1.93789 73.45C5.9319 77.8056 9.58865 82.7756 12.8759 88.3128C9.15857 87.6 5.99063 86.8134 2.79054 85.3518C2.2941 81.5532 2.08947 77.6217 1.93789 73.45ZM10.536 76.6759L10.5776 76.7099L11.5724 77.3111L12.0991 77.6275L12.5178 77.8949C13.2624 81.4261 13.4083 84.6676 12.9782 88.0115C9.65496 82.4461 5.96032 77.4475 1.92276 73.0705V73.0555C4.93529 73.8954 7.82471 75.1178 10.536 76.6759ZM10.2423 71.556C12.622 73.251 14.547 74.2836 16.3943 74.8659C16.4057 75.5899 16.4114 76.312 16.4133 77.034L16.3223 77.544L16.2712 77.8303C16.1916 78.2967 16.1177 78.763 16.0552 79.2332C14.6702 78.0919 13.5599 77.3849 12.6277 76.822C12.1711 76.5299 11.7107 76.244 11.2446 75.9728C10.8429 74.5112 10.5113 73.0365 10.2423 71.556ZM9.42379 62.293C11.6633 64.9425 13.8972 66.719 16.076 67.5774L16.1045 67.7138L16.1215 67.7235C16.2617 70.0187 16.3508 72.3125 16.3887 74.6078C14.5394 74.0167 12.6012 72.9589 10.1817 71.2226C9.66441 68.2616 9.41433 65.2666 9.42379 62.293ZM12.9119 44.1392C13.8782 48.6676 14.6475 53.2377 15.2139 57.8384C13.378 56.6689 11.5667 54.9118 10.3048 53.0921C10.8865 50.0307 11.7561 47.0318 12.9119 44.1392ZM18.1545 50.9386L18.2038 51.0788L18.4387 51.5112C17.7888 53.7914 16.7884 55.9066 15.4527 57.8098C14.8881 53.2377 14.1264 48.6904 13.1696 44.1926C15.1022 46.2413 16.7771 48.5123 18.1545 50.9386ZM18.6775 40.064C20.3145 42.4258 22.1409 44.4881 24.1227 46.2074C22.5123 48.1236 21.1481 50.2296 20.0605 52.4909C19.7498 51.8504 19.4201 51.219 19.0716 50.6033C18.4349 47.1381 18.3156 43.5821 18.6775 40.064ZM31.44 25.4967C30.2615 27.3451 28.922 29.1551 27.3608 30.9995C27.7113 26.9375 27.8268 22.8506 27.7075 18.7658L27.8117 18.6445C29.3691 20.7316 30.5855 23.0496 31.44 25.4967ZM33.4939 25.1464C33.7839 23.2054 34.0585 21.3721 34.6914 19.547C35.1556 18.2126 35.8415 16.8495 36.7014 15.534C37.1962 18.3528 38.0542 20.7543 39.5627 23.5844C37.4746 24.7257 35.4796 26.0485 33.6021 27.5382L33.1529 27.8832L33.0923 27.6372C33.2475 26.8011 33.3688 25.9728 33.4939 25.1464ZM39.244 12.3211C39.9813 11.5496 40.7981 10.797 41.7318 10.0409C41.9612 13.0888 42.3138 16.1692 42.7834 19.2112L42.844 19.2947C41.9345 20.6825 41.0212 22.0131 40.1025 23.2922L39.7727 23.4689C38.2342 20.5763 37.38 18.1403 36.8969 15.2424C37.5847 14.2282 38.3729 13.2441 39.244 12.3211ZM47.1278 6.33893C49.002 5.18839 50.7981 4.08153 52.2605 2.56851C50.544 6.07155 48.7915 9.38486 47.0085 12.4919C46.7568 11.1478 46.4367 9.19173 46.3057 6.84311L46.6108 6.65337L47.1278 6.33893ZM54.0852 8.35176C56.0196 6.96442 58.371 5.97499 61.1906 5.36842C59.9246 7.51227 59.0419 9.92883 58.566 12.5696L58.6005 12.6758C56.7054 13.7293 54.8734 14.8876 53.1438 16.1842L53.3897 12.2304C53.5076 11.7243 53.6152 11.2201 53.7064 10.7154C53.8597 9.92883 53.9887 9.14224 54.0852 8.35176ZM66.9179 4.67839C67.7687 4.64053 68.6272 4.62549 69.4852 4.62549C68.407 5.97887 67.4369 7.42104 66.5978 8.92047L66.5939 8.93018L66.59 8.93405C63.9529 9.98753 61.3288 11.1764 58.8124 12.5599C59.2994 9.89098 60.2069 7.45549 61.5107 5.3C63.155 4.97052 64.9511 4.76186 66.9179 4.67839ZM79.4208 4.60997C75.5007 5.80078 71.2134 7.11969 66.9485 8.79382C67.7798 7.33806 68.7368 5.9352 69.7961 4.62549C70.8268 4.62549 71.8576 4.64053 72.8693 4.65947C75.0215 4.69731 77.2308 4.73128 79.4208 4.60997ZM74.0494 10.5111C72.7554 10.3083 69.1971 9.70512 67.1056 8.99277C71.3589 7.32253 75.6355 6.01283 79.542 4.83026C77.7459 6.79942 75.9784 8.70065 74.0494 10.5111ZM71.9652 12.374C70.207 13.8642 68.5966 15.0487 67.0261 16.0042L65.9818 15.6116C63.6269 14.7285 61.3948 13.889 59.0928 12.6758C61.5767 11.3259 64.1629 10.1564 66.7627 9.12914C68.7368 9.85701 72.329 10.4767 73.8239 10.7193C73.2234 11.2822 72.606 11.832 71.9652 12.374ZM60.3418 26.4808C56.9426 26.4672 53.4372 26.4711 50.023 26.4522C54.0741 23.9046 58.2517 21.556 62.5434 19.4257L62.6758 19.4311C62.5448 21.8423 61.7493 24.2404 60.3418 26.4808ZM58.7537 28.6509C56.6545 31.1247 54.1575 32.8139 51.516 34.5991L50.7016 35.1528C48.6969 34.9878 46.6734 35.0218 44.6668 35.2494C44.0168 35.312 43.3916 35.3954 42.7834 35.492C41.1842 35.3328 39.7596 35.0218 38.4558 34.5555C40.1064 33.2744 41.7832 32.0268 43.4881 30.8195L43.5318 30.7855L43.5434 30.7797L43.5623 30.7855C47.2947 31.5624 50.9039 31.8924 54.5834 32.1826H54.5911L54.7105 32.0705L54.6008 31.9453C50.9989 31.6536 47.4596 31.3334 43.8087 30.5919C45.7222 29.2424 47.6682 27.9419 49.6442 26.689C53.1171 26.7045 56.6982 26.7006 60.1861 26.7196C59.7597 27.379 59.2844 28.0201 58.7537 28.6509ZM43.6511 38.9814L43.4391 39.4046C43.4867 40.4619 43.5187 41.3737 43.5487 42.2763L43.5735 42.9508C41.1522 43.4021 38.8254 43.5292 36.4895 43.3487C38.5528 41.7872 40.7389 40.3843 43.0278 39.1809L43.0773 39.0159L42.9143 38.9664C40.5667 40.2043 38.3254 41.645 36.2125 43.256C36.9386 41.0782 38.0906 39.0198 39.5661 37.2433C40.832 36.8759 42.1222 36.5838 43.426 36.3752C45.0402 36.1422 46.7966 36.0359 48.7687 36.0607C46.9178 36.9536 45.2032 37.9333 43.6511 38.9814ZM41.6503 49.8128C37.7608 50.0117 34.0643 49.6856 30.3904 48.8272C32.1828 46.9202 34.1288 45.1631 36.1994 43.5671C36.9745 43.635 37.7457 43.6695 38.5184 43.6695C40.186 43.6695 41.8627 43.5137 43.5832 43.1876C43.6079 43.8495 43.6341 44.5337 43.6666 45.2897C43.2039 46.8707 42.5239 48.3852 41.6503 49.8128ZM34.803 56.6689C34.5076 55.4558 34.1589 54.2616 33.7553 53.0824L33.4861 52.7922L33.0942 52.8019C31.5291 53.5337 30.0285 54.4814 28.6075 55.596C27.5597 55.5145 26.5915 55.3874 25.3808 55.1161C26.8208 52.9669 28.4351 50.9294 30.199 49.0315C33.2436 49.7541 36.296 50.1083 39.4642 50.1083C40.1346 50.1083 40.8112 50.0894 41.4932 50.0593C39.86 52.6311 37.5847 54.889 34.803 56.6689ZM33.3838 78.6703L33.3804 78.6664L33.3557 78.6359L33.3178 78.598L33.2722 78.564L33.2514 78.549L33.183 78.5146H33.181L33.132 78.4956L32.7891 78.5204L32.7605 78.5335C32.0407 78.9372 31.2979 79.4603 30.5571 80.0669C29.4506 80.9316 28.4559 81.8526 27.5597 82.8139C26.2088 83.3729 24.7953 83.75 23.346 83.9358C23.6074 81.5911 24.047 79.1745 24.676 76.6609C28.1357 76.1417 31.4571 75.046 34.5532 73.4005C34.2763 75.1765 33.8863 76.9375 33.3838 78.6703ZM38.0072 104.239C36.9348 106.096 36.0175 108.018 35.2599 109.988C33.2019 111.244 31.008 112.153 28.723 112.691C29.0224 109.633 29.3426 106.572 29.6856 103.511C32.825 102.248 35.7163 100.711 38.5184 98.8176C38.6984 100.04 38.8521 101.269 38.9695 102.501C38.6363 103.079 38.3157 103.657 38.0072 104.239ZM43.799 117.761C44.449 122.483 45.3545 127.423 47.3461 132.179C46.0254 133.062 43.653 134.042 42.0539 134.188C42.4351 131.491 42.7761 128.782 43.0734 126.075L44.8676 125.506L44.9491 125.357L44.7977 125.274L43.102 125.814C43.3028 123.969 43.4867 122.129 43.6457 120.296L43.5337 120.169H43.5264L43.4066 120.277C43.2456 122.11 43.0637 123.948 42.8629 125.789C38.9598 122.741 37.1011 119.518 35.1367 116.109L34.7404 115.424C35.4966 112.298 36.5991 109.266 38.028 106.407C39.2629 110.299 40.9989 114.012 43.1966 117.456L43.2989 117.51L43.3635 117.491L43.3994 117.322C41.1672 113.826 39.4148 110.056 38.1832 106.102C39.4657 103.589 41.0023 101.219 42.7814 99.0602C42.8061 105.331 42.9391 111.499 43.799 117.761ZM48.0829 140.161C46.1369 138.91 43.9033 137.896 41.6241 137.105C41.7604 136.216 41.8909 135.323 42.018 134.436C43.6399 134.306 46.069 133.31 47.4407 132.408C48.0164 133.762 48.6834 135.1 49.4604 136.421C49.2349 136.94 48.6761 138.288 48.0829 140.161ZM54.1022 141.715C57.0013 144.194 60.0003 146.755 61.6509 150.099H61.6528L61.7227 150.251L61.7207 150.338L61.7566 150.618C60.4305 150.264 59.0967 149.993 57.7628 149.794L58.3065 149.585C59.0836 149.29 59.8567 148.998 60.6333 148.708L60.7036 148.552L60.5479 148.478C59.7733 148.774 58.9963 149.066 58.2231 149.362L57.2739 149.722C56.4023 149.604 55.5311 149.517 54.6595 149.464C54.7182 148.387 54.7769 147.315 54.8375 146.238C55.6713 146.223 57.1507 145.097 57.2171 145.047L57.2399 144.879L57.0711 144.854C56.6448 145.178 55.4705 145.98 54.8506 145.999C54.8924 145.224 54.9341 144.447 54.9777 143.666L54.8657 143.539H54.8584L54.7391 143.656C54.6974 144.407 54.6557 145.159 54.6139 145.912C51.8191 144.316 50.315 142.223 49.1383 140.166C49.3542 139.401 49.6083 138.643 49.8998 137.899C51.2109 139.249 52.6796 140.502 54.1022 141.715ZM71.1353 157.421L69.9819 158.369L69.0341 155.579C69.8432 156.078 70.6808 156.582 71.5466 157.088L71.1353 157.421ZM74.5912 158.805C73.091 158.762 71.6204 158.805 70.173 158.93L70.0648 158.612L71.2871 157.611L71.7702 157.213C72.6739 157.738 73.6119 158.267 74.5912 158.805ZM76.0861 165.695L76.0788 165.686C73.4659 163.279 70.353 161.493 66.9766 160.445C71.2721 159.683 75.7262 159.717 80.5921 160.488C81.0864 160.75 83.8317 162.211 86.3064 163.284C82.962 164.27 79.5459 165.074 76.0861 165.695ZM65.5176 167.005C63.0565 165.58 60.0459 164.41 57.0998 163.716C57.5751 163.483 58.0529 163.26 58.5282 163.051L59.3809 162.687C61.6354 161.751 63.8922 161.057 66.1904 160.596C69.7617 161.552 73.0304 163.25 75.7869 165.748C72.3916 166.346 68.9604 166.768 65.5176 167.005ZM56.7568 163.881C59.6462 164.532 62.619 165.657 65.0801 167.036C60.5178 167.331 55.94 167.307 51.4195 166.958C53.2194 165.779 54.9928 164.755 56.7568 163.881ZM46.5046 156.976C45.0684 154.855 43.5226 153.219 41.8002 152.012C44.6726 151.2 47.6454 150.706 50.6027 150.541C53.606 152.933 55.5879 155.097 56.6433 157.131C53.265 157.179 49.8809 157.126 46.5046 156.976ZM41.499 152.093C43.2213 153.268 44.7691 154.87 46.2014 156.961C41.7206 156.758 37.2529 156.373 32.8173 155.822C35.4927 154.233 38.435 152.988 41.499 152.093ZM39.4148 144.748C38.7367 141.37 37.5672 138.895 36.3338 136.775C38.7231 137.299 41.2846 138.076 43.6889 139.08C44.9432 141.526 45.8095 144.126 46.2679 146.833C43.977 146.17 41.692 145.476 39.4148 144.748ZM33.6321 134.878L33.7117 135.212C33.2019 135.143 32.7096 135.086 32.2357 135.043C31.1369 134.944 30.0872 134.878 29.0717 134.838C30.5382 134.26 31.9025 133.485 33.1432 132.514C33.2853 133.305 33.4464 134.095 33.6321 134.878ZM23.8802 120.383C23.5449 117.776 22.8761 115.011 21.8871 112.143C24.5756 113.191 27.1637 114.532 29.5927 116.128C30.1876 119.291 30.5173 122.411 30.5723 125.419C28.4824 123.678 26.2334 121.988 23.8802 120.383ZM17.1541 116.18C16.2504 113.808 15.1173 111.754 13.7039 109.92C16.3849 110.342 19.0317 111.051 21.5915 112.028C22.5824 114.865 23.2626 117.612 23.6112 120.199C21.5252 118.787 19.3595 117.437 17.1541 116.18ZM17.6543 81.9264C18.3497 82.6145 19.0109 83.2991 19.6361 83.9795C19.6324 88.8073 18.7741 94.3688 17.9404 97.3429C16.4531 94.1984 14.8634 91.1937 13.1772 88.3468C13.649 84.9403 13.5315 81.6595 12.8039 78.088C14.5091 79.2293 16.131 80.5143 17.6543 81.9264ZM19.6342 53.8748L19.6835 53.9622C20.4262 55.6261 21.0344 57.3434 21.5024 59.0952C20.197 62.0654 18.4595 64.812 16.3356 67.2669C16.1424 64.2301 15.8638 61.1915 15.4982 58.1684C16.8775 56.2516 17.9158 54.1155 18.5979 51.8125C18.9275 52.4322 19.3823 53.3061 19.6342 53.8748ZM37.7588 25.8306C37.6318 28.729 37.6793 31.6595 37.9029 34.5555L37.9519 34.6428C36.455 35.8123 34.983 37.0162 33.5337 38.2482C34.0265 35.1868 33.96 32.0574 33.3804 29.0245L33.3707 28.9658L34.2801 28.2321C35.4093 27.3737 36.571 26.5735 37.7588 25.8306ZM43.1209 19.3136C46.0195 18.3339 48.6664 17.0921 51.4044 15.4277C51.2187 15.9358 51.0217 16.4458 50.8093 16.9461C50.3999 17.8884 49.9416 18.8002 49.4318 19.6834L49.2615 19.7309C46.2601 20.5175 43.3445 21.6283 40.5764 23.0462C41.4286 21.8481 42.2775 20.6044 43.1209 19.3136ZM43.005 19.0521C42.5355 16.0003 42.1868 12.9146 41.9593 9.85701C43.1263 8.93018 44.4757 7.98781 46.0743 6.98917C46.215 9.40961 46.556 11.4152 46.8097 12.738L46.8363 12.7933C45.5723 14.9808 44.2952 17.0713 43.005 19.0521ZM53.0279 8.75937C52.9561 9.37177 52.8634 9.97833 52.7514 10.5791C52.4521 12.0974 52.0427 13.6027 51.531 15.0638C48.8104 16.7413 46.1922 17.9942 43.3368 18.9841C44.6139 17.0145 45.8813 14.9371 47.1317 12.7588C49.3202 11.8417 51.3001 10.4975 53.0279 8.75937ZM53.0089 1.72319C53.2912 3.91653 53.3068 6.15891 53.0715 8.37068C51.3928 10.1127 49.4643 11.4719 47.3306 12.4138C49.2048 9.13835 51.0426 5.63968 52.8387 1.92798L53.0089 1.72319ZM49.5666 26.4522C49.9095 24.4714 50.1671 22.4586 50.3451 20.4642C54.1726 19.547 58.1246 19.1792 62.0617 19.3971C57.7798 21.5371 53.6118 23.8954 49.572 26.4522H49.5666ZM53.1438 16.4856L53.1758 16.5045L57.596 18.3926C55.1426 18.5231 52.7611 18.8531 50.7753 19.3326C51.0251 18.8342 51.2623 18.3242 51.4879 17.8108C52.0277 17.3537 52.5811 16.9121 53.1438 16.4856ZM43.5735 30.4594C43.6836 27.8492 43.7951 25.2332 43.9072 22.6235C45.633 21.886 47.4048 21.2605 49.2179 20.7446L50.0987 20.5229C49.9168 22.5304 49.6515 24.5607 49.3052 26.5488L49.3125 26.6114C47.3704 27.8492 45.4549 29.1308 43.5735 30.4594ZM38.1546 34.4836L38.1396 34.4967C37.916 31.5663 37.8723 28.6019 38.0072 25.6753C39.828 24.5549 41.7168 23.5693 43.6627 22.7293C43.5507 25.3662 43.4372 28.0011 43.3271 30.6356C41.5746 31.8831 39.8489 33.1623 38.1546 34.4836ZM36.8513 37.1617C35.6897 37.6072 34.5547 38.123 33.4561 38.7048L33.4711 38.6175C35.0286 37.2869 36.6146 35.9923 38.2269 34.7301C39.3692 35.1528 40.6065 35.4541 41.967 35.638C40.1404 35.9923 38.4748 36.5062 36.8513 37.1617ZM25.2179 54.9269C24.9356 52.3109 24.7689 49.657 24.7234 47.0168L25.2103 46.4291C26.8416 44.5565 28.7193 42.879 30.8186 41.4324C30.127 43.8684 29.8315 46.3854 29.9451 48.9238L29.9508 48.9485C28.2209 50.8114 26.637 52.815 25.2179 54.9269ZM31.6769 63.0209C30.7295 63.5061 29.7803 63.9967 28.8216 64.4917C30.2123 61.1478 31.7356 57.8631 33.2402 54.6464C33.6738 56.0187 34.0129 57.5181 34.0168 57.537L34.0226 57.5463C34.3141 58.837 34.5474 60.1433 34.7157 61.453C33.6928 61.9878 32.6829 62.507 31.6769 63.0209ZM26.529 70.4797L26.6901 70.0134C27.302 68.2772 27.9708 66.5482 28.6776 64.8406C29.7234 64.2927 30.7541 63.7638 31.7851 63.2388C32.7683 62.7346 33.7495 62.2304 34.7463 61.7107C34.9737 63.5649 35.078 65.4316 35.0572 67.3067C32.3322 68.6634 29.4696 69.7329 26.529 70.4797ZM22.9822 83.9795L22.9764 83.9834C20.9227 81.0374 19.2458 77.8454 17.984 74.4831C18.613 72.1155 19.4656 69.8144 20.5172 67.6114C21.4494 70.7034 22.7264 73.6868 24.3312 76.4959L24.2952 76.5983L24.4164 76.7007H24.4183C23.795 79.2085 23.3573 81.6216 23.0997 83.9644L22.9822 83.9795ZM24.4051 86.9628L23.9541 87.6567L23.13 86.5363C23.1716 85.7594 23.2342 84.9747 23.3175 84.1823C24.6457 84.0173 25.9416 83.6971 27.1883 83.221C26.1197 84.4249 25.1989 85.6817 24.4051 86.9628ZM30.8527 93.7753C31.4533 89.0596 32.1033 84.3565 32.8042 79.6806C34.3519 83.0221 35.6237 86.4625 36.6219 89.9864C34.786 91.647 32.8498 92.9227 30.8527 93.7753ZM28.4862 112.638C25.1326 110.498 22.0993 107.907 19.4561 104.923C19.8332 102.497 20.3182 100.05 20.9871 97.635C21.2125 96.8634 21.455 96.0958 21.7127 95.3393C23.884 98.3852 26.3604 100.982 29.4487 103.461C29.1058 106.525 28.7837 109.586 28.4862 112.638ZM33.2325 117.054L33.1602 117.365C32.2245 116.651 31.2638 115.976 30.2786 115.341C29.7197 114.958 29.1493 114.588 28.5715 114.239L28.6984 112.943C30.9398 112.424 33.0962 111.555 35.1212 110.352C34.301 112.541 33.668 114.783 33.2325 117.054ZM34.9131 135.397L34.7691 135.367C34.0852 132.611 33.6816 129.783 33.5623 126.953C36.3964 130.602 39.0262 132.984 41.7793 134.406C41.6542 135.28 41.5256 136.154 41.3908 137.027C39.1873 136.275 36.9556 135.737 34.9131 135.397ZM52.9275 149.396C51.1066 148.522 49.5477 147.144 48.2745 145.29C48.371 143.669 48.6324 142.058 49.0491 140.496C50.2408 142.54 51.7852 144.602 54.5989 146.179C54.5402 147.271 54.4796 148.357 54.4204 149.449C53.9223 149.42 53.4241 149.405 52.9275 149.396ZM65.3284 159.673L64.8681 159.77L64.631 159.082C64.29 158.043 64.0077 157.014 63.7593 155.966C65.5957 157.063 67.3879 157.956 69.832 158.669L69.9286 158.951C68.3711 159.097 66.8422 159.334 65.3284 159.673ZM23.4179 88.6234L23.1356 89.2299C22.5501 90.3843 22.0538 91.5387 21.6331 92.6645C20.6252 95.1879 19.8863 97.7752 19.3197 100.361C18.92 99.4547 18.5107 98.556 18.0957 97.6728C18.9427 94.805 19.8389 89.177 19.8749 84.241C21.2334 85.7346 22.4175 87.202 23.4179 88.6234ZM23.1773 91.4912C23.8935 89.9141 24.8086 88.1949 25.9663 86.5023C27.2812 89.1222 28.8311 91.6411 30.5798 94.0048C30.1914 97.0624 29.8257 100.118 29.4809 103.176C26.4172 100.702 23.9636 98.1047 21.8075 95.0568C22.2243 93.8495 22.6809 92.6645 23.1773 91.4912ZM48.405 149.595C48.3215 148.911 48.2687 148.226 48.2439 147.532L48.2362 147.159L48.2347 146.998L48.2328 146.571L48.2556 145.679C49.4129 147.296 50.7943 148.537 52.3837 149.392C51.0499 149.386 49.7218 149.458 48.405 149.595ZM28.3441 114.103C25.3372 112.302 22.1182 110.911 18.7911 109.969C18.9673 108.411 19.1682 106.824 19.4107 105.228C22.0632 108.198 25.1023 110.78 28.4597 112.905L28.3441 114.103ZM32.5388 79.8301C31.853 84.4152 31.2145 89.031 30.6234 93.654C28.9201 91.3301 27.4082 88.8509 26.1235 86.2747C26.4551 85.7992 26.8037 85.327 27.1751 84.8573C28.0864 83.7558 29.0906 82.6698 30.1175 81.7221C30.8659 81.049 31.673 80.4177 32.5388 79.8301ZM28.5563 64.5048C28.1546 62.1867 27.9405 59.8192 27.9197 57.4594C29.3824 56.14 31.0744 54.9458 33.0486 54.068L33.132 54.3106C31.5745 57.6394 29.9944 61.0415 28.5563 64.5048ZM26.2865 70.4492C25.2141 67.6308 24.4752 64.6907 24.0924 61.7054C25.1023 60.3709 26.2846 58.9681 27.6829 57.6792C27.7151 60.071 27.9443 62.473 28.3687 64.8251L28.399 64.8838C27.7132 66.554 27.0614 68.2374 26.4646 69.9358L26.2865 70.4492ZM20.6725 67.2911C21.3963 65.8164 22.2091 64.3893 23.111 63.0209L23.1963 62.9335L23.8897 61.9781C24.2876 64.9372 25.0303 67.8487 26.1027 70.6442L26.0951 70.7165L26.1671 70.8C25.5191 72.6973 24.9697 74.536 24.5131 76.3309C22.8874 73.4728 21.599 70.4361 20.6725 67.2911ZM24.4884 47.3123C24.5415 49.938 24.7139 52.5841 25.0019 55.1787L25.0171 55.2282C24.1341 56.5627 23.3194 57.9408 22.5767 59.3567C22.1353 57.6147 21.5252 55.63 20.646 53.5924C21.7032 51.3156 22.9935 49.2101 24.4884 47.3123ZM26.2581 39.6661C28.6586 38.0396 30.8583 36.1422 32.8158 34.0115C32.8231 35.5793 32.7115 37.1317 32.486 38.6709L32.3836 39.1959C29.7121 40.7332 27.3096 42.68 25.2236 44.9603C25.612 43.2031 25.9568 41.4363 26.2581 39.6661ZM16.9533 79.9077C17.0347 79.1988 17.1352 78.4956 17.2545 77.7964C17.4269 76.8162 17.6372 75.8457 17.8817 74.8849C19.189 78.2967 20.9245 81.5285 23.0447 84.5026C22.9879 85.0844 22.9405 85.6682 22.9045 86.2446C21.5062 84.44 19.9772 82.7663 18.3345 81.2422C17.8874 80.8006 17.4288 80.3532 16.9533 79.9077ZM31.4836 141.992L27.3077 135.849C28.8292 135.867 30.4339 135.955 32.1503 136.114C33.3367 136.222 34.6439 136.421 36.0137 136.707C37.2607 138.823 38.4544 141.287 39.1514 144.665C36.5899 143.84 34.0376 142.976 31.5026 142.073L31.4836 141.992ZM68.716 155.38L69.7374 158.388C67.3123 157.664 65.5312 156.758 63.6817 155.636C63.4945 154.826 63.3238 153.996 63.1569 153.138C63.0546 152.609 62.9581 152.084 62.8674 151.576L62.8708 151.555L62.8916 151.411C64.7241 152.774 66.6356 154.078 68.716 155.38ZM42.8328 126.075C42.537 128.769 42.196 131.466 41.8152 134.15C39.0946 132.723 36.3833 130.234 33.5487 126.542L33.5395 126.284L33.5298 125.846V125.793C33.507 122.426 33.8936 119.048 34.659 115.767L34.9282 116.234C36.9251 119.693 38.8143 122.965 42.8328 126.075ZM38.4786 98.556C35.6994 100.444 32.8289 101.978 29.7178 103.234C30.0626 100.171 30.4282 97.1099 30.8167 94.0524C32.8498 93.1993 34.8277 91.9216 36.6961 90.248C37.4576 92.9698 38.0523 95.7469 38.4786 98.556ZM34.5964 73.1088C31.5101 74.7635 28.1963 75.8762 24.7404 76.4085C25.2065 74.5796 25.7693 72.6973 26.4343 70.7563C29.407 70.0095 32.3021 68.9405 35.0533 67.5774C35.0208 69.4258 34.8695 71.2755 34.5964 73.1088ZM25.2596 55.3398C26.4153 55.596 27.3475 55.7266 28.3308 55.8158C26.3964 57.3779 24.623 59.2752 23.0504 61.4244C22.9405 60.8901 22.8135 60.3176 22.6638 59.711C23.4445 58.2082 24.3027 56.7407 25.2387 55.3287L25.2596 55.3398ZM35.9191 43.4797C33.8727 45.0665 31.9515 46.8139 30.1782 48.702C30.0891 46.1637 30.4074 43.6539 31.1312 41.2243C31.6483 40.8734 32.1731 40.5342 32.7149 40.214L32.9196 40.1019L33.0486 40.0543C34.6517 39.1843 36.1917 38.4375 37.7908 37.8309C38.24 37.6664 38.693 37.5165 39.1494 37.3762C37.7191 39.162 36.6069 41.2243 35.9113 43.3924L35.9191 43.4797ZM58.841 12.8161C61.2076 14.0782 63.4868 14.9333 65.8969 15.8353L66.7646 16.1595C65.1446 17.1208 63.5566 17.8297 61.8818 18.3679C60.6522 18.315 59.394 18.315 58.1455 18.3679L53.3616 16.3245C55.097 15.0298 56.9368 13.8696 58.841 12.8161ZM52.975 16.3114L51.6979 17.3255C52.2436 16.0726 52.7024 14.778 53.0715 13.4566L52.9032 16.1939L52.975 16.3114ZM32.4084 29.0531C32.6543 30.5958 32.7911 32.135 32.8139 33.6631C30.8754 35.7991 28.6908 37.7004 26.313 39.3303C26.7488 36.7051 27.0841 34.0668 27.3229 31.4168C28.9428 29.5229 30.3278 27.675 31.5404 25.7869C31.9005 26.854 32.1901 27.9458 32.4084 29.0531ZM27.0974 31.2329C25.5798 29.4452 24.2554 27.5004 23.1489 25.4419C24.369 23.1675 25.8166 21.0178 27.4745 19.0429C27.5824 23.1141 27.4555 27.1859 27.0974 31.2329ZM23.0106 25.6996C24.1417 27.7774 25.4945 29.7374 27.0406 31.5323L27.0671 31.5571C26.8264 34.207 26.4873 36.8454 26.0478 39.4706C23.8613 37.433 22.0348 34.8854 20.4679 31.6973C21.1481 29.6311 21.9988 27.6217 23.0106 25.6996ZM20.3637 32.0268C21.9457 35.1926 23.7912 37.7251 25.9966 39.7569C25.6783 41.6261 25.3069 43.4856 24.8882 45.3334L24.2781 46.0273C22.2489 44.2663 20.3827 42.1395 18.7191 39.7001C19.009 37.0996 19.5642 34.5215 20.3637 32.0268ZM10.2423 53.4216C11.5553 55.253 13.3989 57.0042 15.2538 58.1489C15.6232 61.1973 15.9055 64.2583 16.0988 67.3256C13.918 66.4458 11.6766 64.6378 9.42568 61.9252C9.45599 59.0607 9.72883 56.2176 10.2423 53.4216ZM16.6331 74.8504L16.6501 74.8164L16.6312 74.716C16.5914 72.3465 16.5005 69.9755 16.3546 67.6114C18.505 65.1662 20.2652 62.4294 21.599 59.4684C21.8605 60.4976 22.0727 61.5365 22.2338 62.5847C19.6513 66.4419 17.7074 71.0082 16.6464 75.8855L16.6331 74.8504ZM5.88077 97.5797C7.73755 97.9591 9.93914 98.2847 12.4648 98.2847C14.1302 98.2847 15.9377 98.1426 17.8817 97.7786C18.3421 98.7608 18.793 99.7594 19.2345 100.768L19.2061 100.899C18.9238 102.146 18.6775 103.403 18.4634 104.671C15.8392 105.321 13.1431 105.586 10.4564 105.461C8.44047 102.952 6.9626 100.201 5.88077 97.5797ZM13.3572 109.872C14.7706 111.664 15.9093 113.671 16.8206 115.991C12.406 113.502 7.83985 111.377 3.43283 109.794C6.72576 109.347 10.0661 109.391 13.3572 109.872ZM6.49275 117.272C9.98085 117.18 13.2454 116.893 16.9798 116.36C19.2307 117.64 21.438 119.014 23.5638 120.455C19.9582 122.396 16.1064 123.774 12.1029 124.567C10.0244 122.309 8.14489 119.869 6.49275 117.272ZM30.8186 125.624C30.7769 122.614 30.4567 119.485 29.8712 116.311C30.936 117.024 31.9684 117.792 32.9671 118.601C32.533 121.412 32.3856 124.259 32.5258 127.102C31.9704 126.608 31.4021 126.113 30.8186 125.624ZM17.9196 136.785C20.7331 136.12 23.6718 135.814 27.016 135.843L31.1653 141.952C26.6938 140.35 22.2716 138.624 17.9196 136.785ZM25.3619 143.806C27.3702 143.393 29.3426 142.869 31.2449 142.234C33.8329 143.16 36.4361 144.043 39.0529 144.883C37.2015 146.226 35.0096 147.218 32.2245 147.959C29.8219 146.795 27.518 145.402 25.3619 143.806ZM46.3188 147.14C44.8186 149.022 42.5389 150.036 40.2524 150.867C37.6225 150.217 35.0417 149.29 32.5597 148.114C35.3167 147.358 37.4935 146.348 39.3372 144.975C41.6542 145.718 43.9809 146.422 46.3115 147.096L46.3188 147.14ZM46.5254 146.907C46.084 144.229 45.2483 141.651 44.0357 139.224L44.9398 139.628C45.9249 140.098 46.8853 140.614 47.8253 141.165C47.5372 142.54 47.3859 143.821 47.3156 145.013C47.268 145.713 47.253 146.416 47.2661 147.119L46.5254 146.907ZM33.1243 156.108C37.4649 156.64 41.838 157.004 46.2203 157.203C45.7887 157.763 44.2554 159.561 41.8041 160.663C38.727 159.567 35.7847 158.034 33.1243 156.108ZM42.1281 160.775C44.7405 159.533 46.279 157.539 46.5123 157.219C49.0758 157.33 51.6431 157.387 54.2065 157.387C55.0286 157.387 55.8493 157.384 56.6695 157.374C55.9269 159.465 53.9509 161.148 52.1451 162.638C48.7726 162.537 45.3773 161.897 42.1281 160.775ZM56.9121 157.131C55.8813 155.079 53.9281 152.91 50.9631 150.522C53.1152 150.419 55.2542 150.497 57.3365 150.755C58.9206 150.992 60.4514 151.346 61.9123 151.818C62.1607 153.539 62.5147 155.247 62.9712 156.927C60.9534 157.029 58.9337 157.097 56.9121 157.131ZM51.3758 167.195C53.8238 167.384 56.2888 167.481 58.7596 167.481C60.9214 167.481 63.089 167.403 65.2528 167.263C64.3981 168.292 63.1079 169.593 61.467 170.529C57.9733 169.972 54.3239 168.884 51.3758 167.195ZM90.8876 169.431C87.663 169.232 85.0293 169.359 82.6686 169.835C83.0833 169.16 83.5475 168.516 84.0514 167.904C84.6975 167.157 85.4178 166.454 86.1832 165.826C89.5537 165.371 92.5585 165.788 95.3097 166.332C93.8701 167.413 92.3956 168.448 90.8876 169.431ZM88.5589 174.824C89.7453 173.222 90.5577 171.515 91.0336 169.627C92.5076 168.66 93.9496 167.652 95.3572 166.598C95.3456 168.777 94.8571 170.946 93.9268 172.915C92.2195 173.776 90.4122 174.415 88.5589 174.824ZM102.161 166.457C97.017 164.653 92.7026 163.574 88.5836 163.07L88.3998 163.085C85.5749 162.062 81.0219 159.48 80.9748 159.455L80.8211 159.402C79.4644 159.184 78.1364 159.029 76.8331 158.926L76.7666 158.883C75.279 158.092 73.8826 157.321 72.5604 156.559L72.6132 156.515L72.6288 156.345L72.46 156.33L72.3407 156.432C68.6859 154.317 65.5938 152.269 62.6796 150.042L62.5167 149.673C60.7773 146.149 57.7002 143.525 54.7274 140.982C53.2098 139.691 51.6489 138.352 50.2942 136.919L50.4382 136.586L50.4154 136.139C46.8645 130.224 45.5951 123.746 44.7541 117.631C43.8407 110.998 43.7534 104.442 43.7403 97.7563L43.4275 97.305L43.3576 97.29L42.8993 97.4394L42.1926 98.2605C41.3452 99.2688 40.5556 100.307 39.8183 101.371C39.0034 93.9403 37.0463 86.7508 33.9901 79.9664L34.0075 79.9325C36.294 72.7163 36.6335 64.9672 35.0344 57.6637C39.8052 54.7032 43.2024 50.3849 44.6158 45.4834L44.6328 45.3281C44.5814 44.1829 44.5494 43.2124 44.5135 42.2419C44.4829 41.4116 44.4529 40.5833 44.4131 39.6317C46.3625 38.3317 48.5699 37.1467 50.98 36.1082L51.0688 36.0607L51.1013 36.0457L52.0544 35.4012C54.7561 33.5757 57.3064 31.8487 59.4891 29.2672C62.1451 26.1319 63.5872 22.5799 63.657 18.9992L63.6041 18.7755C66.56 17.6211 69.33 15.8698 72.5871 13.1077C75.8116 10.3762 78.4701 7.44968 81.2814 4.34842L81.3536 3.81027L80.8817 3.54289C78.2348 3.78552 75.5162 3.74185 72.8844 3.69478C70.9103 3.66032 68.8731 3.62636 66.8743 3.7137C61.5219 3.93741 57.3462 5.06708 54.1381 7.15414C54.2788 4.88704 54.1648 2.61218 53.7821 0.394562L53.4013 6.10352e-05L52.9013 0.220352C51.4025 2.58742 49.0816 4.00922 46.6239 5.51448L46.1088 5.83475C42.7363 7.91017 40.4038 9.70512 38.549 11.6617C36.3755 13.9477 34.6837 16.6355 33.7839 19.2321C33.1204 21.1392 32.827 23.1088 32.5408 25.0061L32.4651 25.5195C31.5101 22.6667 30.0834 19.9736 28.2153 17.5905L27.8363 17.4071L27.4764 17.5623C20.0757 25.8306 16.4701 37.4767 17.7794 48.4783C16.4398 46.4408 14.8881 44.5279 13.1468 42.7858L12.7149 42.6553L12.3624 42.9416C8.1089 53.0198 7.30557 64.4728 10.0756 75.3167C7.37566 73.8668 4.51466 72.7313 1.54191 71.9544L1.11939 72.0471L0.9375 72.4397C1.18574 79.6462 1.52488 86.1233 3.16189 92.4374C4.39723 97.2157 6.94369 103.767 12.1218 108.693C8.69055 108.345 5.22519 108.46 1.8356 109.072L1.49646 109.313L1.4756 109.732C5.85235 120.265 13.613 129.165 23.4217 134.944C21.1405 135.13 19.0185 135.498 16.9495 136.036L16.6123 136.347L16.6918 136.804C22.4289 143.999 30.6367 149.343 39.4225 151.648C36.7053 152.618 34.1002 153.875 31.6619 155.393L31.4343 155.778L31.62 156.186C37.7778 160.974 45.567 163.618 53.1588 163.618C53.8219 163.618 54.483 163.599 55.1426 163.555C53.4489 164.473 51.7527 165.521 50.0381 166.715L49.8281 167.117L50.0478 167.521C54.8831 170.622 61.9196 171.956 67.1148 171.956L68.0223 171.945C73.6934 171.761 77.9584 170.937 81.8896 169.223C80.7226 171.101 79.9044 173.198 79.5197 175.4L79.9058 175.954C81.1984 176.197 82.5076 176.318 83.8225 176.318C90.8876 176.318 98.0002 172.915 102.383 167.204L102.462 166.772L102.161 166.457Z" fill="#43404C"/>
<path d="M31.4619 17.8105C32.1951 17.8105 32.7922 17.2132 32.7922 16.4795C32.7922 15.7482 32.1951 15.1509 31.4619 15.1509C30.7287 15.1509 30.1338 15.7482 30.1338 16.4795C30.1338 17.2132 30.7287 17.8105 31.4619 17.8105Z" fill="#43404C"/>
<path d="M14.6847 39.8896C15.5562 39.8896 16.2648 39.1807 16.2648 38.3068C16.2648 37.4328 15.5562 36.7297 14.6847 36.7297C13.8112 36.7297 13.1045 37.4328 13.1045 38.3068C13.1045 39.1807 13.8112 39.8896 14.6847 39.8896Z" fill="#43404C"/>
<path d="M4.75301 69.4937C5.62647 69.4937 6.33317 68.7847 6.33317 67.9166C6.33317 67.0431 5.62647 66.3361 4.75301 66.3361C3.88149 66.3361 3.17285 67.0431 3.17285 67.9166C3.17285 68.7847 3.88149 69.4937 4.75301 69.4937Z" fill="#43404C"/>
<path d="M6.53434 104.845C6.53434 103.977 5.82764 103.268 4.95418 103.268C4.08262 103.268 3.37402 103.977 3.37402 104.845C3.37402 105.719 4.08262 106.426 4.95418 106.426C5.82764 106.426 6.53434 105.719 6.53434 104.845Z" fill="#43404C"/>
<path d="M14.7852 130.966C13.9118 130.966 13.2051 131.675 13.2051 132.548C13.2051 133.422 13.9118 134.125 14.7852 134.125C15.6568 134.125 16.3654 133.422 16.3654 132.548C16.3654 131.675 15.6568 130.966 14.7852 130.966Z" fill="#43404C"/>
<path d="M29.8331 150.031C28.9596 150.031 28.2529 150.74 28.2529 151.613C28.2529 152.487 28.9596 153.196 29.8331 153.196C30.7046 153.196 31.4132 152.487 31.4132 151.613C31.4132 150.74 30.7046 150.031 29.8331 150.031Z" fill="#43404C"/>
<path d="M46.6347 164.133C45.8596 164.133 45.2305 164.764 45.2305 165.54C45.2305 166.317 45.8596 166.942 46.6347 166.942C47.4093 166.942 48.0384 166.317 48.0384 165.54C48.0384 164.764 47.4093 164.133 46.6347 164.133Z" fill="#43404C"/>
<path d="M199.998 117.039C196.563 116.946 193.354 116.675 189.708 116.165C194.232 113.614 198.915 111.449 203.418 109.872L203.744 109.92C202.681 112.395 201.425 114.772 199.998 117.039ZM187.116 130.996C183.09 129.815 179.276 128.054 175.761 125.755L175.763 125.74C177.88 123.969 180.165 122.246 182.556 120.61C186.171 122.566 190.034 123.963 194.051 124.769C191.934 127.046 189.613 129.133 187.116 130.996ZM177.918 134.819C176.222 134.222 174.655 133.363 173.249 132.247C173.522 130.655 173.702 129.055 173.795 127.453C174.371 126.934 174.96 126.42 175.566 125.91L175.574 125.92C179.072 128.219 182.87 129.986 186.876 131.174C185.06 132.514 183.157 133.743 181.171 134.834C180.127 134.795 179.045 134.785 177.918 134.819ZM188.422 136.785C184.071 138.624 179.649 140.35 175.178 141.952L179.327 135.843C182.672 135.814 185.61 136.12 188.424 136.785H188.422ZM181.241 143.613C179.274 143.218 177.338 142.714 175.47 142.102C179.723 140.574 183.933 138.934 188.081 137.192C186.055 139.575 183.749 141.728 181.241 143.613ZM158.941 149.716C158.984 149.159 159.022 148.581 159.047 147.984L159.071 147.373L159.778 147.169L159.802 147.246C161.267 149.11 163.448 150.143 165.667 150.963L165.187 151.075C163.152 150.453 161.063 149.993 158.941 149.716ZM148.838 162.348L148.785 162.338C146.697 161.368 144.605 160.6 142.483 160.033C142.762 159.179 143.008 158.305 143.232 157.421L143.305 157.166C145.341 157.272 147.377 157.334 149.416 157.368C150.128 159.47 152.106 161.216 153.834 162.647C152.154 162.681 150.48 162.585 148.838 162.348ZM138.349 170.98C136.911 170.931 135.567 170.844 134.296 170.713C132.756 169.539 131.439 167.875 130.579 165.997C133.946 166.584 137.349 167.001 140.763 167.238C141.585 168.258 142.859 169.593 144.499 170.588C142.301 170.918 140.177 171.043 138.349 170.98ZM119.025 163.707L119.688 163.434C123.154 164.467 126.702 165.303 130.293 165.947C131.111 167.797 132.366 169.452 133.845 170.66C129.789 170.193 126.494 169.232 123.345 167.642C122.14 166.103 120.681 164.765 119.025 163.707ZM125.603 175.12C122.216 173.518 118.936 171.689 115.793 169.655C118.951 169.475 121.526 169.63 123.843 170.116C124.755 171.664 125.421 173.353 125.783 175.095L125.603 175.12ZM118.142 174.9C116.941 173.334 116.109 171.664 115.611 169.826C118.678 171.814 121.875 173.605 125.174 175.182C122.841 175.484 120.459 175.376 118.142 174.9ZM105.141 167.142C109.802 165.54 113.771 164.56 117.549 164.071L117.56 164.075C118.326 164.482 119.078 164.977 119.798 165.536C116.498 165.142 113.548 165.58 110.842 166.122L110.793 166.147L110.296 165.773L110.128 165.798L110.15 165.968L110.745 166.419C110.73 168.588 111.185 170.756 112.07 172.737C109.429 171.359 107.043 169.466 105.141 167.142ZM111.033 166.332C113.784 165.788 116.789 165.371 120.16 165.826C120.924 166.454 121.643 167.151 122.29 167.898C122.793 168.516 123.258 169.16 123.675 169.835C121.314 169.359 118.682 169.232 115.455 169.431C113.947 168.448 112.471 167.413 111.033 166.332ZM112.417 172.915C111.486 170.946 110.997 168.777 110.986 166.598C112.394 167.652 113.836 168.66 115.31 169.627C115.783 171.515 116.598 173.222 117.784 174.824C115.931 174.415 114.121 173.77 112.417 172.915ZM125.751 160.488C130.715 159.698 135.247 159.683 139.624 160.494C136.142 161.493 132.955 163.21 130.266 165.686L130.257 165.695C126.797 165.074 123.379 164.27 120.037 163.284C122.511 162.211 125.257 160.75 125.751 160.488ZM134.573 157.213L135.058 157.611L136.278 158.612L136.17 158.93C134.723 158.805 133.254 158.762 131.752 158.805C132.731 158.267 133.669 157.738 134.573 157.213ZM137.309 155.579L136.361 158.369L135.208 157.421L134.795 157.088C135.663 156.582 136.5 156.078 137.309 155.579ZM144.693 150.099C146.343 146.755 149.342 144.194 152.241 141.715C153.664 140.502 155.13 139.249 156.443 137.899C156.735 138.643 156.989 139.401 157.205 140.166C156.028 142.223 154.522 144.316 151.729 145.912C151.688 145.159 151.646 144.407 151.604 143.656L151.485 143.539H151.477L151.364 143.666C151.407 144.447 151.451 145.224 151.492 145.999C150.873 145.98 149.696 145.178 149.272 144.854L149.103 144.879L149.126 145.047C149.192 145.097 150.674 146.223 151.506 146.238C151.566 147.315 151.625 148.387 151.684 149.464C150.812 149.517 149.941 149.604 149.069 149.722L148.12 149.362C147.347 149.066 146.57 148.774 145.795 148.478L145.64 148.552L145.71 148.708C146.487 148.998 147.26 149.29 148.034 149.585L148.58 149.794C147.246 149.993 145.912 150.264 144.586 150.618L144.62 150.338V150.251L144.691 150.099H144.693ZM158.905 132.408C160.274 133.31 162.703 134.306 164.325 134.436C164.452 135.323 164.583 136.216 164.719 137.105C162.44 137.896 160.206 138.91 158.26 140.161C157.667 138.288 157.107 136.94 156.883 136.421C157.658 135.1 158.326 133.762 158.905 132.408ZM162.544 117.761C163.404 111.499 163.537 105.331 163.561 99.0602C165.339 101.219 166.877 103.589 168.162 106.102C166.929 110.056 165.174 113.826 162.944 117.322L162.98 117.491L163.044 117.51L163.147 117.456C165.344 114.012 167.08 110.299 168.315 106.407C169.744 109.266 170.847 112.298 171.602 115.424L171.207 116.109C169.242 119.518 167.381 122.741 163.48 125.789C163.279 123.948 163.095 122.11 162.936 120.277L162.817 120.169H162.809L162.698 120.296C162.857 122.129 163.041 123.969 163.241 125.814L161.546 125.274L161.394 125.357L161.473 125.506L163.27 126.075C163.567 128.782 163.908 131.491 164.289 134.188C162.69 134.042 160.318 133.062 158.997 132.179C160.988 127.423 161.894 122.483 162.544 117.761ZM167.373 102.501C167.491 101.269 167.643 100.04 167.825 98.8176C170.627 100.711 173.518 102.248 176.656 103.511C177 106.572 177.321 109.633 177.62 112.691C175.337 112.153 173.141 111.244 171.083 109.988C170.325 108.018 169.409 106.096 168.336 104.239C168.027 103.657 167.707 103.079 167.373 102.501ZM171.79 73.4005C174.886 75.046 178.207 76.1417 181.667 76.6609C182.296 79.1745 182.736 81.5911 182.997 83.9358C181.548 83.75 180.134 83.3729 178.783 82.8139C177.887 81.8526 176.892 80.9277 175.784 80.0669C175.043 79.4603 174.303 78.9372 173.582 78.5335L173.552 78.5204L173.211 78.4956L173.092 78.549L173.071 78.564L173.026 78.598L172.988 78.6359L172.963 78.6664L172.959 78.6703C172.457 76.9375 172.067 75.1765 171.79 73.4005ZM164.85 50.0593C165.532 50.0894 166.208 50.1083 166.879 50.1083C170.047 50.1083 173.099 49.7541 176.144 49.0315C177.908 50.9294 179.522 52.9669 180.962 55.1161C179.752 55.3874 178.783 55.5145 177.734 55.596C176.315 54.4814 174.814 53.5337 173.249 52.8019L172.857 52.7922L172.588 53.0824C172.184 54.2616 171.836 55.4558 171.54 56.6689C168.759 54.889 166.483 52.6311 164.85 50.0593ZM162.76 43.1876C164.483 43.5137 166.157 43.6695 167.825 43.6695C168.598 43.6695 169.369 43.635 170.143 43.5671C172.217 45.1592 174.161 46.9202 175.953 48.8272C172.279 49.6856 168.583 50.0117 164.693 49.8128C163.817 48.3852 163.137 46.8707 162.677 45.2897C162.709 44.5337 162.735 43.8495 162.76 43.1876ZM157.574 36.0607C159.549 36.0359 161.303 36.148 162.919 36.381C164.223 36.5838 165.511 36.8759 166.779 37.2433C168.253 39.0198 169.403 41.0782 170.13 43.256C168.018 41.645 165.777 40.2043 163.429 38.9664L163.266 39.0159L163.315 39.1809C165.604 40.3843 167.791 41.7872 169.854 43.3487C167.516 43.5292 165.189 43.4021 162.769 42.9508L162.794 42.2763C162.825 41.3737 162.857 40.4619 162.904 39.4046L162.692 38.9814C161.14 37.9333 159.426 36.9536 157.574 36.0607ZM147.589 28.6509C147.059 28.0201 146.583 27.379 146.157 26.7196C149.645 26.7006 153.226 26.7045 156.701 26.689C158.675 27.9419 160.621 29.2424 162.535 30.5919C158.884 31.3334 155.344 31.6536 151.743 31.9453L151.632 32.0705L151.752 32.1826H151.76C155.439 31.8924 159.048 31.5624 162.781 30.7855L162.8 30.7797L162.811 30.7855L162.855 30.8195C164.56 32.0268 166.237 33.2744 167.887 34.5555C166.584 35.0218 165.159 35.3328 163.56 35.492C162.953 35.3954 162.326 35.312 161.678 35.2494C159.672 35.0218 157.646 34.9878 155.642 35.1528L154.827 34.5991C152.184 32.8139 149.689 31.1247 147.589 28.6509ZM143.8 19.4257C148.09 21.556 152.269 23.9046 156.32 26.4522C152.906 26.4711 149.403 26.4672 146.002 26.4808C144.594 24.2404 143.798 21.8423 143.667 19.4311L143.8 19.4257ZM132.517 10.7193C134.012 10.4767 137.606 9.85701 139.581 9.12914C142.18 10.1564 144.766 11.3259 147.248 12.6758C144.946 13.889 142.716 14.7285 140.361 15.6116L139.317 16.0042C137.746 15.0487 136.136 13.8642 134.378 12.374C133.737 11.832 133.119 11.2822 132.517 10.7193ZM126.799 4.83026C130.708 6.01283 134.984 7.32253 139.238 8.99277C137.146 9.70512 133.586 10.3083 132.293 10.5111C130.365 8.70065 128.597 6.79942 126.799 4.83026ZM133.474 4.65947C134.488 4.64053 135.517 4.62549 136.547 4.62549C137.606 5.9352 138.563 7.33806 139.395 8.79382C135.132 7.11969 130.842 5.80078 126.922 4.60997C129.113 4.73128 131.321 4.69731 133.474 4.65947ZM144.833 5.3C146.136 7.45549 147.043 9.89098 147.53 12.5599C145.015 11.1764 142.391 9.98753 139.753 8.93405H139.751L139.749 8.93018L139.746 8.92047C138.906 7.42104 137.936 5.97887 136.856 4.62549C137.716 4.62549 138.574 4.64053 139.425 4.67839C141.392 4.76186 143.188 4.97052 144.833 5.3ZM152.953 12.2246L153.2 16.19C151.469 14.8876 149.637 13.7293 147.743 12.6758L147.777 12.5696C147.302 9.92883 146.418 7.51227 145.153 5.36842C147.972 5.97499 150.321 6.96442 152.258 8.35176C152.357 9.15388 152.485 9.95357 152.644 10.7538C152.735 11.2444 152.838 11.7393 152.953 12.2246ZM159.215 6.33893L159.733 6.65337L160.036 6.84311C159.907 9.19173 159.587 11.1478 159.334 12.4919C157.551 9.38486 155.797 6.07155 154.082 2.56851C155.547 4.08153 157.341 5.18839 159.215 6.33893ZM167.099 12.3211C167.97 13.2441 168.759 14.2282 169.446 15.2424C168.965 18.1403 168.109 20.5763 166.57 23.4689L166.241 23.2922C165.322 22.0131 164.406 20.6825 163.499 19.2947L163.56 19.2112C164.03 16.1692 164.382 13.0888 164.611 10.0409C165.545 10.797 166.362 11.5496 167.099 12.3211ZM172.849 25.1464C172.974 25.9728 173.095 26.8011 173.251 27.6372L173.19 27.8832L172.741 27.5382C170.866 26.0485 168.869 24.7257 166.781 23.5844C168.289 20.7543 169.147 18.3528 169.64 15.534C170.502 16.8495 171.19 18.2126 171.652 19.547C172.284 21.3721 172.559 23.2054 172.849 25.1464ZM178.531 18.6445L178.636 18.7658C178.516 22.8506 178.632 26.9375 178.982 30.9995C177.421 29.1551 176.08 27.3451 174.903 25.4967C175.758 23.0496 176.974 20.7316 178.531 18.6445ZM186.283 52.4909C185.195 50.2296 183.831 48.1236 182.22 46.2074C184.202 44.4881 186.028 42.4258 187.666 40.064C188.028 43.5821 187.908 47.1381 187.272 50.6033C186.923 51.219 186.593 51.8504 186.283 52.4909ZM193.174 44.1926C192.217 48.6904 191.455 53.2377 190.891 57.8098C189.555 55.9066 188.554 53.7914 187.905 51.5112L188.139 51.0788L188.189 50.9386C189.566 48.5123 191.241 46.2413 193.174 44.1926ZM196.038 53.0921C194.777 54.9118 192.965 56.6689 191.129 57.8384C191.698 53.2377 192.465 48.6676 193.431 44.1392C194.587 47.0318 195.457 50.0307 196.038 53.0921ZM196.16 71.2226C193.742 72.9589 191.804 74.0167 189.954 74.6078C189.992 72.3125 190.083 70.0187 190.222 67.7235L190.239 67.7138L190.267 67.5774C192.446 66.719 194.68 64.9425 196.92 62.293C196.929 65.2666 196.677 68.2616 196.16 71.2226ZM193.719 76.8162C192.785 77.3791 191.677 78.0919 190.288 79.2332C190.226 78.7572 190.15 78.287 190.07 77.8172L190.03 77.5974L189.93 77.034C189.932 76.312 189.937 75.5899 189.949 74.8659C191.796 74.2836 193.721 73.251 196.101 71.5618C195.832 73.0424 195.5 74.5112 195.099 75.9728C194.635 76.244 194.174 76.5265 193.719 76.8162ZM204.42 73.0705C200.383 77.4475 196.686 82.4461 193.365 88.0115C192.935 84.6676 193.08 81.4261 193.825 77.8949L194.244 77.6275L194.771 77.3111L195.766 76.7099L195.807 76.6759C198.52 75.1178 201.41 73.8954 204.42 73.0555V73.0705ZM203.551 85.3518C200.353 86.8134 197.184 87.6 193.467 88.3128C196.755 82.7756 200.411 77.8056 204.405 73.45C204.254 77.6217 204.049 81.5571 203.551 85.3518ZM202.251 92.1982C201.848 93.753 201.306 95.4984 200.572 97.3089C197.503 97.9494 193.469 98.4536 188.568 97.5569C190.048 94.4216 191.627 91.4271 193.304 88.5836H193.327C197.088 87.8707 200.286 87.09 203.513 85.6342C203.211 87.8615 202.808 90.0451 202.251 92.1982ZM192.563 108.892C191.101 109.076 189.763 109.359 188.562 109.698C188.376 108.087 188.151 106.494 187.884 104.917C190.081 105.456 192.323 105.732 194.576 105.732L195.68 105.708C194.756 106.834 193.721 107.907 192.563 108.892ZM184.752 112.028C187.311 111.051 189.958 110.342 192.639 109.92C191.226 111.751 190.093 113.808 189.189 116.18C186.984 117.437 184.818 118.787 182.732 120.199C183.08 117.612 183.761 114.865 184.752 112.028ZM174.107 135.043C173.634 135.086 173.137 135.143 172.628 135.212C172.848 134.319 173.039 133.417 173.2 132.514C174.441 133.485 175.805 134.26 177.272 134.838C176.256 134.878 175.206 134.944 174.107 135.043ZM174.841 142.073C172.305 142.976 169.754 143.84 167.192 144.665C167.889 141.287 169.081 138.823 170.329 136.707C171.699 136.421 173.007 136.222 174.191 136.114C175.909 135.955 177.514 135.867 179.035 135.849L174.86 141.992L174.841 142.073ZM162.652 139.08C165.06 138.076 167.618 137.299 170.009 136.775C168.776 138.895 167.609 141.37 166.929 144.748C164.651 145.476 162.366 146.173 160.076 146.833C160.534 144.126 161.398 141.526 162.652 139.08ZM160.141 156.961C161.574 154.87 163.122 153.268 164.844 152.093C167.908 152.988 170.85 154.233 173.526 155.822C169.09 156.373 164.623 156.758 160.141 156.961ZM155.74 150.541C158.698 150.706 161.671 151.2 164.543 152.012C162.821 153.219 161.275 154.855 159.838 156.976C156.46 157.126 153.078 157.179 149.7 157.131C150.755 155.097 152.737 152.933 155.74 150.541ZM141.263 167.036C143.724 165.657 146.697 164.532 149.587 163.881C151.35 164.755 153.124 165.779 154.924 166.958C150.403 167.307 145.826 167.331 141.263 167.036ZM146.962 162.687L147.815 163.051C148.291 163.26 148.768 163.483 149.244 163.716C146.297 164.41 143.286 165.58 140.825 167.005C137.382 166.768 133.949 166.346 130.556 165.748C133.313 163.25 136.581 161.552 140.153 160.596C142.451 161.057 144.708 161.751 146.962 162.687ZM136.511 158.669C138.955 157.956 140.748 157.063 142.584 155.966C142.28 157.247 141.928 158.5 141.475 159.77L141.009 159.673C139.499 159.334 137.97 159.097 136.414 158.951L136.511 158.669ZM158.069 145.29C156.798 147.144 155.236 148.522 153.415 149.396C152.919 149.405 152.421 149.42 151.924 149.449C151.864 148.357 151.803 147.271 151.744 146.179C154.56 144.606 156.102 142.54 157.294 140.496C157.711 142.058 157.972 143.669 158.069 145.29ZM158.111 146.571L158.109 146.998L158.107 147.159L158.099 147.532C158.075 148.226 158.021 148.911 157.938 149.595C156.622 149.458 155.293 149.386 153.959 149.392C155.549 148.537 156.93 147.296 158.088 145.679L158.111 146.571ZM172.781 126.953C172.662 129.783 172.258 132.611 171.574 135.367L171.432 135.397C169.39 135.737 167.156 136.275 164.952 137.027C164.818 136.154 164.689 135.28 164.564 134.406C167.317 132.984 169.947 130.602 172.781 126.953ZM177.772 114.239C177.194 114.588 176.626 114.958 176.064 115.341C175.079 115.976 174.119 116.651 173.183 117.365L173.113 117.054C172.673 114.783 172.042 112.541 171.222 110.352C173.249 111.555 175.403 112.424 177.645 112.943L177.772 114.239ZM184.631 95.3393C184.888 96.0958 185.129 96.8576 185.354 97.6234C186.023 100.046 186.51 102.497 186.887 104.923C184.246 107.907 181.211 110.498 177.857 112.638C177.559 109.586 177.237 106.525 176.894 103.461C179.983 100.982 182.459 98.3852 184.631 95.3393ZM173.539 79.6806C174.24 84.3565 174.89 89.0596 175.492 93.7753C173.494 92.9227 171.557 91.647 169.721 89.9864C170.72 86.4625 171.991 83.0221 173.539 79.6806ZM179.174 84.8665C179.543 85.3328 179.89 85.8031 180.22 86.2747C178.935 88.8509 177.423 91.3301 175.72 93.654C175.129 89.031 174.49 84.4152 173.804 79.8301C174.668 80.4119 175.472 81.049 176.218 81.7182C177.251 82.6698 178.261 83.7558 179.174 84.8665ZM183.213 86.5363L182.389 87.6567L181.942 86.9686C181.148 85.6871 180.225 84.4249 179.155 83.221C180.402 83.6971 181.698 84.0173 183.024 84.1823C183.109 84.9747 183.172 85.7594 183.213 86.5363ZM181.927 76.7007L182.046 76.5983L182.012 76.4959C183.617 73.6868 184.894 70.7034 185.826 67.6114C186.877 69.8144 187.73 72.1155 188.359 74.4831C187.098 77.8454 185.421 81.0374 183.367 83.9834L183.363 83.9795L183.243 83.9644C182.986 81.6216 182.548 79.2085 181.925 76.7007H181.927ZM171.597 61.7107C172.593 62.2304 173.575 62.7346 174.558 63.2388C175.589 63.7638 176.62 64.2927 177.665 64.8406C178.37 66.5482 179.041 68.2772 179.653 70.0134L179.814 70.4797C176.873 69.7329 174.009 68.6634 171.286 67.3067C171.265 65.4316 171.37 63.5649 171.597 61.7107ZM172.321 57.5463L172.325 57.537C172.328 57.5181 172.669 56.0187 173.101 54.6464C174.608 57.8631 176.131 61.1478 177.521 64.4917C176.563 63.9967 175.614 63.5061 174.666 63.0209C173.659 62.507 172.65 61.9878 171.627 61.453C171.796 60.1433 172.027 58.837 172.321 57.5463ZM181.104 55.3287C182.041 56.7407 182.899 58.2082 183.679 59.711C183.53 60.3176 183.402 60.8901 183.293 61.4244C181.72 59.2752 179.945 57.3779 178.012 55.8158C178.994 55.7266 179.928 55.596 181.084 55.3398L181.104 55.3287ZM175.523 41.4324C177.62 42.879 179.498 44.5565 181.129 46.4252L181.62 47.0168C181.574 49.657 181.408 52.3109 181.125 54.9269C179.706 52.815 178.122 50.8114 176.392 48.9485L176.398 48.9238C176.512 46.3854 176.216 43.8684 175.523 41.4324ZM163.016 30.6356C162.906 28.0011 162.792 25.3662 162.681 22.7293C164.626 23.5693 166.515 24.5549 168.336 25.6753C168.469 28.6019 168.427 31.5663 168.203 34.4967L168.188 34.4836C166.495 33.1623 164.768 31.8831 163.016 30.6356ZM156.244 20.5229L157.124 20.7446C158.939 21.2605 160.71 21.886 162.434 22.6235C162.546 25.2332 162.66 27.8454 162.767 30.4594C160.888 29.1308 158.973 27.8492 157.03 26.6114L157.038 26.5488C156.691 24.5607 156.426 22.5304 156.244 20.5229ZM155.998 20.4642C156.176 22.4586 156.436 24.4714 156.777 26.4522H156.771C152.732 23.8954 148.561 21.5371 144.281 19.3971C148.218 19.1792 152.171 19.547 155.998 20.4642ZM153.271 8.37068C153.037 6.15891 153.052 3.91653 153.334 1.72319L153.505 1.92798C155.301 5.63968 157.139 9.13835 159.012 12.4138C156.879 11.4719 154.95 10.1127 153.271 8.37068ZM163.007 18.9841C160.151 17.9942 157.532 16.7413 154.812 15.0638C154.3 13.6027 153.891 12.0974 153.592 10.5791C153.48 9.97833 153.387 9.37177 153.315 8.75937C155.043 10.4975 157.023 11.8417 159.211 12.7588C160.462 14.9371 161.729 17.0145 163.007 18.9841ZM159.507 12.7933L159.532 12.738C159.787 11.4152 160.128 9.40961 160.269 6.98917C161.868 7.98781 163.217 8.93018 164.384 9.85701C164.157 12.9146 163.808 16.0042 163.338 19.0521C162.048 17.0713 160.771 14.9808 159.507 12.7933ZM153.2 16.4856C153.762 16.9121 154.316 17.3537 154.856 17.8108C155.081 18.3242 155.318 18.8342 155.568 19.3326C153.582 18.8531 151.201 18.5231 148.747 18.3926L153.167 16.5045L153.2 16.4856ZM157.08 19.7309L156.911 19.6834C156.403 18.8036 155.947 17.8923 155.537 16.9616C155.326 16.4555 155.126 15.9416 154.939 15.4277C157.677 17.0921 160.323 18.3339 163.222 19.3136C164.065 20.6044 164.914 21.8481 165.769 23.0462C162.999 21.6283 160.081 20.5137 157.08 19.7309ZM172.971 28.9658L172.963 29.0284C172.383 32.0612 172.319 35.1868 172.81 38.2482C171.36 37.0162 169.888 35.8123 168.391 34.6428L168.44 34.5555C168.664 31.6595 168.711 28.729 168.585 25.8306C169.772 26.5735 170.932 27.3737 172.061 28.2282L172.971 28.9658ZM189.712 74.716L189.693 74.8164L189.71 74.8504L189.697 75.8893C188.636 71.0082 186.692 66.4419 184.109 62.5847C184.27 61.5365 184.483 60.4976 184.744 59.4684C186.076 62.4294 187.838 65.1662 189.987 67.6114C189.843 69.9755 189.752 72.3426 189.712 74.716ZM188.403 97.3429C187.567 94.3688 186.711 88.8073 186.707 83.9795C187.334 83.2991 187.995 82.6145 188.693 81.921C190.214 80.5089 191.834 79.2293 193.539 78.088C192.812 81.6595 192.694 84.9403 193.166 88.3468C191.48 91.1996 189.89 94.1984 188.403 97.3429ZM184.71 92.6645C184.288 91.5295 183.787 90.3693 183.198 89.2091L182.925 88.6234C183.925 87.202 185.11 85.7346 186.468 84.241C186.504 89.177 187.401 94.805 188.248 97.6728C187.821 98.5807 187.402 99.5018 186.991 100.438L186.779 99.5551C186.233 97.2463 185.561 94.9355 184.71 92.6645ZM183.166 91.4912C183.662 92.6645 184.119 93.8495 184.536 95.0568C182.381 98.1047 179.926 100.702 176.862 103.176C176.517 100.118 176.152 97.0624 175.763 94.0048C177.512 91.6411 179.06 89.1222 180.377 86.5023C181.535 88.1949 182.45 89.9141 183.166 91.4912ZM177.974 64.8251C178.399 62.473 178.628 60.071 178.66 57.6792C180.059 58.9681 181.239 60.3709 182.251 61.7054C181.868 64.6945 181.129 67.6308 180.057 70.4492L179.879 69.9358C179.282 68.2374 178.63 66.554 177.944 64.8838L177.974 64.8251ZM173.295 54.068C175.269 54.9458 176.961 56.14 178.422 57.4594C178.403 59.8192 178.188 62.1867 177.787 64.5048C176.349 61.0415 174.767 57.6394 173.211 54.3106L173.295 54.068ZM185.697 53.5924C184.818 55.63 184.208 57.6147 183.766 59.3567C183.024 57.9408 182.209 56.5627 181.326 55.2282L181.341 55.1787C181.629 52.5841 181.802 49.938 181.855 47.3123C183.35 49.2101 184.64 51.3156 185.697 53.5924ZM181.121 44.9603C179.034 42.68 176.631 40.7332 173.96 39.1959L173.857 38.6709C173.632 37.1317 173.52 35.5793 173.528 34.0115C175.485 36.1422 177.684 38.0396 180.085 39.6661C180.387 41.4363 180.731 43.2031 181.121 44.9603ZM181.83 76.3309C181.374 74.536 180.824 72.6973 180.178 70.8L180.248 70.7165L180.241 70.6442C181.313 67.8487 182.054 64.9372 182.453 61.9781L183.147 62.9335L183.23 63.0209C184.134 64.3893 184.947 65.8164 185.671 67.2911C184.744 70.4361 183.456 73.4728 181.83 76.3309ZM183.299 84.5026C185.419 81.5285 187.154 78.2967 188.461 74.8849C188.706 75.8457 188.916 76.8123 189.087 77.7867C189.206 78.4898 189.308 79.1954 189.39 79.9077C188.914 80.3532 188.456 80.8006 188.008 81.2422C186.366 82.7663 184.837 84.44 183.439 86.2446C183.402 85.6682 183.355 85.0844 183.299 84.5026ZM177.883 112.905C181.243 110.78 184.28 108.198 186.933 105.228C187.177 106.824 187.376 108.411 187.552 109.969C184.225 110.911 181.006 112.302 177.999 114.103L177.883 112.905ZM195.887 105.461C193.185 105.586 190.477 105.316 187.84 104.66C187.618 103.375 187.364 102.093 187.08 100.832C187.529 99.7978 187.99 98.7836 188.461 97.7786C190.405 98.1392 192.213 98.2847 193.878 98.2847C196.404 98.2847 198.604 97.9591 200.462 97.5797C199.381 100.201 197.903 102.952 195.887 105.461ZM196.918 61.9252C194.667 64.6378 192.425 66.4458 190.244 67.3256C190.437 64.2583 190.72 61.1973 191.089 58.1489C192.944 57.0042 194.786 55.253 196.101 53.4216C196.614 56.2176 196.887 59.0607 196.918 61.9252ZM186.709 53.8748C186.961 53.3061 187.416 52.4322 187.745 51.8125C188.427 54.1155 189.465 56.2516 190.845 58.1684C190.479 61.1915 190.201 64.2301 190.008 67.2669C187.884 64.812 186.146 62.0693 184.841 59.0952C185.309 57.3434 185.919 55.6261 186.66 53.9622L186.709 53.8748ZM187.624 39.7001C185.961 42.1395 184.094 44.2663 182.065 46.0273L181.453 45.3334C181.035 43.4856 180.665 41.6261 180.347 39.7569C182.552 37.7251 184.397 35.1926 185.981 32.0268C186.781 34.5215 187.334 37.0996 187.624 39.7001ZM185.875 31.6973C184.309 34.8854 182.482 37.433 180.295 39.4706C179.856 36.8454 179.517 34.207 179.274 31.5571L179.302 31.5323C180.849 29.7374 182.202 27.7774 183.333 25.6996C184.344 27.6217 185.195 29.6311 185.875 31.6973ZM178.869 19.0429C180.527 21.0178 181.974 23.1675 183.194 25.4419C182.088 27.5004 180.763 29.4452 179.244 31.2329C178.888 27.1859 178.763 23.1141 178.869 19.0429ZM174.803 25.7869C176.015 27.675 177.4 29.5287 179.02 31.4168C179.259 34.0668 179.594 36.7051 180.03 39.3303C177.652 37.7004 175.468 35.7991 173.53 33.6631C173.552 32.135 173.689 30.5958 173.935 29.0531C174.153 27.9458 174.445 26.854 174.803 25.7869ZM153.269 13.4566C153.641 14.778 154.099 16.0726 154.645 17.3255L153.368 16.3114L153.44 16.1939L153.269 13.4566ZM152.982 16.3245L148.195 18.3679C146.949 18.315 145.691 18.315 144.461 18.3679C142.786 17.8297 141.199 17.1208 139.579 16.1595L140.446 15.8353C142.857 14.9333 145.136 14.0782 147.502 12.8161C149.407 13.8696 151.246 15.0298 152.982 16.3245ZM164.376 35.638C165.736 35.4541 166.974 35.1528 168.116 34.7301C169.731 35.9923 171.314 37.2869 172.872 38.6175L172.887 38.7048C171.786 38.123 170.651 37.6072 169.49 37.1617C167.866 36.5062 166.201 35.9923 164.376 35.638ZM170.432 43.3924C169.737 41.2243 168.624 39.162 167.192 37.3762C167.65 37.5165 168.103 37.6664 168.552 37.8309C170.151 38.4375 171.692 39.1843 173.295 40.0543L173.423 40.1019L173.628 40.214C174.17 40.5342 174.695 40.8734 175.212 41.2243C175.936 43.6539 176.254 46.1637 176.165 48.702C174.391 46.8139 172.47 45.0665 170.424 43.4797L170.432 43.3924ZM171.29 67.5774C174.041 68.9405 176.934 70.0095 179.909 70.7563C180.572 72.6973 181.136 74.5796 181.601 76.4085C178.147 75.8762 174.833 74.7635 171.747 73.1088C171.474 71.2755 171.32 69.4258 171.29 67.5774ZM169.647 90.248C171.517 91.9216 173.494 93.1993 175.526 94.0524C175.915 97.1153 176.281 100.177 176.626 103.234C173.514 101.978 170.644 100.444 167.862 98.556C168.291 95.7469 168.886 92.9698 169.647 90.248ZM171.415 116.234L171.684 115.767C172.447 119.043 172.834 122.411 172.813 125.768L172.811 125.867L172.804 126.259L172.794 126.542C169.958 130.228 167.249 132.723 164.528 134.15C164.147 131.466 163.806 128.769 163.511 126.075C167.531 122.965 169.418 119.693 171.415 116.234ZM143.451 151.411L143.472 151.555L143.478 151.576C143.385 152.084 143.288 152.609 143.186 153.138C143.02 153.996 142.849 154.826 142.661 155.636C140.81 156.758 139.031 157.664 136.606 158.388L137.627 155.38C139.707 154.078 141.621 152.774 143.451 151.411ZM144.876 170.529C143.235 169.593 141.945 168.292 141.091 167.263C143.254 167.403 145.422 167.481 147.584 167.481C150.054 167.481 152.519 167.384 154.967 167.195C152.019 168.884 148.37 169.972 144.876 170.529ZM143.372 156.927C143.829 155.247 144.183 153.539 144.431 151.818C145.892 151.346 147.423 150.992 149.005 150.755C151.087 150.497 153.228 150.419 155.38 150.522C152.415 152.91 150.462 155.079 149.429 157.131C147.409 157.097 145.388 157.029 143.372 156.927ZM154.198 162.638C152.393 161.148 150.416 159.465 149.673 157.374C150.494 157.384 151.314 157.387 152.135 157.387C154.7 157.387 157.268 157.33 159.831 157.219C160.064 157.539 161.602 159.533 164.215 160.775C160.966 161.897 157.571 162.537 154.198 162.638ZM164.539 160.663C162.087 159.561 160.555 157.763 160.123 157.203C164.505 157.004 168.878 156.64 173.219 156.108C170.559 158.034 167.616 159.567 164.539 160.663ZM159.077 147.119C159.09 146.416 159.073 145.713 159.027 145.01C158.958 143.815 158.804 142.54 158.518 141.165C159.456 140.614 160.417 140.098 161.398 139.628L162.307 139.224C161.095 141.651 160.259 144.229 159.817 146.907L159.077 147.119ZM166.091 150.867C163.804 150.036 161.525 149.022 160.024 147.14L160.032 147.096C162.362 146.422 164.687 145.718 167.006 144.975C168.849 146.344 171.027 147.358 173.783 148.114C171.301 149.29 168.721 150.217 166.091 150.867ZM174.119 147.959C171.334 147.218 169.141 146.226 167.29 144.883C169.905 144.043 172.51 143.16 175.098 142.234C177 142.869 178.973 143.393 180.981 143.806C178.825 145.402 176.521 146.795 174.119 147.959ZM173.818 127.102C173.958 124.259 173.808 121.412 173.376 118.601C174.373 117.792 175.407 117.024 176.472 116.311C175.886 119.485 175.566 122.614 175.524 125.624C174.941 126.113 174.373 126.608 173.818 127.102ZM175.771 125.419C175.826 122.411 176.156 119.291 176.751 116.128C179.179 114.532 181.767 113.191 184.456 112.143C183.467 115.011 182.798 117.776 182.465 120.383C180.11 121.988 177.861 123.678 175.771 125.419ZM194.24 124.567C190.235 123.774 186.385 122.396 182.779 120.455C184.905 119.014 187.113 117.64 189.363 116.36C193.098 116.893 196.362 117.18 199.851 117.272C198.198 119.869 196.319 122.309 194.24 124.567ZM202.91 109.794C198.503 111.377 193.937 113.502 189.523 115.991C190.434 113.671 191.572 111.664 192.986 109.872C196.277 109.391 199.617 109.347 202.91 109.794ZM204.507 109.072C201.118 108.46 197.652 108.345 194.221 108.693C199.4 103.767 201.946 97.2157 203.181 92.4374C204.818 86.1233 205.156 79.6462 205.406 72.4397L205.224 72.0471L204.801 71.9544C201.829 72.7313 198.967 73.8668 196.268 75.3167C199.036 64.4728 198.234 53.0198 193.983 42.9416L193.628 42.6553L193.196 42.7858C191.455 44.5279 189.903 46.4408 188.562 48.4783C189.873 37.4767 186.268 25.8306 178.867 17.5623L178.507 17.4071L178.128 17.5905C176.26 19.9736 174.833 22.6667 173.88 25.5195L173.802 25.0061C173.516 23.1088 173.222 21.1392 172.559 19.2321C171.659 16.6355 169.965 13.9477 167.794 11.6617C165.939 9.70512 163.607 7.91017 160.237 5.83475L159.717 5.51448C157.262 4.00922 154.941 2.58742 153.444 0.220352L152.942 6.10352e-05L152.561 0.394562C152.178 2.61218 152.065 4.88704 152.203 7.15414C148.997 5.06708 144.821 3.93741 139.467 3.7137C137.47 3.62636 135.433 3.66032 133.459 3.69478C130.827 3.74185 128.106 3.78552 125.461 3.54289L124.99 3.81027L125.062 4.34842C127.875 7.44968 130.531 10.3762 133.756 13.1077C137.013 15.8698 139.783 17.6211 142.737 18.7755L142.686 18.9992C142.756 22.5799 144.198 26.1319 146.854 29.2672C149.037 31.8487 151.587 33.5757 154.289 35.4012L155.242 36.0457H155.244L155.27 36.0607L155.365 36.1082C157.774 37.1467 159.98 38.3317 161.93 39.6317C161.891 40.5833 161.86 41.4116 161.83 42.2419C161.794 43.2124 161.762 44.1829 161.711 45.3281L161.729 45.4834C163.141 50.3849 166.538 54.7032 171.311 57.6637C169.71 64.9672 170.047 72.7163 172.338 79.9325L172.353 79.9664C169.295 86.7508 167.339 93.9403 166.525 101.371C165.587 100.018 164.564 98.7021 163.444 97.4394L162.915 97.305L162.603 97.7563C162.589 104.442 162.503 110.998 161.589 117.631C160.748 123.746 159.478 130.224 155.928 136.139L155.905 136.586L156.049 136.919C154.694 138.352 153.131 139.691 151.615 140.982C148.643 143.525 145.566 146.149 143.827 149.673L143.664 150.042C140.75 152.269 137.658 154.317 134.005 156.432L133.883 156.33L133.715 156.345L133.728 156.515L133.781 156.559C132.458 157.321 131.064 158.092 129.577 158.883L129.51 158.926C128.207 159.029 126.878 159.184 125.52 159.402L125.369 159.455C125.319 159.48 120.768 162.062 117.943 163.085L117.759 163.07C113.64 163.574 109.326 164.653 104.182 166.457L103.881 166.772L103.96 167.204C108.343 172.915 115.455 176.318 122.521 176.318C123.836 176.318 125.145 176.197 126.437 175.954L126.824 175.4C126.439 173.198 125.62 171.101 124.453 169.223C128.383 170.937 132.65 171.761 138.321 171.945L139.228 171.956C144.423 171.956 151.46 170.622 156.296 167.521L156.515 167.117L156.305 166.715C154.59 165.521 152.895 164.473 151.201 163.555C151.86 163.599 152.521 163.618 153.185 163.618C160.776 163.618 168.566 160.974 174.723 156.186L174.909 155.778L174.681 155.393C172.243 153.875 169.638 152.618 166.921 151.648C175.706 149.343 183.914 143.999 189.651 136.804L189.731 136.347L189.394 136.036C187.323 135.498 185.202 135.13 182.919 134.944C192.73 129.165 200.491 120.265 204.867 109.732L204.847 109.313L204.507 109.072Z" fill="#43404C"/>
<path d="M174.881 17.8105C175.614 17.8105 176.209 17.2132 176.209 16.4795C176.209 15.7482 175.614 15.1509 174.881 15.1509C174.145 15.1509 173.551 15.7482 173.551 16.4795C173.551 17.2132 174.145 17.8105 174.881 17.8105Z" fill="#43404C"/>
<path d="M191.657 39.8896C192.531 39.8896 193.238 39.1807 193.238 38.3068C193.238 37.4328 192.531 36.7297 191.657 36.7297C190.784 36.7297 190.077 37.4328 190.077 38.3068C190.077 39.1807 190.784 39.8896 191.657 39.8896Z" fill="#43404C"/>
<path d="M201.59 69.4937C202.461 69.4937 203.168 68.7847 203.168 67.9166C203.168 67.0431 202.461 66.3361 201.59 66.3361C200.716 66.3361 200.01 67.0431 200.01 67.9166C200.01 68.7847 200.716 69.4937 201.59 69.4937Z" fill="#43404C"/>
<path d="M199.809 104.845C199.809 105.719 200.515 106.426 201.388 106.426C202.26 106.426 202.969 105.719 202.969 104.845C202.969 103.977 202.26 103.268 201.388 103.268C200.515 103.268 199.809 103.977 199.809 104.845Z" fill="#43404C"/>
<path d="M191.558 130.966C190.684 130.966 189.978 131.675 189.978 132.548C189.978 133.422 190.684 134.125 191.558 134.125C192.431 134.125 193.138 133.422 193.138 132.548C193.138 131.675 192.431 130.966 191.558 130.966Z" fill="#43404C"/>
<path d="M176.509 150.031C175.638 150.031 174.93 150.74 174.93 151.613C174.93 152.487 175.638 153.196 176.509 153.196C177.383 153.196 178.09 152.487 178.09 151.613C178.09 150.74 177.383 150.031 176.509 150.031Z" fill="#43404C"/>
<path d="M159.708 164.133C158.931 164.133 158.302 164.764 158.302 165.54C158.302 166.317 158.931 166.942 159.708 166.942C160.482 166.942 161.112 166.317 161.112 165.54C161.112 164.764 160.482 164.133 159.708 164.133Z" fill="#43404C"/>
<path d="M46.0722 40.1076V114.458C46.0722 155.107 102.672 164.886 103.244 164.983C103.671 164.886 160.27 155.073 160.27 114.458V40.1076C139.004 31.013 131.465 16.1594 129.826 12.34L102.971 6.54749L76.5156 12.34C74.8767 16.1594 67.3416 31.013 46.0722 40.1076ZM102.971 168.33C102.1 168.209 42.6992 157.937 42.6992 114.458V38.9852C42.6992 38.301 43.1144 37.6852 43.7454 37.429C67.1655 27.8205 73.634 10.4882 73.6966 10.3174C73.8955 9.76956 74.3577 9.36195 74.9262 9.24065L102.613 3.21864L103.371 3.17497L103.729 3.21864L131.416 9.24065C131.985 9.36195 132.447 9.76956 132.646 10.3174C132.708 10.4882 139.177 27.8205 162.597 37.429C163.228 37.6852 163.643 38.301 163.643 38.9852V114.458C163.643 157.937 104.242 168.209 103.644 168.305L102.971 168.33Z" fill="#43404C"/>
<path d="M160.271 114.458C160.271 155.073 103.671 164.886 103.245 164.983C102.673 164.886 46.0729 155.107 46.0729 114.458V40.1076C67.3423 31.013 74.8774 16.1594 76.5163 12.3399L102.972 6.54745L129.827 12.3399C131.466 16.1594 139.005 31.013 160.271 40.1076V114.458ZM160.841 38.777C140.274 29.9852 132.919 15.8828 131.155 11.7732L130.858 11.0889L102.97 5.07277L75.4817 11.0889L75.1883 11.7732C73.4223 15.8828 66.0652 29.9852 45.5044 38.777L44.627 39.1502V114.458C44.627 156.307 102.426 166.311 103.01 166.404L103.341 166.433L103.59 166.385C109.541 165.273 161.715 154.37 161.715 114.458V39.1502L160.841 38.777Z" fill="#43404C"/>
<path d="M145.384 145.762C144.791 146.285 144.188 146.795 143.574 147.29C142.962 147.784 142.341 148.27 141.714 148.742L140.448 149.667L139.163 150.565L138.517 150.997L137.214 151.841C136.776 152.118 136.338 152.391 135.899 152.656C134.141 153.725 132.36 154.705 130.586 155.607C127.259 157.3 123.955 158.722 120.851 159.903C119.61 160.373 118.402 160.809 117.238 161.207L116.658 161.402C116.084 161.595 115.521 161.779 114.97 161.954C108.183 164.114 103.367 164.952 103.244 164.983C103.149 164.967 101.548 164.691 98.9356 164.059L98.1624 163.872C96.9615 163.57 95.584 163.201 94.0702 162.765L93.0395 162.46C91.8152 162.09 90.5139 161.677 89.1514 161.212C87.9824 160.814 86.7718 160.382 85.5267 159.912C84.0755 159.359 82.5825 158.756 81.0609 158.102C80.1913 157.723 79.3163 157.33 78.433 156.917L77.77 156.602C77.3286 156.388 76.8852 156.174 76.4419 155.952C75.7769 155.623 75.11 155.281 74.4431 154.929C73.7761 154.574 73.1112 154.21 72.4462 153.831C72.0024 153.583 71.559 153.327 71.1176 153.064C68.4689 151.502 65.8618 149.75 63.3895 147.8C62.7696 147.309 62.1614 146.81 61.5609 146.295C60.5608 145.436 59.5888 144.543 58.6488 143.616L58.09 143.053C51.0589 135.871 46.0722 126.526 46.0722 114.458V40.1076C48.6109 39.0197 50.9507 37.8555 53.1125 36.6332L53.9026 36.1761L55.0663 35.488L55.8617 34.9935C58.0085 33.6382 59.9525 32.2354 61.7108 30.8252L62.7454 29.976L62.9365 29.8149C63.4123 29.4131 63.8726 29.0055 64.3179 28.6018L64.9087 28.0631L65.9796 27.0436L66.7562 26.2721L66.7712 26.259C67.2718 25.749 67.7471 25.2448 68.2035 24.7445C68.9694 23.9103 69.6742 23.084 70.3222 22.2838C70.8412 21.6374 71.3243 21.0119 71.7715 20.4053C72.2187 19.7988 72.6315 19.2073 73.0127 18.639L73.5598 17.8049C73.9086 17.2609 74.2253 16.7412 74.5129 16.2525L74.9204 15.5397C75.6954 14.1597 76.2086 13.0547 76.5156 12.34L102.971 6.54749L129.826 12.34C130.338 13.5342 131.425 15.8051 133.33 18.639L133.926 19.5091C135.374 21.5714 137.233 23.8798 139.586 26.2721C140.257 26.9524 140.971 27.6405 141.725 28.3305L142.888 29.3694L144.116 30.4064C145.168 31.2707 146.288 32.1291 147.479 32.9783C151.056 35.5258 155.287 37.9769 160.27 40.1076V114.458C160.27 119.213 159.493 123.552 158.12 127.5C157.938 128.026 157.745 128.545 157.54 129.059C157.335 129.574 157.121 130.078 156.898 130.577C156.674 131.074 156.441 131.568 156.198 132.054C155.956 132.539 155.704 133.018 155.443 133.488C155.05 134.197 154.639 134.891 154.211 135.572C153.923 136.023 153.63 136.468 153.326 136.91C151.056 140.21 148.349 143.146 145.384 145.762ZM162.597 37.429C139.177 27.8205 132.708 10.4882 132.646 10.3174C132.447 9.76956 131.985 9.36195 131.416 9.23529L103.729 3.21864L103.371 3.17497L102.615 3.21864L74.9262 9.23529C74.3577 9.36195 73.8955 9.76956 73.6966 10.3174C73.634 10.4882 67.1655 27.8205 43.7454 37.429C43.1144 37.6852 42.6992 38.301 42.6992 38.9852V114.458C42.6992 157.937 102.1 168.209 102.971 168.33L103.644 168.305C104.242 168.209 163.643 157.937 163.643 114.458V38.9852C163.643 38.301 163.228 37.6852 162.597 37.429Z" fill="#0B7AC9"/>
<path d="M105.045 23.226L110.74 23.4041L106.166 26.9906L107.765 32.7661L103.118 29.2801L98.4114 32.6676L100.113 26.9314L95.6035 23.2542L101.303 23.1916L103.224 17.5282L105.045 23.226Z" fill="#FF8F0C"/>
<path d="M87.8352 28.238L92.5323 28.3841L88.7597 31.3427L90.0785 36.0986L86.2476 33.2308L82.3654 36.021L83.7691 31.2898L80.0518 28.2628L84.7489 28.204L86.3345 23.5408L87.8352 28.238Z" fill="#FF8F0C"/>
<path d="M121.594 28.238L126.291 28.3841L122.52 31.3427L123.839 36.0986L120.008 33.2308L116.126 36.021L117.528 31.2898L113.811 28.2628L118.509 28.204L120.093 23.5408L121.594 28.238Z" fill="#FF8F0C"/>
</svg>
