<svg width="48" height="48" viewBox="0 0 48 48" fill="none" xmlns="http://www.w3.org/2000/svg">
<rect width="48" height="48" fill="#F1F1F1"/>
<path d="M6 30.4055H29.0791C30.4728 30.4055 31.8094 29.8574 32.7949 28.8817C33.7804 27.906 34.334 26.5827 34.334 25.2029V21.802C34.3327 20.4226 33.7787 19.1001 32.7934 18.1247C31.8082 17.1493 30.4724 16.6008 29.0791 16.5995H6V10H29.0791C32.2395 10.0039 35.2693 11.2486 37.5041 13.4611C39.7388 15.6735 40.996 18.6731 41 21.802V25.2029C40.996 28.3314 39.7387 31.3305 37.5038 33.5421C35.2689 35.7538 32.239 36.9974 29.0791 37H6V30.4055Z" fill="#1D1D1B"/>
<path d="M13.6573 27H6V20H13.6573C14.5555 20.0349 15.4054 20.419 16.0286 21.0715C16.6519 21.7241 17 22.5944 17 23.5C17 24.4056 16.6519 25.2759 16.0286 25.9285C15.4054 26.581 14.5555 26.9651 13.6573 27Z" fill="#FFDD00"/>
</svg>
