<svg width="20" height="20" viewBox="0 0 20 20" fill="none" xmlns="http://www.w3.org/2000/svg">
<path d="M9.99297 1.66675C5.39297 1.66675 1.66797 5.40008 1.66797 10.0001C1.66797 14.6001 5.39297 18.3334 9.99297 18.3334C14.6013 18.3334 18.3346 14.6001 18.3346 10.0001C18.3346 5.40008 14.6013 1.66675 9.99297 1.66675ZM15.768 6.66675H13.3096C13.043 5.62508 12.6596 4.62508 12.1596 3.70008C13.693 4.22508 14.968 5.29175 15.768 6.66675ZM10.0013 3.36675C10.693 4.36675 11.2346 5.47508 11.593 6.66675H8.40964C8.76797 5.47508 9.30964 4.36675 10.0013 3.36675ZM3.5513 11.6667C3.41797 11.1334 3.33464 10.5751 3.33464 10.0001C3.33464 9.42508 3.41797 8.86675 3.5513 8.33342H6.36797C6.3013 8.88342 6.2513 9.43341 6.2513 10.0001C6.2513 10.5667 6.3013 11.1167 6.36797 11.6667H3.5513ZM4.23464 13.3334H6.69297C6.95964 14.3751 7.34297 15.3751 7.84297 16.3001C6.30964 15.7751 5.03464 14.7167 4.23464 13.3334ZM6.69297 6.66675H4.23464C5.03464 5.28341 6.30964 4.22508 7.84297 3.70008C7.34297 4.62508 6.95964 5.62508 6.69297 6.66675ZM10.0013 16.6334C9.30964 15.6334 8.76797 14.5251 8.40964 13.3334H11.593C11.2346 14.5251 10.693 15.6334 10.0013 16.6334ZM11.9513 11.6667H8.0513C7.9763 11.1167 7.91797 10.5667 7.91797 10.0001C7.91797 9.43341 7.9763 8.87508 8.0513 8.33342H11.9513C12.0263 8.87508 12.0846 9.43341 12.0846 10.0001C12.0846 10.5667 12.0263 11.1167 11.9513 11.6667ZM12.1596 16.3001C12.6596 15.3751 13.043 14.3751 13.3096 13.3334H15.768C14.968 14.7084 13.693 15.7751 12.1596 16.3001ZM13.6346 11.6667C13.7013 11.1167 13.7513 10.5667 13.7513 10.0001C13.7513 9.43341 13.7013 8.88342 13.6346 8.33342H16.4513C16.5846 8.86675 16.668 9.42508 16.668 10.0001C16.668 10.5751 16.5846 11.1334 16.4513 11.6667H13.6346Z" fill="#8B96A5"/>
</svg>
