<svg width="20" height="20" viewBox="0 0 20 20" fill="none" xmlns="http://www.w3.org/2000/svg">
<circle cx="10" cy="10" r="9.5" fill="#FFF4E7" stroke="#FF8F0C"/>
<path d="M8.69727 11.6744V11.5456C8.69979 11.1036 8.73893 10.7514 8.81469 10.4887C8.89297 10.2261 9.00661 10.014 9.1556 9.85238C9.30459 9.69077 9.48388 9.5443 9.69348 9.41299C9.85004 9.31198 9.9902 9.20718 10.1139 9.0986C10.2377 8.99001 10.3362 8.87006 10.4094 8.73875C10.4826 8.60491 10.5192 8.45592 10.5192 8.29178C10.5192 8.11754 10.4776 7.96476 10.3942 7.83344C10.3109 7.70213 10.1985 7.60112 10.0571 7.53041C9.91823 7.45971 9.76418 7.42435 9.59499 7.42435C9.43085 7.42435 9.27555 7.46097 9.12908 7.5342C8.98262 7.60491 8.86267 7.71097 8.76924 7.85238C8.6758 7.99127 8.6253 8.16425 8.61772 8.37132H7.07227C7.08489 7.86627 7.2061 7.44961 7.4359 7.12132C7.6657 6.79052 7.96999 6.5443 8.34878 6.38269C8.72757 6.21855 9.1455 6.13647 9.60257 6.13647C10.1051 6.13647 10.5495 6.21981 10.9359 6.38647C11.3223 6.55062 11.6253 6.78925 11.845 7.10238C12.0647 7.41552 12.1745 7.79304 12.1745 8.23496C12.1745 8.53041 12.1253 8.79304 12.0268 9.02284C11.9309 9.25011 11.7958 9.45213 11.6215 9.6289C11.4473 9.80314 11.2415 9.96097 11.0041 10.1024C10.8046 10.2211 10.6404 10.3448 10.5117 10.4736C10.3854 10.6024 10.2907 10.7514 10.2276 10.9206C10.167 11.0898 10.1354 11.2981 10.1329 11.5456V11.6744H8.69727ZM9.44727 14.0986C9.19474 14.0986 8.97883 14.0102 8.79954 13.8334C8.62277 13.6542 8.53565 13.4395 8.53817 13.1895C8.53565 12.942 8.62277 12.7299 8.79954 12.5531C8.97883 12.3764 9.19474 12.288 9.44727 12.288C9.68716 12.288 9.89802 12.3764 10.0798 12.5531C10.2617 12.7299 10.3538 12.942 10.3564 13.1895C10.3538 13.3562 10.3096 13.5089 10.2238 13.6478C10.1404 13.7842 10.0306 13.8941 9.89424 13.9774C9.75787 14.0582 9.60888 14.0986 9.44727 14.0986Z" fill="#FF8F0C"/>
</svg>
