<svg width="24" height="22" viewBox="0 0 24 22" fill="none" xmlns="http://www.w3.org/2000/svg">
<path fill-rule="evenodd" clip-rule="evenodd" d="M15.343 16.0295H8.64563C8.20433 16.0295 8.20433 15.3546 8.64563 15.3546H15.343C15.7843 15.3546 15.7843 16.0295 15.343 16.0295ZM1.26038 17.2236C1.03973 17.2236 0.883975 17.0159 0.935892 16.7953C1.02675 16.4578 1.57188 14.3162 1.64976 14.1864C1.72763 14.0437 1.88338 13.9917 2.02616 14.0307L4.55713 14.7056C4.98545 14.8224 4.81672 15.4714 4.3884 15.3546L2.48043 14.8354C4.03796 18.7422 7.81495 21.3251 12.0722 21.3251C17.7701 21.3251 22.4037 16.6914 22.4037 10.9935C22.4037 10.5522 23.0657 10.5522 23.0657 10.9935C23.0787 17.0678 18.1335 22 12.0722 22C7.6592 22 3.73943 19.4041 2.0002 15.4324L1.58486 16.964C1.54592 17.1198 1.40315 17.2236 1.26038 17.2236ZM17.0303 17.4053H6.95831C6.7766 17.4053 6.62085 17.2496 6.62085 17.0678V8.83894H5.88102C5.69931 8.83894 5.55654 8.68319 5.55654 8.50148V6.4118C5.55654 6.23009 5.69931 6.07434 5.88102 6.07434H9.20374V4.93215C9.20374 4.73746 9.35949 4.59469 9.5412 4.59469H14.4604C14.6421 4.59469 14.7978 4.73746 14.7978 4.93215V6.07434H18.1076C18.3023 6.07434 18.445 6.23009 18.445 6.4118V8.50148C18.445 8.68319 18.3023 8.83894 18.1076 8.83894H17.3678V17.0678C17.3678 17.2496 17.225 17.4053 17.0303 17.4053ZM7.29577 16.7304H16.7058V8.83894H13.7206V12.7847C13.7206 13.0832 13.3701 13.226 13.1495 13.0313L11.9813 11.941L10.8521 13.0313C10.6315 13.226 10.281 13.0832 10.281 12.7847V8.83894H7.29577V16.7304ZM12.202 11.2271L13.0456 12.0189V8.83894H10.956V11.9929L11.7477 11.2271C11.8645 11.1103 12.0722 11.1103 12.202 11.2271ZM6.21849 8.16401H17.7701V6.74926H6.21849V8.16401ZM9.87866 6.07434H14.1229V5.26962H9.87866V6.07434ZM0.922913 10.9935C0.922913 4.93215 5.85507 0 11.9294 0C16.3294 0 20.2621 2.59587 22.0014 6.56755L22.4167 5.02301C22.5335 4.59469 23.1695 4.7764 23.0657 5.20472L22.3778 7.73569C22.3388 7.9174 22.1571 8.02124 21.9754 7.96932L19.4444 7.2944C19.0161 7.17758 19.1849 6.52861 19.6132 6.64543L21.5211 7.15162C19.9636 3.24484 16.1866 0.661947 11.9294 0.661947C6.23147 0.661947 1.59784 5.29558 1.59784 10.9935C1.59784 11.4348 0.922913 11.4348 0.922913 10.9935ZM15.343 14.4979H8.64563C8.20433 14.4979 8.20433 13.823 8.64563 13.823H15.343C15.7843 13.823 15.7843 14.4979 15.343 14.4979Z" fill="white"/>
</svg>
