<svg width="26" height="26" viewBox="0 0 26 26" fill="none" xmlns="http://www.w3.org/2000/svg">
<path d="M25.8416 25.0748L17.9311 17.1643C19.5735 15.34 20.5831 12.935 20.5831 10.2917C20.5831 4.61717 15.966 0 10.2916 0C4.61712 0 0 4.61717 0 10.2917C0 15.9662 4.61712 20.5833 10.2916 20.5833C12.9349 20.5833 15.3398 19.5737 17.1642 17.9302L25.0746 25.8407C25.1807 25.9469 25.3194 26 25.4581 26C25.5967 26 25.7354 25.9469 25.8416 25.8418C26.0528 25.6295 26.0528 25.2872 25.8416 25.0748ZM10.2916 19.5C5.21403 19.5 1.08332 15.3692 1.08332 10.2917C1.08332 5.21408 5.21403 1.08333 10.2916 1.08333C15.3691 1.08333 19.4998 5.21408 19.4998 10.2917C19.4998 15.3692 15.3691 19.5 10.2916 19.5Z" fill="#0B7AC9"/>
</svg>
